STARTFONT 2.2
FONT -FontForge-SimSun-Book-R-Normal--15-140-75-75-P-149-ISO10646-1
SIZE 14 75 75
FONTBOUNDINGBOX 15 16 0 -3
METRICSSET 2
SWIDTH 3906 0
DWIDTH 15 0
SWIDTH1 3906 0
DWIDTH1 15 0
VVECTOR 7,12
COMMENT "Generated by fontforge, http://fontforge.sourceforge.net"
COMMENT "© Copyright ZHONGYI Electronic Co. 2001"
STARTPROPERTIES 38
FOUNDRY "FontForge"
FAMILY_NAME "SimSun"
WEIGHT_NAME "Book"
SLANT "R"
SETWIDTH_NAME "Normal"
ADD_STYLE_NAME ""
PIXEL_SIZE 15
POINT_SIZE 140
RESOLUTION_X 75
RESOLUTION_Y 75
SPACING "P"
AVERAGE_WIDTH 149
CHARSET_REGISTRY "ISO10646"
CHARSET_ENCODING "1"
FONTNAME_REGISTRY ""
CHARSET_COLLECTIONS "ASCII ISOLatin1Encoding ISO8859-5 JISX0208.1997 GB2312.1980 BIG5 ISO10646-1"
FONT_NAME "SimSun"
FACE_NAME "SimSun"
FONT_VERSION "5.00"
FONT_ASCENT 12
FONT_DESCENT 3
UNDERLINE_POSITION -1
UNDERLINE_THICKNESS 1
X_HEIGHT 7
CAP_HEIGHT 10
RAW_ASCENT 859
RAW_DESCENT 140
RELATIVE_WEIGHT 40
RELATIVE_SETWIDTH 50
SUPERSCRIPT_X 0
SUPERSCRIPT_Y 7
SUPERSCRIPT_SIZE 7
SUBSCRIPT_X 0
SUBSCRIPT_Y 0
SUBSCRIPT_SIZE 7
FIGURE_WIDTH 8
AVG_LOWERCASE_WIDTH 115
AVG_UPPERCASE_WIDTH 120
ENDPROPERTIES
CHARS 22038
STARTCHAR exclam
ENCODING 33
SWIDTH 500 0
DWIDTH 8 0
SWIDTH1 1000 0
BBX 1 11 3 0
BITMAP
80
80
80
80
80
80
80
80
00
80
80
ENDCHAR
STARTCHAR quotedbl
ENCODING 34
SWIDTH 500 0
DWIDTH 8 0
SWIDTH1 1000 0
BBX 3 3 2 8
BITMAP
A0
A0
A0
ENDCHAR
STARTCHAR numbersign
ENCODING 35
SWIDTH 500 0
DWIDTH 8 0
SWIDTH1 1000 0
BBX 6 11 1 0
BITMAP
14
14
14
7C
28
28
28
FC
50
50
50
ENDCHAR
STARTCHAR dollar
ENCODING 36
SWIDTH 500 0
DWIDTH 8 0
SWIDTH1 1000 0
BBX 5 13 1 -1
BITMAP
20
70
A8
A8
A0
A0
70
28
28
A8
A8
70
20
ENDCHAR
STARTCHAR percent
ENCODING 37
SWIDTH 500 0
DWIDTH 8 0
SWIDTH1 1000 0
BBX 7 10 0 0
BITMAP
44
A4
A8
A8
50
14
2A
2A
4A
44
ENDCHAR
STARTCHAR ampersand
ENCODING 38
SWIDTH 500 0
DWIDTH 8 0
SWIDTH1 1000 0
BBX 6 11 1 0
BITMAP
30
48
48
48
30
60
94
94
88
94
64
ENDCHAR
STARTCHAR quotesingle
ENCODING 39
SWIDTH 500 0
DWIDTH 8 0
SWIDTH1 1000 0
BBX 1 3 3 8
BITMAP
80
80
80
ENDCHAR
STARTCHAR parenleft
ENCODING 40
SWIDTH 500 0
DWIDTH 8 0
SWIDTH1 1000 0
BBX 3 13 3 -1
BITMAP
20
40
40
80
80
80
80
80
80
80
40
40
20
ENDCHAR
STARTCHAR parenright
ENCODING 41
SWIDTH 500 0
DWIDTH 8 0
SWIDTH1 1000 0
BBX 3 13 2 -1
BITMAP
80
40
40
20
20
20
20
20
20
20
40
40
80
ENDCHAR
STARTCHAR asterisk
ENCODING 42
SWIDTH 500 0
DWIDTH 8 0
SWIDTH1 1000 0
BBX 5 5 1 3
BITMAP
20
A8
70
50
88
ENDCHAR
STARTCHAR plus
ENCODING 43
SWIDTH 500 0
DWIDTH 8 0
SWIDTH1 1000 0
BBX 5 7 1 2
BITMAP
20
20
20
F8
20
20
20
ENDCHAR
STARTCHAR comma
ENCODING 44
SWIDTH 500 0
DWIDTH 8 0
SWIDTH1 1000 0
BBX 3 4 0 -2
BITMAP
60
60
20
C0
ENDCHAR
STARTCHAR hyphen
ENCODING 45
SWIDTH 500 0
DWIDTH 8 0
SWIDTH1 1000 0
BBX 6 1 1 5
BITMAP
FC
ENDCHAR
STARTCHAR period
ENCODING 46
SWIDTH 500 0
DWIDTH 8 0
SWIDTH1 1000 0
BBX 2 2 3 0
BITMAP
C0
C0
ENDCHAR
STARTCHAR slash
ENCODING 47
SWIDTH 500 0
DWIDTH 8 0
SWIDTH1 1000 0
BBX 5 13 1 -1
BITMAP
08
08
10
10
10
20
20
20
40
40
40
80
80
ENDCHAR
STARTCHAR zero
ENCODING 48
SWIDTH 500 0
DWIDTH 8 0
SWIDTH1 1000 0
BBX 6 11 1 0
BITMAP
78
84
84
84
84
84
84
84
84
84
78
ENDCHAR
STARTCHAR one
ENCODING 49
SWIDTH 500 0
DWIDTH 8 0
SWIDTH1 1000 0
BBX 2 11 2 0
BITMAP
40
C0
40
40
40
40
40
40
40
40
40
ENDCHAR
STARTCHAR two
ENCODING 50
SWIDTH 500 0
DWIDTH 8 0
SWIDTH1 1000 0
BBX 6 11 1 0
BITMAP
78
84
84
04
08
10
20
40
80
80
FC
ENDCHAR
STARTCHAR three
ENCODING 51
SWIDTH 500 0
DWIDTH 8 0
SWIDTH1 1000 0
BBX 6 11 1 0
BITMAP
78
84
84
04
38
04
04
04
84
84
78
ENDCHAR
STARTCHAR four
ENCODING 52
SWIDTH 500 0
DWIDTH 8 0
SWIDTH1 1000 0
BBX 6 11 1 0
BITMAP
08
18
18
28
28
48
48
88
FC
08
08
ENDCHAR
STARTCHAR five
ENCODING 53
SWIDTH 500 0
DWIDTH 8 0
SWIDTH1 1000 0
BBX 6 11 1 0
BITMAP
FC
80
80
80
F8
84
04
04
84
84
78
ENDCHAR
STARTCHAR six
ENCODING 54
SWIDTH 500 0
DWIDTH 8 0
SWIDTH1 1000 0
BBX 6 11 1 0
BITMAP
78
84
80
80
F8
84
84
84
84
84
78
ENDCHAR
STARTCHAR seven
ENCODING 55
SWIDTH 500 0
DWIDTH 8 0
SWIDTH1 1000 0
BBX 6 11 1 0
BITMAP
FC
04
08
08
10
10
10
20
20
20
20
ENDCHAR
STARTCHAR eight
ENCODING 56
SWIDTH 500 0
DWIDTH 8 0
SWIDTH1 1000 0
BBX 6 11 1 0
BITMAP
78
84
84
84
84
78
84
84
84
84
78
ENDCHAR
STARTCHAR nine
ENCODING 57
SWIDTH 500 0
DWIDTH 8 0
SWIDTH1 1000 0
BBX 6 11 1 0
BITMAP
78
84
84
84
84
84
7C
04
04
84
78
ENDCHAR
STARTCHAR colon
ENCODING 58
SWIDTH 500 0
DWIDTH 8 0
SWIDTH1 1000 0
BBX 1 7 3 2
BITMAP
80
80
00
00
00
80
80
ENDCHAR
STARTCHAR semicolon
ENCODING 59
SWIDTH 500 0
DWIDTH 8 0
SWIDTH1 1000 0
BBX 2 9 2 0
BITMAP
40
40
00
00
00
40
40
40
80
ENDCHAR
STARTCHAR less
ENCODING 60
SWIDTH 500 0
DWIDTH 8 0
SWIDTH1 1000 0
BBX 7 7 0 1
BITMAP
02
0C
30
C0
30
0C
02
ENDCHAR
STARTCHAR equal
ENCODING 61
SWIDTH 500 0
DWIDTH 8 0
SWIDTH1 1000 0
BBX 7 4 0 2
BITMAP
FE
00
00
FE
ENDCHAR
STARTCHAR greater
ENCODING 62
SWIDTH 500 0
DWIDTH 8 0
SWIDTH1 1000 0
BBX 7 7 0 1
BITMAP
80
60
18
06
18
60
80
ENDCHAR
STARTCHAR question
ENCODING 63
SWIDTH 500 0
DWIDTH 8 0
SWIDTH1 1000 0
BBX 5 11 1 0
BITMAP
70
88
88
08
10
20
20
20
00
20
20
ENDCHAR
STARTCHAR at
ENCODING 64
SWIDTH 500 0
DWIDTH 8 0
SWIDTH1 1000 0
BBX 6 12 1 -1
BITMAP
30
48
84
B4
D4
D4
D4
D4
A8
80
44
38
ENDCHAR
STARTCHAR A
ENCODING 65
SWIDTH 500 0
DWIDTH 8 0
SWIDTH1 1000 0
BBX 5 11 1 0
BITMAP
20
20
20
50
50
50
88
F8
88
88
88
ENDCHAR
STARTCHAR B
ENCODING 66
SWIDTH 500 0
DWIDTH 8 0
SWIDTH1 1000 0
BBX 6 11 1 0
BITMAP
F8
84
84
84
84
F8
84
84
84
84
F8
ENDCHAR
STARTCHAR C
ENCODING 67
SWIDTH 500 0
DWIDTH 8 0
SWIDTH1 1000 0
BBX 6 11 1 0
BITMAP
38
44
84
80
80
80
80
80
84
44
38
ENDCHAR
STARTCHAR D
ENCODING 68
SWIDTH 500 0
DWIDTH 8 0
SWIDTH1 1000 0
BBX 6 11 1 0
BITMAP
F0
88
84
84
84
84
84
84
84
88
F0
ENDCHAR
STARTCHAR E
ENCODING 69
SWIDTH 500 0
DWIDTH 8 0
SWIDTH1 1000 0
BBX 6 11 1 0
BITMAP
FC
80
80
80
80
FC
80
80
80
80
FC
ENDCHAR
STARTCHAR F
ENCODING 70
SWIDTH 500 0
DWIDTH 8 0
SWIDTH1 1000 0
BBX 6 11 1 0
BITMAP
FC
80
80
80
80
F8
80
80
80
80
80
ENDCHAR
STARTCHAR G
ENCODING 71
SWIDTH 500 0
DWIDTH 8 0
SWIDTH1 1000 0
BBX 6 11 1 0
BITMAP
38
44
84
80
80
9C
84
84
84
4C
34
ENDCHAR
STARTCHAR H
ENCODING 72
SWIDTH 500 0
DWIDTH 8 0
SWIDTH1 1000 0
BBX 6 11 1 0
BITMAP
84
84
84
84
84
FC
84
84
84
84
84
ENDCHAR
STARTCHAR I
ENCODING 73
SWIDTH 500 0
DWIDTH 8 0
SWIDTH1 1000 0
BBX 5 11 1 0
BITMAP
F8
20
20
20
20
20
20
20
20
20
F8
ENDCHAR
STARTCHAR J
ENCODING 74
SWIDTH 500 0
DWIDTH 8 0
SWIDTH1 1000 0
BBX 4 11 1 0
BITMAP
10
10
10
10
10
10
10
10
90
90
60
ENDCHAR
STARTCHAR K
ENCODING 75
SWIDTH 500 0
DWIDTH 8 0
SWIDTH1 1000 0
BBX 6 11 1 0
BITMAP
84
88
88
90
A0
B0
D0
88
88
84
84
ENDCHAR
STARTCHAR L
ENCODING 76
SWIDTH 500 0
DWIDTH 8 0
SWIDTH1 1000 0
BBX 6 11 1 0
BITMAP
80
80
80
80
80
80
80
80
80
80
FC
ENDCHAR
STARTCHAR M
ENCODING 77
SWIDTH 500 0
DWIDTH 8 0
SWIDTH1 1000 0
BBX 5 11 1 0
BITMAP
88
88
D8
D8
D8
A8
A8
A8
88
88
88
ENDCHAR
STARTCHAR N
ENCODING 78
SWIDTH 500 0
DWIDTH 8 0
SWIDTH1 1000 0
BBX 6 11 1 0
BITMAP
84
84
C4
C4
A4
A4
94
94
8C
8C
84
ENDCHAR
STARTCHAR O
ENCODING 79
SWIDTH 500 0
DWIDTH 8 0
SWIDTH1 1000 0
BBX 6 11 1 0
BITMAP
30
48
84
84
84
84
84
84
84
48
30
ENDCHAR
STARTCHAR P
ENCODING 80
SWIDTH 500 0
DWIDTH 8 0
SWIDTH1 1000 0
BBX 6 11 1 0
BITMAP
F8
84
84
84
84
F8
80
80
80
80
80
ENDCHAR
STARTCHAR Q
ENCODING 81
SWIDTH 500 0
DWIDTH 8 0
SWIDTH1 1000 0
BBX 6 12 1 -1
BITMAP
30
48
84
84
84
84
84
84
94
4C
38
04
ENDCHAR
STARTCHAR R
ENCODING 82
SWIDTH 500 0
DWIDTH 8 0
SWIDTH1 1000 0
BBX 6 11 1 0
BITMAP
F8
84
84
84
84
F8
84
84
84
84
84
ENDCHAR
STARTCHAR S
ENCODING 83
SWIDTH 500 0
DWIDTH 8 0
SWIDTH1 1000 0
BBX 6 11 1 0
BITMAP
78
84
84
80
40
30
08
04
84
84
78
ENDCHAR
STARTCHAR T
ENCODING 84
SWIDTH 500 0
DWIDTH 8 0
SWIDTH1 1000 0
BBX 5 11 1 0
BITMAP
F8
20
20
20
20
20
20
20
20
20
20
ENDCHAR
STARTCHAR U
ENCODING 85
SWIDTH 500 0
DWIDTH 8 0
SWIDTH1 1000 0
BBX 6 11 1 0
BITMAP
84
84
84
84
84
84
84
84
84
84
78
ENDCHAR
STARTCHAR V
ENCODING 86
SWIDTH 500 0
DWIDTH 8 0
SWIDTH1 1000 0
BBX 5 11 1 0
BITMAP
88
88
88
88
50
50
50
50
20
20
20
ENDCHAR
STARTCHAR W
ENCODING 87
SWIDTH 500 0
DWIDTH 8 0
SWIDTH1 1000 0
BBX 5 11 1 0
BITMAP
A8
A8
A8
A8
A8
A8
A8
50
50
50
50
ENDCHAR
STARTCHAR X
ENCODING 88
SWIDTH 500 0
DWIDTH 8 0
SWIDTH1 1000 0
BBX 5 11 1 0
BITMAP
88
88
50
50
20
20
20
50
50
88
88
ENDCHAR
STARTCHAR Y
ENCODING 89
SWIDTH 500 0
DWIDTH 8 0
SWIDTH1 1000 0
BBX 5 11 1 0
BITMAP
88
88
88
88
50
50
20
20
20
20
20
ENDCHAR
STARTCHAR Z
ENCODING 90
SWIDTH 500 0
DWIDTH 8 0
SWIDTH1 1000 0
BBX 6 11 1 0
BITMAP
FC
04
08
08
10
10
20
20
40
40
FC
ENDCHAR
STARTCHAR bracketleft
ENCODING 91
SWIDTH 500 0
DWIDTH 8 0
SWIDTH1 1000 0
BBX 3 13 3 -1
BITMAP
E0
80
80
80
80
80
80
80
80
80
80
80
E0
ENDCHAR
STARTCHAR backslash
ENCODING 92
SWIDTH 500 0
DWIDTH 8 0
SWIDTH1 1000 0
BBX 5 13 1 -1
BITMAP
80
80
40
40
40
20
20
20
10
10
10
08
08
ENDCHAR
STARTCHAR bracketright
ENCODING 93
SWIDTH 500 0
DWIDTH 8 0
SWIDTH1 1000 0
BBX 3 13 1 -1
BITMAP
E0
20
20
20
20
20
20
20
20
20
20
20
E0
ENDCHAR
STARTCHAR asciicircum
ENCODING 94
SWIDTH 500 0
DWIDTH 8 0
SWIDTH1 1000 0
BBX 5 3 1 8
BITMAP
20
50
88
ENDCHAR
STARTCHAR underscore
ENCODING 95
SWIDTH 500 0
DWIDTH 8 0
SWIDTH1 1000 0
BBX 7 1 0 -2
BITMAP
FE
ENDCHAR
STARTCHAR grave
ENCODING 96
SWIDTH 500 0
DWIDTH 8 0
SWIDTH1 1000 0
BBX 2 2 2 9
BITMAP
80
40
ENDCHAR
STARTCHAR a
ENCODING 97
SWIDTH 500 0
DWIDTH 8 0
SWIDTH1 1000 0
BBX 6 8 1 0
BITMAP
78
84
04
7C
84
84
8C
74
ENDCHAR
STARTCHAR b
ENCODING 98
SWIDTH 500 0
DWIDTH 8 0
SWIDTH1 1000 0
BBX 6 11 1 0
BITMAP
80
80
80
B0
C8
84
84
84
84
C8
B0
ENDCHAR
STARTCHAR c
ENCODING 99
SWIDTH 500 0
DWIDTH 8 0
SWIDTH1 1000 0
BBX 6 8 1 0
BITMAP
38
44
80
80
80
80
44
38
ENDCHAR
STARTCHAR d
ENCODING 100
SWIDTH 500 0
DWIDTH 8 0
SWIDTH1 1000 0
BBX 6 11 1 0
BITMAP
04
04
04
34
4C
84
84
84
84
4C
34
ENDCHAR
STARTCHAR e
ENCODING 101
SWIDTH 500 0
DWIDTH 8 0
SWIDTH1 1000 0
BBX 6 8 1 0
BITMAP
78
84
84
FC
80
80
84
78
ENDCHAR
STARTCHAR f
ENCODING 102
SWIDTH 500 0
DWIDTH 8 0
SWIDTH1 1000 0
BBX 4 11 2 0
BITMAP
30
40
40
F0
40
40
40
40
40
40
40
ENDCHAR
STARTCHAR g
ENCODING 103
SWIDTH 500 0
DWIDTH 8 0
SWIDTH1 1000 0
BBX 6 9 1 -1
BITMAP
7C
84
84
84
84
7C
04
84
78
ENDCHAR
STARTCHAR h
ENCODING 104
SWIDTH 500 0
DWIDTH 8 0
SWIDTH1 1000 0
BBX 6 11 1 0
BITMAP
80
80
80
F8
84
84
84
84
84
84
84
ENDCHAR
STARTCHAR i
ENCODING 105
SWIDTH 500 0
DWIDTH 8 0
SWIDTH1 1000 0
BBX 5 11 1 0
BITMAP
20
20
00
E0
20
20
20
20
20
20
F8
ENDCHAR
STARTCHAR j
ENCODING 106
SWIDTH 500 0
DWIDTH 8 0
SWIDTH1 1000 0
BBX 4 12 1 -1
BITMAP
10
10
00
70
10
10
10
10
10
10
10
E0
ENDCHAR
STARTCHAR k
ENCODING 107
SWIDTH 500 0
DWIDTH 8 0
SWIDTH1 1000 0
BBX 6 11 1 0
BITMAP
80
80
80
84
88
90
A0
E0
90
88
84
ENDCHAR
STARTCHAR l
ENCODING 108
SWIDTH 500 0
DWIDTH 8 0
SWIDTH1 1000 0
BBX 5 11 1 0
BITMAP
E0
20
20
20
20
20
20
20
20
20
F8
ENDCHAR
STARTCHAR m
ENCODING 109
SWIDTH 500 0
DWIDTH 8 0
SWIDTH1 1000 0
BBX 5 8 1 0
BITMAP
D0
A8
A8
A8
A8
A8
A8
A8
ENDCHAR
STARTCHAR n
ENCODING 110
SWIDTH 500 0
DWIDTH 8 0
SWIDTH1 1000 0
BBX 5 8 1 0
BITMAP
F0
88
88
88
88
88
88
88
ENDCHAR
STARTCHAR o
ENCODING 111
SWIDTH 500 0
DWIDTH 8 0
SWIDTH1 1000 0
BBX 6 8 1 0
BITMAP
30
48
84
84
84
84
48
30
ENDCHAR
STARTCHAR p
ENCODING 112
SWIDTH 500 0
DWIDTH 8 0
SWIDTH1 1000 0
BBX 6 10 1 -2
BITMAP
B0
C8
84
84
84
84
C8
B0
80
80
ENDCHAR
STARTCHAR q
ENCODING 113
SWIDTH 500 0
DWIDTH 8 0
SWIDTH1 1000 0
BBX 6 10 0 -2
BITMAP
34
4C
84
84
84
84
4C
34
04
04
ENDCHAR
STARTCHAR r
ENCODING 114
SWIDTH 500 0
DWIDTH 8 0
SWIDTH1 1000 0
BBX 5 8 1 0
BITMAP
B8
C0
80
80
80
80
80
80
ENDCHAR
STARTCHAR s
ENCODING 115
SWIDTH 500 0
DWIDTH 8 0
SWIDTH1 1000 0
BBX 6 8 1 0
BITMAP
78
84
80
60
18
04
84
78
ENDCHAR
STARTCHAR t
ENCODING 116
SWIDTH 500 0
DWIDTH 8 0
SWIDTH1 1000 0
BBX 4 10 2 0
BITMAP
40
40
F0
40
40
40
40
40
40
30
ENDCHAR
STARTCHAR u
ENCODING 117
SWIDTH 500 0
DWIDTH 8 0
SWIDTH1 1000 0
BBX 6 8 1 0
BITMAP
84
84
84
84
84
84
84
7C
ENDCHAR
STARTCHAR v
ENCODING 118
SWIDTH 500 0
DWIDTH 8 0
SWIDTH1 1000 0
BBX 5 8 1 0
BITMAP
88
88
88
88
50
50
20
20
ENDCHAR
STARTCHAR w
ENCODING 119
SWIDTH 500 0
DWIDTH 8 0
SWIDTH1 1000 0
BBX 5 8 1 0
BITMAP
A8
A8
A8
A8
A8
50
50
50
ENDCHAR
STARTCHAR x
ENCODING 120
SWIDTH 500 0
DWIDTH 8 0
SWIDTH1 1000 0
BBX 6 8 1 0
BITMAP
84
48
48
30
30
48
48
84
ENDCHAR
STARTCHAR y
ENCODING 121
SWIDTH 500 0
DWIDTH 8 0
SWIDTH1 1000 0
BBX 6 9 1 -1
BITMAP
84
84
48
48
50
30
20
20
C0
ENDCHAR
STARTCHAR z
ENCODING 122
SWIDTH 500 0
DWIDTH 8 0
SWIDTH1 1000 0
BBX 6 8 1 0
BITMAP
FC
04
08
10
20
40
80
FC
ENDCHAR
STARTCHAR braceleft
ENCODING 123
SWIDTH 500 0
DWIDTH 8 0
SWIDTH1 1000 0
BBX 5 13 1 -1
BITMAP
18
20
20
20
20
20
C0
20
20
20
20
20
18
ENDCHAR
STARTCHAR bar
ENCODING 124
SWIDTH 500 0
DWIDTH 8 0
SWIDTH1 1000 0
BBX 1 15 3 -2
BITMAP
80
80
80
80
80
80
80
80
80
80
80
80
80
80
80
ENDCHAR
STARTCHAR braceright
ENCODING 125
SWIDTH 500 0
DWIDTH 8 0
SWIDTH1 1000 0
BBX 5 13 1 -1
BITMAP
C0
20
20
20
20
20
18
20
20
20
20
20
C0
ENDCHAR
STARTCHAR asciitilde
ENCODING 126
SWIDTH 500 0
DWIDTH 8 0
SWIDTH1 1000 0
BBX 7 3 1 10
BITMAP
62
92
8C
ENDCHAR
STARTCHAR exclamdown
ENCODING 161
SWIDTH 500 0
DWIDTH 8 0
SWIDTH1 1000 0
BBX 1 11 3 -1
BITMAP
80
80
00
00
80
80
80
80
80
80
80
ENDCHAR
STARTCHAR cent
ENCODING 162
SWIDTH 500 0
DWIDTH 8 0
SWIDTH1 1000 0
BBX 5 9 1 -1
BITMAP
08
70
98
A8
A0
A0
C8
70
80
ENDCHAR
STARTCHAR sterling
ENCODING 163
SWIDTH 500 0
DWIDTH 8 0
SWIDTH1 1000 0
BBX 6 11 1 0
BITMAP
30
48
40
40
F0
20
20
60
A4
B4
48
ENDCHAR
STARTCHAR currency
ENCODING 164
SWIDTH 1000 0
SWIDTH1 1000 0
BBX 12 12 2 0
BITMAP
8010
4F20
30C0
2040
4020
4020
4020
4020
2040
30C0
4F20
8010
ENDCHAR
STARTCHAR yen
ENCODING 165
SWIDTH 500 0
DWIDTH 8 0
SWIDTH1 1000 0
BBX 5 11 1 0
BITMAP
88
88
88
50
50
20
F8
20
F8
20
20
ENDCHAR
STARTCHAR brokenbar
ENCODING 166
SWIDTH 500 0
DWIDTH 8 0
SWIDTH1 1000 0
BBX 1 14 4 -2
BITMAP
80
80
80
80
80
00
00
00
80
80
80
80
80
80
ENDCHAR
STARTCHAR section
ENCODING 167
SWIDTH 1000 0
SWIDTH1 1000 0
BBX 5 13 5 -1
BITMAP
70
88
88
40
60
90
88
48
30
10
88
88
70
ENDCHAR
STARTCHAR dieresis
ENCODING 168
SWIDTH 1000 0
SWIDTH1 1000 0
BBX 7 2 4 9
BITMAP
C6
C6
ENDCHAR
STARTCHAR copyright
ENCODING 169
SWIDTH 500 0
DWIDTH 8 0
SWIDTH1 1000 0
BBX 6 9 1 1
BITMAP
30
48
B4
A4
A4
A4
B4
48
30
ENDCHAR
STARTCHAR ordfeminine
ENCODING 170
SWIDTH 500 0
DWIDTH 8 0
SWIDTH1 1000 0
BBX 5 5 1 6
BITMAP
60
90
70
90
68
ENDCHAR
STARTCHAR guillemotleft
ENCODING 171
SWIDTH 500 0
DWIDTH 8 0
SWIDTH1 1000 0
BBX 6 7 1 2
BITMAP
24
48
48
90
48
48
24
ENDCHAR
STARTCHAR logicalnot
ENCODING 172
SWIDTH 500 0
DWIDTH 8 0
SWIDTH1 1000 0
BBX 6 3 1 4
BITMAP
FC
04
04
ENDCHAR
STARTCHAR uni00AD
ENCODING 173
SWIDTH 500 0
DWIDTH 8 0
SWIDTH1 1000 0
BBX 4 1 2 5
BITMAP
F0
ENDCHAR
STARTCHAR registered
ENCODING 174
SWIDTH 500 0
DWIDTH 8 0
SWIDTH1 1000 0
BBX 6 9 1 1
BITMAP
30
48
B4
AC
B4
AC
AC
48
30
ENDCHAR
STARTCHAR macron
ENCODING 175
SWIDTH 500 0
DWIDTH 8 0
SWIDTH1 1000 0
BBX 5 1 2 10
BITMAP
F8
ENDCHAR
STARTCHAR degree
ENCODING 176
SWIDTH 1000 0
SWIDTH1 1000 0
BBX 4 4 1 8
BITMAP
60
90
90
60
ENDCHAR
STARTCHAR plusminus
ENCODING 177
SWIDTH 1000 0
SWIDTH1 1000 0
BBX 9 11 3 0
BITMAP
0800
0800
0800
0800
FF80
0800
0800
0800
0800
0000
FF80
ENDCHAR
STARTCHAR uni00B2
ENCODING 178
SWIDTH 500 0
DWIDTH 8 0
SWIDTH1 1000 0
BBX 3 5 2 6
BITMAP
C0
20
40
80
E0
ENDCHAR
STARTCHAR uni00B3
ENCODING 179
SWIDTH 500 0
DWIDTH 8 0
SWIDTH1 1000 0
BBX 3 5 2 6
BITMAP
C0
20
40
20
E0
ENDCHAR
STARTCHAR acute
ENCODING 180
SWIDTH 500 0
DWIDTH 8 0
SWIDTH1 1000 0
BBX 2 2 3 10
BITMAP
40
80
ENDCHAR
STARTCHAR mu
ENCODING 181
SWIDTH 500 0
DWIDTH 8 0
SWIDTH1 1000 0
BBX 5 8 1 -1
BITMAP
88
88
88
88
88
98
E8
80
ENDCHAR
STARTCHAR paragraph
ENCODING 182
SWIDTH 500 0
DWIDTH 8 0
SWIDTH1 1000 0
BBX 6 13 0 -1
BITMAP
7C
E4
E4
E4
E4
64
24
24
24
24
24
24
24
ENDCHAR
STARTCHAR periodcentered
ENCODING 183
SWIDTH 1000 0
SWIDTH1 1000 0
BBX 4 4 5 4
BITMAP
60
F0
F0
60
ENDCHAR
STARTCHAR cedilla
ENCODING 184
SWIDTH 500 0
DWIDTH 8 0
SWIDTH1 1000 0
BBX 2 4 4 -1
BITMAP
80
C0
40
80
ENDCHAR
STARTCHAR uni00B9
ENCODING 185
SWIDTH 500 0
DWIDTH 8 0
SWIDTH1 1000 0
BBX 2 5 2 6
BITMAP
40
C0
40
40
40
ENDCHAR
STARTCHAR ordmasculine
ENCODING 186
SWIDTH 500 0
DWIDTH 8 0
SWIDTH1 1000 0
BBX 4 5 1 6
BITMAP
60
90
90
90
60
ENDCHAR
STARTCHAR guillemotright
ENCODING 187
SWIDTH 500 0
DWIDTH 8 0
SWIDTH1 1000 0
BBX 6 7 1 2
BITMAP
90
48
48
24
48
48
90
ENDCHAR
STARTCHAR onequarter
ENCODING 188
SWIDTH 500 0
DWIDTH 8 0
SWIDTH1 1000 0
BBX 6 11 1 0
BITMAP
44
C4
48
48
50
20
24
4C
54
9C
84
ENDCHAR
STARTCHAR onehalf
ENCODING 189
SWIDTH 500 0
DWIDTH 8 0
SWIDTH1 1000 0
BBX 6 11 1 0
BITMAP
44
C4
48
48
50
20
38
44
48
90
9C
ENDCHAR
STARTCHAR threequarters
ENCODING 190
SWIDTH 500 0
DWIDTH 8 0
SWIDTH1 1000 0
BBX 6 11 1 0
BITMAP
C4
24
E8
28
D0
20
24
4C
54
9C
84
ENDCHAR
STARTCHAR questiondown
ENCODING 191
SWIDTH 500 0
DWIDTH 8 0
SWIDTH1 1000 0
BBX 5 11 1 -1
BITMAP
20
20
00
20
20
20
40
80
88
88
70
ENDCHAR
STARTCHAR Agrave
ENCODING 192
SWIDTH 500 0
DWIDTH 8 0
SWIDTH1 1000 0
BBX 5 12 1 0
BITMAP
40
20
00
20
20
50
50
50
88
F8
88
88
ENDCHAR
STARTCHAR Aacute
ENCODING 193
SWIDTH 500 0
DWIDTH 8 0
SWIDTH1 1000 0
BBX 5 12 1 0
BITMAP
10
20
00
20
20
50
50
50
88
F8
88
88
ENDCHAR
STARTCHAR Acircumflex
ENCODING 194
SWIDTH 500 0
DWIDTH 8 0
SWIDTH1 1000 0
BBX 5 12 1 0
BITMAP
20
50
00
20
20
50
50
50
88
F8
88
88
ENDCHAR
STARTCHAR Atilde
ENCODING 195
SWIDTH 500 0
DWIDTH 8 0
SWIDTH1 1000 0
BBX 5 12 1 0
BITMAP
68
90
00
20
20
50
50
50
88
F8
88
88
ENDCHAR
STARTCHAR Adieresis
ENCODING 196
SWIDTH 500 0
DWIDTH 8 0
SWIDTH1 1000 0
BBX 5 11 1 0
BITMAP
50
00
20
20
50
50
50
88
F8
88
88
ENDCHAR
STARTCHAR Aring
ENCODING 197
SWIDTH 500 0
DWIDTH 8 0
SWIDTH1 1000 0
BBX 5 12 1 0
BITMAP
20
50
50
20
20
50
50
50
88
F8
88
88
ENDCHAR
STARTCHAR AE
ENCODING 198
SWIDTH 500 0
DWIDTH 8 0
SWIDTH1 1000 0
BBX 6 11 1 0
BITMAP
3C
30
50
50
50
5C
90
F0
90
90
9C
ENDCHAR
STARTCHAR Ccedilla
ENCODING 199
SWIDTH 500 0
DWIDTH 8 0
SWIDTH1 1000 0
BBX 6 13 1 -2
BITMAP
30
48
84
84
80
80
84
84
48
30
30
10
20
ENDCHAR
STARTCHAR Egrave
ENCODING 200
SWIDTH 500 0
DWIDTH 8 0
SWIDTH1 1000 0
BBX 5 12 1 0
BITMAP
40
20
00
F8
80
80
80
F0
80
80
80
F8
ENDCHAR
STARTCHAR Eacute
ENCODING 201
SWIDTH 500 0
DWIDTH 8 0
SWIDTH1 1000 0
BBX 5 12 1 0
BITMAP
10
20
00
F8
80
80
80
F0
80
80
80
F8
ENDCHAR
STARTCHAR Ecircumflex
ENCODING 202
SWIDTH 500 0
DWIDTH 8 0
SWIDTH1 1000 0
BBX 5 12 1 0
BITMAP
20
50
00
F8
80
80
80
F0
80
80
80
F8
ENDCHAR
STARTCHAR Edieresis
ENCODING 203
SWIDTH 500 0
DWIDTH 8 0
SWIDTH1 1000 0
BBX 5 11 1 0
BITMAP
50
00
F8
80
80
80
F0
80
80
80
F8
ENDCHAR
STARTCHAR Igrave
ENCODING 204
SWIDTH 500 0
DWIDTH 8 0
SWIDTH1 1000 0
BBX 3 12 2 0
BITMAP
80
40
00
E0
40
40
40
40
40
40
40
E0
ENDCHAR
STARTCHAR Iacute
ENCODING 205
SWIDTH 500 0
DWIDTH 8 0
SWIDTH1 1000 0
BBX 3 12 2 0
BITMAP
20
40
00
E0
40
40
40
40
40
40
40
E0
ENDCHAR
STARTCHAR Icircumflex
ENCODING 206
SWIDTH 500 0
DWIDTH 8 0
SWIDTH1 1000 0
BBX 3 12 2 0
BITMAP
40
A0
00
E0
40
40
40
40
40
40
40
E0
ENDCHAR
STARTCHAR Idieresis
ENCODING 207
SWIDTH 500 0
DWIDTH 8 0
SWIDTH1 1000 0
BBX 3 11 2 0
BITMAP
A0
00
E0
40
40
40
40
40
40
40
E0
ENDCHAR
STARTCHAR Eth
ENCODING 208
SWIDTH 500 0
DWIDTH 8 0
SWIDTH1 1000 0
BBX 6 11 1 0
BITMAP
70
48
44
44
44
F4
44
44
44
48
70
ENDCHAR
STARTCHAR Ntilde
ENCODING 209
SWIDTH 500 0
DWIDTH 8 0
SWIDTH1 1000 0
BBX 5 12 1 0
BITMAP
68
90
00
88
C8
C8
A8
A8
98
98
98
88
ENDCHAR
STARTCHAR Ograve
ENCODING 210
SWIDTH 500 0
DWIDTH 8 0
SWIDTH1 1000 0
BBX 6 12 1 0
BITMAP
40
20
00
30
48
84
84
84
84
84
48
30
ENDCHAR
STARTCHAR Oacute
ENCODING 211
SWIDTH 500 0
DWIDTH 8 0
SWIDTH1 1000 0
BBX 6 12 1 0
BITMAP
10
20
00
30
48
84
84
84
84
84
48
30
ENDCHAR
STARTCHAR Ocircumflex
ENCODING 212
SWIDTH 500 0
DWIDTH 8 0
SWIDTH1 1000 0
BBX 6 12 1 0
BITMAP
20
50
00
30
48
84
84
84
84
84
48
30
ENDCHAR
STARTCHAR Otilde
ENCODING 213
SWIDTH 500 0
DWIDTH 8 0
SWIDTH1 1000 0
BBX 6 12 1 0
BITMAP
68
90
00
30
48
84
84
84
84
84
48
30
ENDCHAR
STARTCHAR Odieresis
ENCODING 214
SWIDTH 500 0
DWIDTH 8 0
SWIDTH1 1000 0
BBX 6 11 1 0
BITMAP
50
00
30
48
84
84
84
84
84
48
30
ENDCHAR
STARTCHAR multiply
ENCODING 215
SWIDTH 1000 0
SWIDTH1 1000 0
BBX 9 9 3 1
BITMAP
8080
4100
2200
1400
0800
1400
2200
4100
8080
ENDCHAR
STARTCHAR Oslash
ENCODING 216
SWIDTH 500 0
DWIDTH 8 0
SWIDTH1 1000 0
BBX 6 11 1 0
BITMAP
34
48
8C
94
94
A4
A4
A4
C4
48
B0
ENDCHAR
STARTCHAR Ugrave
ENCODING 217
SWIDTH 500 0
DWIDTH 8 0
SWIDTH1 1000 0
BBX 5 12 1 0
BITMAP
40
20
00
88
88
88
88
88
88
88
88
70
ENDCHAR
STARTCHAR Uacute
ENCODING 218
SWIDTH 500 0
DWIDTH 8 0
SWIDTH1 1000 0
BBX 5 12 1 0
BITMAP
10
20
00
88
88
88
88
88
88
88
88
70
ENDCHAR
STARTCHAR Ucircumflex
ENCODING 219
SWIDTH 500 0
DWIDTH 8 0
SWIDTH1 1000 0
BBX 5 12 1 0
BITMAP
20
50
00
88
88
88
88
88
88
88
88
70
ENDCHAR
STARTCHAR Udieresis
ENCODING 220
SWIDTH 500 0
DWIDTH 8 0
SWIDTH1 1000 0
BBX 5 11 1 0
BITMAP
50
00
88
88
88
88
88
88
88
88
70
ENDCHAR
STARTCHAR Yacute
ENCODING 221
SWIDTH 500 0
DWIDTH 8 0
SWIDTH1 1000 0
BBX 5 12 1 0
BITMAP
10
20
00
88
88
88
50
50
20
20
20
20
ENDCHAR
STARTCHAR Thorn
ENCODING 222
SWIDTH 500 0
DWIDTH 8 0
SWIDTH1 1000 0
BBX 5 11 2 0
BITMAP
80
80
80
E0
90
88
88
90
E0
80
80
ENDCHAR
STARTCHAR germandbls
ENCODING 223
SWIDTH 500 0
DWIDTH 8 0
SWIDTH1 1000 0
BBX 5 11 2 0
BITMAP
60
90
90
90
A0
90
88
88
88
A8
90
ENDCHAR
STARTCHAR agrave
ENCODING 224
SWIDTH 500 0
DWIDTH 8 0
SWIDTH1 1000 0
BBX 6 11 1 0
BITMAP
20
10
00
00
70
88
08
78
88
88
74
ENDCHAR
STARTCHAR aacute
ENCODING 225
SWIDTH 500 0
DWIDTH 8 0
SWIDTH1 1000 0
BBX 6 11 1 0
BITMAP
10
20
00
00
70
88
08
78
88
88
74
ENDCHAR
STARTCHAR acircumflex
ENCODING 226
SWIDTH 500 0
DWIDTH 8 0
SWIDTH1 1000 0
BBX 6 10 1 0
BITMAP
20
50
00
70
88
08
78
88
88
74
ENDCHAR
STARTCHAR atilde
ENCODING 227
SWIDTH 500 0
DWIDTH 8 0
SWIDTH1 1000 0
BBX 6 10 1 0
BITMAP
68
90
00
70
88
08
78
88
88
74
ENDCHAR
STARTCHAR adieresis
ENCODING 228
SWIDTH 500 0
DWIDTH 8 0
SWIDTH1 1000 0
BBX 6 9 1 0
BITMAP
50
00
70
88
08
78
88
88
74
ENDCHAR
STARTCHAR aring
ENCODING 229
SWIDTH 500 0
DWIDTH 8 0
SWIDTH1 1000 0
BBX 6 10 1 0
BITMAP
30
48
48
70
88
08
78
88
88
74
ENDCHAR
STARTCHAR ae
ENCODING 230
SWIDTH 500 0
DWIDTH 8 0
SWIDTH1 1000 0
BBX 6 7 1 0
BITMAP
68
94
14
7C
90
94
68
ENDCHAR
STARTCHAR ccedilla
ENCODING 231
SWIDTH 500 0
DWIDTH 8 0
SWIDTH1 1000 0
BBX 6 10 1 -2
BITMAP
38
44
80
80
80
44
38
30
10
20
ENDCHAR
STARTCHAR egrave
ENCODING 232
SWIDTH 500 0
DWIDTH 8 0
SWIDTH1 1000 0
BBX 5 10 1 0
BITMAP
40
20
00
70
88
88
F8
80
88
70
ENDCHAR
STARTCHAR eacute
ENCODING 233
SWIDTH 500 0
DWIDTH 8 0
SWIDTH1 1000 0
BBX 5 10 1 0
BITMAP
10
20
00
70
88
88
F8
80
88
70
ENDCHAR
STARTCHAR ecircumflex
ENCODING 234
SWIDTH 500 0
DWIDTH 8 0
SWIDTH1 1000 0
BBX 5 10 1 0
BITMAP
20
50
00
70
88
88
F8
80
88
70
ENDCHAR
STARTCHAR edieresis
ENCODING 235
SWIDTH 500 0
DWIDTH 8 0
SWIDTH1 1000 0
BBX 5 9 1 0
BITMAP
50
00
70
88
88
F8
80
88
70
ENDCHAR
STARTCHAR igrave
ENCODING 236
SWIDTH 500 0
DWIDTH 8 0
SWIDTH1 1000 0
BBX 2 10 2 0
BITMAP
80
40
00
40
40
40
40
40
40
40
ENDCHAR
STARTCHAR iacute
ENCODING 237
SWIDTH 500 0
DWIDTH 8 0
SWIDTH1 1000 0
BBX 2 10 3 0
BITMAP
40
80
00
80
80
80
80
80
80
80
ENDCHAR
STARTCHAR icircumflex
ENCODING 238
SWIDTH 500 0
DWIDTH 8 0
SWIDTH1 1000 0
BBX 3 10 2 0
BITMAP
40
A0
00
40
40
40
40
40
40
40
ENDCHAR
STARTCHAR idieresis
ENCODING 239
SWIDTH 500 0
DWIDTH 8 0
SWIDTH1 1000 0
BBX 3 9 2 0
BITMAP
A0
00
40
40
40
40
40
40
40
ENDCHAR
STARTCHAR eth
ENCODING 240
SWIDTH 500 0
DWIDTH 8 0
SWIDTH1 1000 0
BBX 6 11 1 0
BITMAP
6C
10
68
08
34
4C
84
84
84
48
30
ENDCHAR
STARTCHAR ntilde
ENCODING 241
SWIDTH 500 0
DWIDTH 8 0
SWIDTH1 1000 0
BBX 5 10 1 0
BITMAP
68
90
00
B0
C8
88
88
88
88
88
ENDCHAR
STARTCHAR ograve
ENCODING 242
SWIDTH 500 0
DWIDTH 8 0
SWIDTH1 1000 0
BBX 5 10 1 0
BITMAP
40
20
00
70
88
88
88
88
88
70
ENDCHAR
STARTCHAR oacute
ENCODING 243
SWIDTH 500 0
DWIDTH 8 0
SWIDTH1 1000 0
BBX 5 10 1 0
BITMAP
10
20
00
70
88
88
88
88
88
70
ENDCHAR
STARTCHAR ocircumflex
ENCODING 244
SWIDTH 500 0
DWIDTH 8 0
SWIDTH1 1000 0
BBX 5 10 1 0
BITMAP
20
50
00
70
88
88
88
88
88
70
ENDCHAR
STARTCHAR otilde
ENCODING 245
SWIDTH 500 0
DWIDTH 8 0
SWIDTH1 1000 0
BBX 5 10 1 0
BITMAP
68
90
00
70
88
88
88
88
88
70
ENDCHAR
STARTCHAR odieresis
ENCODING 246
SWIDTH 500 0
DWIDTH 8 0
SWIDTH1 1000 0
BBX 5 9 1 0
BITMAP
50
00
70
88
88
88
88
88
70
ENDCHAR
STARTCHAR divide
ENCODING 247
SWIDTH 1000 0
SWIDTH1 1000 0
BBX 10 9 2 1
BITMAP
0C00
0C00
0000
0000
FFC0
0000
0000
0C00
0C00
ENDCHAR
STARTCHAR oslash
ENCODING 248
SWIDTH 500 0
DWIDTH 8 0
SWIDTH1 1000 0
BBX 5 9 1 -1
BITMAP
08
70
98
A8
A8
A8
C8
70
80
ENDCHAR
STARTCHAR ugrave
ENCODING 249
SWIDTH 500 0
DWIDTH 8 0
SWIDTH1 1000 0
BBX 5 10 1 0
BITMAP
40
20
00
88
88
88
88
88
98
68
ENDCHAR
STARTCHAR uacute
ENCODING 250
SWIDTH 500 0
DWIDTH 8 0
SWIDTH1 1000 0
BBX 5 10 1 0
BITMAP
10
20
00
88
88
88
88
88
98
68
ENDCHAR
STARTCHAR ucircumflex
ENCODING 251
SWIDTH 500 0
DWIDTH 8 0
SWIDTH1 1000 0
BBX 5 10 1 0
BITMAP
20
50
00
88
88
88
88
88
98
68
ENDCHAR
STARTCHAR udieresis
ENCODING 252
SWIDTH 500 0
DWIDTH 8 0
SWIDTH1 1000 0
BBX 5 9 1 0
BITMAP
50
00
88
88
88
88
88
98
68
ENDCHAR
STARTCHAR yacute
ENCODING 253
SWIDTH 500 0
DWIDTH 8 0
SWIDTH1 1000 0
BBX 5 11 1 -1
BITMAP
10
20
00
88
88
50
50
20
20
40
80
ENDCHAR
STARTCHAR thorn
ENCODING 254
SWIDTH 500 0
DWIDTH 8 0
SWIDTH1 1000 0
BBX 4 12 2 -1
BITMAP
80
80
80
E0
90
90
90
90
E0
80
80
80
ENDCHAR
STARTCHAR ydieresis
ENCODING 255
SWIDTH 500 0
DWIDTH 8 0
SWIDTH1 1000 0
BBX 5 10 1 -1
BITMAP
50
00
88
88
50
50
20
20
40
80
ENDCHAR
STARTCHAR amacron
ENCODING 257
SWIDTH 500 0
DWIDTH 8 0
SWIDTH1 1000 0
BBX 6 9 1 0
BITMAP
70
00
70
88
08
78
88
88
74
ENDCHAR
STARTCHAR emacron
ENCODING 275
SWIDTH 500 0
DWIDTH 8 0
SWIDTH1 1000 0
BBX 5 9 1 0
BITMAP
70
00
70
88
88
F8
80
88
70
ENDCHAR
STARTCHAR ecaron
ENCODING 283
SWIDTH 500 0
DWIDTH 8 0
SWIDTH1 1000 0
BBX 5 10 1 0
BITMAP
50
20
00
70
88
88
F8
80
88
70
ENDCHAR
STARTCHAR imacron
ENCODING 299
SWIDTH 500 0
DWIDTH 8 0
SWIDTH1 1000 0
BBX 3 9 2 0
BITMAP
E0
00
40
40
40
40
40
40
40
ENDCHAR
STARTCHAR nacute
ENCODING 324
SWIDTH 500 0
DWIDTH 8 0
SWIDTH1 1000 0
BBX 5 10 1 0
BITMAP
20
40
00
B0
C8
88
88
88
88
88
ENDCHAR
STARTCHAR ncaron
ENCODING 328
SWIDTH 500 0
DWIDTH 8 0
SWIDTH1 1000 0
BBX 5 10 1 0
BITMAP
50
20
00
B0
C8
88
88
88
88
88
ENDCHAR
STARTCHAR omacron
ENCODING 333
SWIDTH 500 0
DWIDTH 8 0
SWIDTH1 1000 0
BBX 5 9 1 0
BITMAP
70
00
70
88
88
88
88
88
70
ENDCHAR
STARTCHAR OE
ENCODING 338
SWIDTH 500 0
DWIDTH 8 0
SWIDTH1 1000 0
BBX 6 11 1 0
BITMAP
7C
90
90
90
90
9C
90
90
90
90
7C
ENDCHAR
STARTCHAR oe
ENCODING 339
SWIDTH 500 0
DWIDTH 8 0
SWIDTH1 1000 0
BBX 6 7 1 0
BITMAP
68
94
94
9C
90
94
68
ENDCHAR
STARTCHAR Scaron
ENCODING 352
SWIDTH 500 0
DWIDTH 8 0
SWIDTH1 1000 0
BBX 5 12 1 0
BITMAP
50
20
00
70
88
88
40
20
98
88
88
70
ENDCHAR
STARTCHAR scaron
ENCODING 353
SWIDTH 500 0
DWIDTH 8 0
SWIDTH1 1000 0
BBX 5 10 1 0
BITMAP
50
20
00
70
88
80
70
08
88
70
ENDCHAR
STARTCHAR umacron
ENCODING 363
SWIDTH 500 0
DWIDTH 8 0
SWIDTH1 1000 0
BBX 5 9 1 0
BITMAP
70
00
88
88
88
88
88
98
68
ENDCHAR
STARTCHAR Ydieresis
ENCODING 376
SWIDTH 500 0
DWIDTH 8 0
SWIDTH1 1000 0
BBX 5 11 1 0
BITMAP
50
00
88
88
50
50
20
20
20
20
20
ENDCHAR
STARTCHAR florin
ENCODING 402
SWIDTH 500 0
DWIDTH 8 0
SWIDTH1 1000 0
BBX 6 12 1 -1
BITMAP
08
14
10
10
78
10
10
20
20
20
A0
40
ENDCHAR
STARTCHAR uni01CE
ENCODING 462
SWIDTH 500 0
DWIDTH 8 0
SWIDTH1 1000 0
BBX 6 11 1 0
BITMAP
88
50
20
00
70
88
08
78
88
88
74
ENDCHAR
STARTCHAR uni01D0
ENCODING 464
SWIDTH 500 0
DWIDTH 8 0
SWIDTH1 1000 0
BBX 5 11 2 0
BITMAP
88
50
20
00
20
20
20
20
20
20
20
ENDCHAR
STARTCHAR uni01D2
ENCODING 466
SWIDTH 500 0
DWIDTH 8 0
SWIDTH1 1000 0
BBX 5 11 2 0
BITMAP
88
50
20
00
70
88
88
88
88
88
70
ENDCHAR
STARTCHAR uni01D4
ENCODING 468
SWIDTH 500 0
DWIDTH 8 0
SWIDTH1 1000 0
BBX 5 11 2 0
BITMAP
88
50
20
00
88
88
88
88
88
98
68
ENDCHAR
STARTCHAR uni01D6
ENCODING 470
SWIDTH 500 0
DWIDTH 8 0
SWIDTH1 1000 0
BBX 5 10 2 0
BITMAP
70
00
88
00
88
88
88
88
98
68
ENDCHAR
STARTCHAR uni01D8
ENCODING 472
SWIDTH 500 0
DWIDTH 8 0
SWIDTH1 1000 0
BBX 5 11 2 0
BITMAP
10
20
00
88
00
88
88
88
88
98
68
ENDCHAR
STARTCHAR uni01DA
ENCODING 474
SWIDTH 500 0
DWIDTH 8 0
SWIDTH1 1000 0
BBX 5 11 2 0
BITMAP
50
20
00
88
00
88
88
88
88
98
68
ENDCHAR
STARTCHAR uni01DC
ENCODING 476
SWIDTH 500 0
DWIDTH 8 0
SWIDTH1 1000 0
BBX 5 11 2 0
BITMAP
40
20
00
88
00
88
88
88
88
98
68
ENDCHAR
STARTCHAR uni01F9
ENCODING 505
SWIDTH 500 0
DWIDTH 8 0
SWIDTH1 1000 0
BBX 6 11 1 0
BITMAP
20
10
08
00
B8
C4
84
84
84
84
84
ENDCHAR
STARTCHAR uni0251
ENCODING 593
SWIDTH 500 0
DWIDTH 8 0
SWIDTH1 1000 0
BBX 6 7 1 0
BITMAP
70
88
38
48
88
88
7C
ENDCHAR
STARTCHAR uni0261
ENCODING 609
SWIDTH 500 0
DWIDTH 8 0
SWIDTH1 1000 0
BBX 6 9 1 -2
BITMAP
7C
88
88
70
80
78
84
84
78
ENDCHAR
STARTCHAR circumflex
ENCODING 710
SWIDTH 500 0
DWIDTH 8 0
SWIDTH1 1000 0
BBX 7 4 0 8
BITMAP
10
28
44
82
ENDCHAR
STARTCHAR caron
ENCODING 711
SWIDTH 1000 0
SWIDTH1 1000 0
BBX 7 4 4 8
BITMAP
82
44
28
10
ENDCHAR
STARTCHAR uni02C9
ENCODING 713
SWIDTH 1000 0
SWIDTH1 1000 0
BBX 7 1 4 9
BITMAP
FE
ENDCHAR
STARTCHAR uni02CA
ENCODING 714
SWIDTH 1000 0
SWIDTH1 1000 0
BBX 4 5 3 7
BITMAP
20
30
60
40
80
ENDCHAR
STARTCHAR uni02CB
ENCODING 715
SWIDTH 1000 0
SWIDTH1 1000 0
BBX 4 5 8 7
BITMAP
40
C0
60
20
10
ENDCHAR
STARTCHAR dotaccent
ENCODING 729
SWIDTH 1000 0
SWIDTH1 1000 0
BBX 2 2 7 6
BITMAP
C0
C0
ENDCHAR
STARTCHAR tilde
ENCODING 732
SWIDTH 500 0
DWIDTH 8 0
SWIDTH1 1000 0
BBX 6 2 1 9
BITMAP
64
98
ENDCHAR
STARTCHAR Alpha
ENCODING 913
SWIDTH 1000 0
SWIDTH1 1000 0
BBX 7 10 4 0
BITMAP
10
10
28
28
44
44
7C
82
82
82
ENDCHAR
STARTCHAR Beta
ENCODING 914
SWIDTH 1000 0
SWIDTH1 1000 0
BBX 8 10 4 0
BITMAP
F8
84
82
84
FC
82
81
81
82
FC
ENDCHAR
STARTCHAR Gamma
ENCODING 915
SWIDTH 1000 0
SWIDTH1 1000 0
BBX 7 10 4 0
BITMAP
FE
80
80
80
80
80
80
80
80
80
ENDCHAR
STARTCHAR uni0394
ENCODING 916
SWIDTH 1000 0
SWIDTH1 1000 0
BBX 7 10 4 0
BITMAP
10
10
28
28
44
44
44
82
82
FE
ENDCHAR
STARTCHAR Epsilon
ENCODING 917
SWIDTH 1000 0
SWIDTH1 1000 0
BBX 7 10 4 0
BITMAP
FE
80
80
80
FC
80
80
80
80
FE
ENDCHAR
STARTCHAR Zeta
ENCODING 918
SWIDTH 1000 0
SWIDTH1 1000 0
BBX 7 10 4 0
BITMAP
FE
02
04
08
10
10
20
40
80
FE
ENDCHAR
STARTCHAR Eta
ENCODING 919
SWIDTH 1000 0
SWIDTH1 1000 0
BBX 9 10 3 0
BITMAP
8080
8080
8080
8080
FF80
8080
8080
8080
8080
8080
ENDCHAR
STARTCHAR Theta
ENCODING 920
SWIDTH 1000 0
SWIDTH1 1000 0
BBX 9 10 3 0
BITMAP
1C00
2200
4100
8080
BE80
8080
8080
4100
2200
1C00
ENDCHAR
STARTCHAR Iota
ENCODING 921
SWIDTH 1000 0
SWIDTH1 1000 0
BBX 1 10 7 0
BITMAP
80
80
80
80
80
80
80
80
80
80
ENDCHAR
STARTCHAR Kappa
ENCODING 922
SWIDTH 1000 0
SWIDTH1 1000 0
BBX 9 10 3 0
BITMAP
8100
8200
8400
8800
9000
A800
C400
8200
8100
8080
ENDCHAR
STARTCHAR Lambda
ENCODING 923
SWIDTH 1000 0
SWIDTH1 1000 0
BBX 7 10 4 0
BITMAP
10
10
28
28
44
44
44
82
82
82
ENDCHAR
STARTCHAR Mu
ENCODING 924
SWIDTH 1000 0
SWIDTH1 1000 0
BBX 10 10 2 0
BITMAP
8040
8040
C0C0
C0C0
A140
A140
9240
9240
8C40
8C40
ENDCHAR
STARTCHAR Nu
ENCODING 925
SWIDTH 1000 0
SWIDTH1 1000 0
BBX 9 10 3 0
BITMAP
8080
C080
A080
9080
8880
8880
8480
8280
8180
8080
ENDCHAR
STARTCHAR Xi
ENCODING 926
SWIDTH 1000 0
SWIDTH1 1000 0
BBX 9 10 2 0
BITMAP
FF80
0000
0000
0000
7F00
0000
0000
0000
0000
FF80
ENDCHAR
STARTCHAR Omicron
ENCODING 927
SWIDTH 1000 0
SWIDTH1 1000 0
BBX 9 10 3 0
BITMAP
1C00
2200
4100
8080
8080
8080
8080
4100
2200
1C00
ENDCHAR
STARTCHAR Pi
ENCODING 928
SWIDTH 1000 0
SWIDTH1 1000 0
BBX 7 10 4 0
BITMAP
FE
82
82
82
82
82
82
82
82
82
ENDCHAR
STARTCHAR Rho
ENCODING 929
SWIDTH 1000 0
SWIDTH1 1000 0
BBX 7 10 4 0
BITMAP
F8
84
82
82
84
F8
80
80
80
80
ENDCHAR
STARTCHAR Sigma
ENCODING 931
SWIDTH 1000 0
SWIDTH1 1000 0
BBX 8 10 3 0
BITMAP
FF
40
20
10
08
08
10
20
40
FF
ENDCHAR
STARTCHAR Tau
ENCODING 932
SWIDTH 1000 0
SWIDTH1 1000 0
BBX 7 10 4 0
BITMAP
FE
10
10
10
10
10
10
10
10
10
ENDCHAR
STARTCHAR Upsilon
ENCODING 933
SWIDTH 1000 0
SWIDTH1 1000 0
BBX 7 10 4 0
BITMAP
82
82
44
44
28
10
10
10
10
10
ENDCHAR
STARTCHAR Phi
ENCODING 934
SWIDTH 1000 0
SWIDTH1 1000 0
BBX 9 10 3 0
BITMAP
0800
0800
3E00
4900
8880
8880
4900
3E00
0800
0800
ENDCHAR
STARTCHAR Chi
ENCODING 935
SWIDTH 1000 0
SWIDTH1 1000 0
BBX 7 10 4 0
BITMAP
82
44
44
28
10
28
28
44
82
82
ENDCHAR
STARTCHAR Psi
ENCODING 936
SWIDTH 1000 0
SWIDTH1 1000 0
BBX 9 10 3 0
BITMAP
8880
4900
4900
4900
4900
2A00
1C00
0800
0800
0800
ENDCHAR
STARTCHAR uni03A9
ENCODING 937
SWIDTH 1000 0
SWIDTH1 1000 0
BBX 8 10 3 0
BITMAP
3C
42
81
81
81
81
42
A5
A5
E7
ENDCHAR
STARTCHAR alpha
ENCODING 945
SWIDTH 1000 0
SWIDTH1 1000 0
BBX 9 8 3 0
BITMAP
3200
4A00
8400
8400
8400
8400
4A00
3180
ENDCHAR
STARTCHAR beta
ENCODING 946
SWIDTH 1000 0
SWIDTH1 1000 0
BBX 6 12 4 -2
BITMAP
30
48
84
88
B0
88
84
84
C8
B0
80
80
ENDCHAR
STARTCHAR gamma
ENCODING 947
SWIDTH 1000 0
SWIDTH1 1000 0
BBX 5 10 5 -2
BITMAP
88
88
88
50
50
50
20
20
50
20
ENDCHAR
STARTCHAR delta
ENCODING 948
SWIDTH 1000 0
SWIDTH1 1000 0
BBX 7 10 4 0
BITMAP
18
24
10
38
44
82
82
82
44
38
ENDCHAR
STARTCHAR epsilon
ENCODING 949
SWIDTH 1000 0
SWIDTH1 1000 0
BBX 6 8 4 0
BITMAP
78
84
80
70
80
80
84
78
ENDCHAR
STARTCHAR zeta
ENCODING 950
SWIDTH 1000 0
SWIDTH1 1000 0
BBX 5 12 5 -2
BITMAP
F0
10
20
40
80
80
80
40
30
08
08
70
ENDCHAR
STARTCHAR eta
ENCODING 951
SWIDTH 1000 0
SWIDTH1 1000 0
BBX 8 10 4 -2
BITMAP
B0
C8
84
84
84
84
84
84
05
02
ENDCHAR
STARTCHAR theta
ENCODING 952
SWIDTH 1000 0
SWIDTH1 1000 0
BBX 9 10 3 0
BITMAP
1C00
2200
4100
8080
FF80
8080
8080
4100
2200
1C00
ENDCHAR
STARTCHAR iota
ENCODING 953
SWIDTH 1000 0
SWIDTH1 1000 0
BBX 4 8 6 0
BITMAP
80
80
80
80
80
90
90
60
ENDCHAR
STARTCHAR kappa
ENCODING 954
SWIDTH 1000 0
SWIDTH1 1000 0
BBX 7 8 4 0
BITMAP
84
88
90
A0
D0
88
84
82
ENDCHAR
STARTCHAR lambda
ENCODING 955
SWIDTH 1000 0
SWIDTH1 1000 0
BBX 9 10 3 0
BITMAP
C000
2000
2000
1000
1000
2800
2800
4400
4480
8300
ENDCHAR
STARTCHAR uni03BC
ENCODING 956
SWIDTH 1000 0
SWIDTH1 1000 0
BBX 6 10 4 -2
BITMAP
84
84
84
84
84
84
CC
B4
80
80
ENDCHAR
STARTCHAR nu
ENCODING 957
SWIDTH 1000 0
SWIDTH1 1000 0
BBX 6 8 4 0
BITMAP
C4
44
44
28
28
28
10
10
ENDCHAR
STARTCHAR xi
ENCODING 958
SWIDTH 1000 0
SWIDTH1 1000 0
BBX 5 12 4 -2
BITMAP
F0
10
20
60
10
10
20
40
40
30
08
30
ENDCHAR
STARTCHAR omicron
ENCODING 959
SWIDTH 1000 0
SWIDTH1 1000 0
BBX 7 8 4 0
BITMAP
38
44
82
82
82
82
44
38
ENDCHAR
STARTCHAR pi
ENCODING 960
SWIDTH 1000 0
SWIDTH1 1000 0
BBX 8 7 4 0
BITMAP
FE
28
28
28
28
29
C6
ENDCHAR
STARTCHAR rho
ENCODING 961
SWIDTH 1000 0
SWIDTH1 1000 0
BBX 7 10 4 -2
BITMAP
38
44
82
82
82
82
C4
B8
80
80
ENDCHAR
STARTCHAR sigma
ENCODING 963
SWIDTH 1000 0
SWIDTH1 1000 0
BBX 8 8 4 0
BITMAP
3F
44
82
82
82
82
44
38
ENDCHAR
STARTCHAR tau
ENCODING 964
SWIDTH 1000 0
SWIDTH1 1000 0
BBX 7 8 3 0
BITMAP
FE
10
10
10
10
12
12
0C
ENDCHAR
STARTCHAR upsilon
ENCODING 965
SWIDTH 1000 0
SWIDTH1 1000 0
BBX 6 8 4 0
BITMAP
88
84
84
84
84
84
88
70
ENDCHAR
STARTCHAR phi
ENCODING 966
SWIDTH 1000 0
SWIDTH1 1000 0
BBX 7 12 4 -2
BITMAP
10
10
38
54
92
92
92
92
54
38
10
10
ENDCHAR
STARTCHAR chi
ENCODING 967
SWIDTH 1000 0
SWIDTH1 1000 0
BBX 8 9 3 -2
BITMAP
61
12
14
08
08
14
24
44
83
ENDCHAR
STARTCHAR psi
ENCODING 968
SWIDTH 1000 0
SWIDTH1 1000 0
BBX 9 10 3 -2
BITMAP
8880
4900
4900
4900
4900
4900
2A00
1C00
0800
0800
ENDCHAR
STARTCHAR omega
ENCODING 969
SWIDTH 1000 0
SWIDTH1 1000 0
BBX 9 8 3 0
BITMAP
2200
4100
8080
8880
8880
8880
4900
3600
ENDCHAR
STARTCHAR uni0401
ENCODING 1025
SWIDTH 1000 0
SWIDTH1 1000 0
BBX 7 12 4 0
BITMAP
28
00
FE
80
80
80
FC
80
80
80
80
FE
ENDCHAR
STARTCHAR uni0410
ENCODING 1040
SWIDTH 1000 0
SWIDTH1 1000 0
BBX 7 10 4 0
BITMAP
10
10
28
28
44
44
7C
82
82
82
ENDCHAR
STARTCHAR uni0411
ENCODING 1041
SWIDTH 1000 0
SWIDTH1 1000 0
BBX 8 10 3 0
BITMAP
FE
80
80
80
FC
82
81
81
82
FC
ENDCHAR
STARTCHAR uni0412
ENCODING 1042
SWIDTH 1000 0
SWIDTH1 1000 0
BBX 8 10 3 0
BITMAP
F8
84
82
84
FC
82
81
81
82
FC
ENDCHAR
STARTCHAR uni0413
ENCODING 1043
SWIDTH 1000 0
SWIDTH1 1000 0
BBX 7 10 4 0
BITMAP
FE
80
80
80
80
80
80
80
80
80
ENDCHAR
STARTCHAR uni0414
ENCODING 1044
SWIDTH 1000 0
SWIDTH1 1000 0
BBX 9 12 2 -2
BITMAP
1F00
1100
1100
1100
1100
2100
2100
2100
4100
7F00
8080
8080
ENDCHAR
STARTCHAR uni0415
ENCODING 1045
SWIDTH 1000 0
SWIDTH1 1000 0
BBX 7 10 4 0
BITMAP
FE
80
80
80
FC
80
80
80
80
FE
ENDCHAR
STARTCHAR uni0416
ENCODING 1046
SWIDTH 1000 0
SWIDTH1 1000 0
BBX 11 10 2 0
BITMAP
C460
2480
1500
1500
1F00
1500
1500
1500
2480
C460
ENDCHAR
STARTCHAR uni0417
ENCODING 1047
SWIDTH 1000 0
SWIDTH1 1000 0
BBX 6 10 4 0
BITMAP
30
48
84
08
30
08
04
84
48
30
ENDCHAR
STARTCHAR uni0418
ENCODING 1048
SWIDTH 1000 0
SWIDTH1 1000 0
BBX 8 10 3 0
BITMAP
81
81
83
85
89
91
A1
C1
81
81
ENDCHAR
STARTCHAR uni0419
ENCODING 1049
SWIDTH 1000 0
SWIDTH1 1000 0
BBX 8 12 3 0
BITMAP
36
1C
81
81
83
85
89
91
A1
C1
81
81
ENDCHAR
STARTCHAR uni041A
ENCODING 1050
SWIDTH 1000 0
SWIDTH1 1000 0
BBX 9 10 3 0
BITMAP
8100
8200
8400
8800
9000
A800
C400
8200
8100
8080
ENDCHAR
STARTCHAR uni041B
ENCODING 1051
SWIDTH 1000 0
SWIDTH1 1000 0
BBX 7 10 3 0
BITMAP
3E
22
22
22
22
22
22
22
22
C2
ENDCHAR
STARTCHAR uni041C
ENCODING 1052
SWIDTH 1000 0
SWIDTH1 1000 0
BBX 10 10 2 0
BITMAP
8040
8040
C0C0
C0C0
A140
A140
9240
9240
8C40
8C40
ENDCHAR
STARTCHAR uni041D
ENCODING 1053
SWIDTH 1000 0
SWIDTH1 1000 0
BBX 9 10 3 0
BITMAP
8080
8080
8080
8080
FF80
8080
8080
8080
8080
8080
ENDCHAR
STARTCHAR uni041E
ENCODING 1054
SWIDTH 1000 0
SWIDTH1 1000 0
BBX 9 10 3 0
BITMAP
1C00
2200
4100
8080
8080
8080
8080
4100
2200
1C00
ENDCHAR
STARTCHAR uni041F
ENCODING 1055
SWIDTH 1000 0
SWIDTH1 1000 0
BBX 8 10 3 0
BITMAP
FF
81
81
81
81
81
81
81
81
81
ENDCHAR
STARTCHAR uni0420
ENCODING 1056
SWIDTH 1000 0
SWIDTH1 1000 0
BBX 7 10 4 0
BITMAP
F8
84
82
82
84
F8
80
80
80
80
ENDCHAR
STARTCHAR uni0421
ENCODING 1057
SWIDTH 1000 0
SWIDTH1 1000 0
BBX 9 10 3 0
BITMAP
1E00
2100
4080
8000
8000
8000
8000
4080
2100
1E00
ENDCHAR
STARTCHAR uni0422
ENCODING 1058
SWIDTH 1000 0
SWIDTH1 1000 0
BBX 7 10 4 0
BITMAP
FE
10
10
10
10
10
10
10
10
10
ENDCHAR
STARTCHAR uni0423
ENCODING 1059
SWIDTH 1000 0
SWIDTH1 1000 0
BBX 6 10 4 0
BITMAP
84
84
84
48
48
50
30
20
20
C0
ENDCHAR
STARTCHAR uni0424
ENCODING 1060
SWIDTH 1000 0
SWIDTH1 1000 0
BBX 9 11 3 -1
BITMAP
0800
0800
3E00
4900
8880
8880
8880
4900
3E00
0800
0800
ENDCHAR
STARTCHAR uni0425
ENCODING 1061
SWIDTH 1000 0
SWIDTH1 1000 0
BBX 7 10 4 0
BITMAP
82
44
44
28
10
28
28
44
82
82
ENDCHAR
STARTCHAR uni0426
ENCODING 1062
SWIDTH 1000 0
SWIDTH1 1000 0
BBX 9 12 3 -2
BITMAP
8100
8100
8100
8100
8100
8100
8100
8100
8100
FF00
0080
0080
ENDCHAR
STARTCHAR uni0427
ENCODING 1063
SWIDTH 1000 0
SWIDTH1 1000 0
BBX 6 10 4 0
BITMAP
84
84
84
84
84
84
4C
34
04
04
ENDCHAR
STARTCHAR uni0428
ENCODING 1064
SWIDTH 1000 0
SWIDTH1 1000 0
BBX 11 10 2 0
BITMAP
8420
8420
8420
8420
8420
8420
8420
8420
8420
FFE0
ENDCHAR
STARTCHAR uni0429
ENCODING 1065
SWIDTH 1000 0
SWIDTH1 1000 0
BBX 12 12 1 -2
BITMAP
8420
8420
8420
8420
8420
8420
8420
8420
8420
FFE0
0010
0010
ENDCHAR
STARTCHAR uni042A
ENCODING 1066
SWIDTH 1000 0
SWIDTH1 1000 0
BBX 10 10 2 0
BITMAP
F000
1000
1000
1000
1F00
1080
1040
1040
1080
1F00
ENDCHAR
STARTCHAR uni042B
ENCODING 1067
SWIDTH 1000 0
SWIDTH1 1000 0
BBX 9 10 3 0
BITMAP
8080
8080
8080
8080
F880
8480
8280
8280
8480
F880
ENDCHAR
STARTCHAR uni042C
ENCODING 1068
SWIDTH 1000 0
SWIDTH1 1000 0
BBX 7 10 4 0
BITMAP
80
80
80
80
F8
84
82
82
84
F8
ENDCHAR
STARTCHAR uni042D
ENCODING 1069
SWIDTH 1000 0
SWIDTH1 1000 0
BBX 9 10 2 0
BITMAP
3C00
4200
8100
0080
3F80
0080
0080
8100
4200
3C00
ENDCHAR
STARTCHAR uni042E
ENCODING 1070
SWIDTH 1000 0
SWIDTH1 1000 0
BBX 12 10 1 0
BITMAP
8380
8440
8820
9010
F010
9010
9010
8820
8440
8380
ENDCHAR
STARTCHAR uni042F
ENCODING 1071
SWIDTH 1000 0
SWIDTH1 1000 0
BBX 8 10 3 0
BITMAP
3F
41
81
81
41
3F
41
81
81
81
ENDCHAR
STARTCHAR uni0430
ENCODING 1072
SWIDTH 1000 0
SWIDTH1 1000 0
BBX 7 8 4 0
BITMAP
78
84
04
7C
84
84
84
7A
ENDCHAR
STARTCHAR uni0431
ENCODING 1073
SWIDTH 1000 0
SWIDTH1 1000 0
BBX 7 10 4 0
BITMAP
04
18
20
78
44
82
82
82
44
38
ENDCHAR
STARTCHAR uni0432
ENCODING 1074
SWIDTH 1000 0
SWIDTH1 1000 0
BBX 6 8 4 0
BITMAP
F8
84
84
F8
84
84
84
F8
ENDCHAR
STARTCHAR uni0433
ENCODING 1075
SWIDTH 1000 0
SWIDTH1 1000 0
BBX 6 8 4 0
BITMAP
FC
80
80
80
80
80
80
80
ENDCHAR
STARTCHAR uni0434
ENCODING 1076
SWIDTH 1000 0
SWIDTH1 1000 0
BBX 8 10 2 -2
BITMAP
1E
12
12
12
22
22
42
7E
81
81
ENDCHAR
STARTCHAR uni0435
ENCODING 1077
SWIDTH 1000 0
SWIDTH1 1000 0
BBX 6 8 4 0
BITMAP
30
48
84
FC
80
80
44
38
ENDCHAR
STARTCHAR uni0436
ENCODING 1078
SWIDTH 1000 0
SWIDTH1 1000 0
BBX 9 8 3 0
BITMAP
C980
2A00
2A00
3E00
2A00
2A00
2A00
C980
ENDCHAR
STARTCHAR uni0437
ENCODING 1079
SWIDTH 1000 0
SWIDTH1 1000 0
BBX 6 8 4 0
BITMAP
78
84
04
38
04
04
84
78
ENDCHAR
STARTCHAR uni0438
ENCODING 1080
SWIDTH 1000 0
SWIDTH1 1000 0
BBX 7 8 4 0
BITMAP
82
86
8A
92
A2
C2
82
82
ENDCHAR
STARTCHAR uni0439
ENCODING 1081
SWIDTH 1000 0
SWIDTH1 1000 0
BBX 7 10 4 0
BITMAP
6C
38
82
86
8A
92
A2
C2
82
82
ENDCHAR
STARTCHAR uni043A
ENCODING 1082
SWIDTH 1000 0
SWIDTH1 1000 0
BBX 7 8 4 0
BITMAP
84
88
90
A0
D0
88
84
82
ENDCHAR
STARTCHAR uni043B
ENCODING 1083
SWIDTH 1000 0
SWIDTH1 1000 0
BBX 7 8 3 0
BITMAP
3E
22
22
22
22
22
22
C2
ENDCHAR
STARTCHAR uni043C
ENCODING 1084
SWIDTH 1000 0
SWIDTH1 1000 0
BBX 8 8 3 0
BITMAP
81
C3
C3
A5
A5
99
99
81
ENDCHAR
STARTCHAR uni043D
ENCODING 1085
SWIDTH 1000 0
SWIDTH1 1000 0
BBX 7 8 4 0
BITMAP
82
82
82
FE
82
82
82
82
ENDCHAR
STARTCHAR uni043E
ENCODING 1086
SWIDTH 1000 0
SWIDTH1 1000 0
BBX 7 8 4 0
BITMAP
38
44
82
82
82
82
44
38
ENDCHAR
STARTCHAR uni043F
ENCODING 1087
SWIDTH 1000 0
SWIDTH1 1000 0
BBX 7 8 4 0
BITMAP
FE
82
82
82
82
82
82
82
ENDCHAR
STARTCHAR uni0440
ENCODING 1088
SWIDTH 1000 0
SWIDTH1 1000 0
BBX 7 10 4 -2
BITMAP
B8
C4
82
82
82
82
C4
B8
80
80
ENDCHAR
STARTCHAR uni0441
ENCODING 1089
SWIDTH 1000 0
SWIDTH1 1000 0
BBX 6 8 4 0
BITMAP
38
44
80
80
80
80
44
38
ENDCHAR
STARTCHAR uni0442
ENCODING 1090
SWIDTH 1000 0
SWIDTH1 1000 0
BBX 7 8 4 0
BITMAP
FE
10
10
10
10
10
10
10
ENDCHAR
STARTCHAR uni0443
ENCODING 1091
SWIDTH 1000 0
SWIDTH1 1000 0
BBX 6 10 4 -2
BITMAP
84
84
84
48
48
50
30
20
20
C0
ENDCHAR
STARTCHAR uni0444
ENCODING 1092
SWIDTH 1000 0
SWIDTH1 1000 0
BBX 9 12 3 -2
BITMAP
0800
0800
2A00
5D00
8880
8880
8880
8880
5D00
2A00
0800
0800
ENDCHAR
STARTCHAR uni0445
ENCODING 1093
SWIDTH 1000 0
SWIDTH1 1000 0
BBX 5 8 5 0
BITMAP
88
88
50
20
20
50
88
88
ENDCHAR
STARTCHAR uni0446
ENCODING 1094
SWIDTH 1000 0
SWIDTH1 1000 0
BBX 7 10 4 -2
BITMAP
84
84
84
84
84
84
84
FC
02
02
ENDCHAR
STARTCHAR uni0447
ENCODING 1095
SWIDTH 1000 0
SWIDTH1 1000 0
BBX 6 8 4 0
BITMAP
84
84
84
8C
74
04
04
04
ENDCHAR
STARTCHAR uni0448
ENCODING 1096
SWIDTH 1000 0
SWIDTH1 1000 0
BBX 9 8 3 0
BITMAP
8880
8880
8880
8880
8880
8880
8880
FF80
ENDCHAR
STARTCHAR uni0449
ENCODING 1097
SWIDTH 1000 0
SWIDTH1 1000 0
BBX 10 10 2 -2
BITMAP
8880
8880
8880
8880
8880
8880
8880
FF80
0040
0040
ENDCHAR
STARTCHAR uni044A
ENCODING 1098
SWIDTH 1000 0
SWIDTH1 1000 0
BBX 8 8 3 0
BITMAP
E0
20
20
3E
21
21
21
3E
ENDCHAR
STARTCHAR uni044B
ENCODING 1099
SWIDTH 1000 0
SWIDTH1 1000 0
BBX 8 8 3 0
BITMAP
81
81
81
F1
89
89
89
F1
ENDCHAR
STARTCHAR uni044C
ENCODING 1100
SWIDTH 1000 0
SWIDTH1 1000 0
BBX 5 8 5 0
BITMAP
80
80
80
F0
88
88
88
F0
ENDCHAR
STARTCHAR uni044D
ENCODING 1101
SWIDTH 1000 0
SWIDTH1 1000 0
BBX 6 8 4 0
BITMAP
70
88
04
7C
04
04
88
70
ENDCHAR
STARTCHAR uni044E
ENCODING 1102
SWIDTH 1000 0
SWIDTH1 1000 0
BBX 9 8 3 0
BITMAP
8E00
9100
A080
E080
A080
A080
9100
8E00
ENDCHAR
STARTCHAR uni044F
ENCODING 1103
SWIDTH 1000 0
SWIDTH1 1000 0
BBX 6 8 4 0
BITMAP
7C
84
84
84
7C
44
84
84
ENDCHAR
STARTCHAR uni0451
ENCODING 1105
SWIDTH 1000 0
SWIDTH1 1000 0
BBX 6 10 4 0
BITMAP
48
00
30
48
84
FC
80
80
44
38
ENDCHAR
STARTCHAR uni2010
ENCODING 8208
SWIDTH 1000 0
SWIDTH1 1000 0
BBX 5 1 5 5
BITMAP
F8
ENDCHAR
STARTCHAR endash
ENCODING 8211
SWIDTH 1000 0
SWIDTH1 1000 0
BBX 6 1 4 5
BITMAP
FC
ENDCHAR
STARTCHAR emdash
ENCODING 8212
SWIDTH 1000 0
SWIDTH1 1000 0
BBX 15 1 0 5
BITMAP
FFFE
ENDCHAR
STARTCHAR uni2015
ENCODING 8213
SWIDTH 1000 0
SWIDTH1 1000 0
BBX 12 1 1 5
BITMAP
FFF0
ENDCHAR
STARTCHAR uni2016
ENCODING 8214
SWIDTH 1000 0
SWIDTH1 1000 0
BBX 4 12 5 0
BITMAP
90
90
90
90
90
90
90
90
90
90
90
90
ENDCHAR
STARTCHAR quoteleft
ENCODING 8216
SWIDTH 1000 0
SWIDTH1 1000 0
BBX 2 4 10 8
BITMAP
40
80
C0
C0
ENDCHAR
STARTCHAR quoteright
ENCODING 8217
SWIDTH 1000 0
SWIDTH1 1000 0
BBX 2 4 2 8
BITMAP
C0
C0
40
80
ENDCHAR
STARTCHAR quotesinglbase
ENCODING 8218
SWIDTH 500 0
DWIDTH 8 0
SWIDTH1 1000 0
BBX 1 1 0 0
BITMAP
00
ENDCHAR
STARTCHAR quotedblleft
ENCODING 8220
SWIDTH 1000 0
SWIDTH1 1000 0
BBX 5 4 7 8
BITMAP
48
90
D8
D8
ENDCHAR
STARTCHAR quotedblright
ENCODING 8221
SWIDTH 1000 0
SWIDTH1 1000 0
BBX 5 4 2 8
BITMAP
D8
D8
48
90
ENDCHAR
STARTCHAR quotedblbase
ENCODING 8222
SWIDTH 500 0
DWIDTH 8 0
SWIDTH1 1000 0
BBX 1 1 0 0
BITMAP
00
ENDCHAR
STARTCHAR dagger
ENCODING 8224
SWIDTH 500 0
DWIDTH 8 0
SWIDTH1 1000 0
BBX 5 13 1 -3
BITMAP
20
20
20
F8
20
20
70
20
20
20
20
20
20
ENDCHAR
STARTCHAR daggerdbl
ENCODING 8225
SWIDTH 500 0
DWIDTH 8 0
SWIDTH1 1000 0
BBX 5 13 1 -3
BITMAP
20
20
20
F8
20
20
70
20
20
F8
20
20
20
ENDCHAR
STARTCHAR bullet
ENCODING 8226
SWIDTH 500 0
DWIDTH 8 0
SWIDTH1 1000 0
BBX 4 4 2 4
BITMAP
60
F0
F0
60
ENDCHAR
STARTCHAR twodotenleader
ENCODING 8229
SWIDTH 1000 0
SWIDTH1 1000 0
BBX 8 2 3 5
BITMAP
C3
C3
ENDCHAR
STARTCHAR ellipsis
ENCODING 8230
SWIDTH 1000 0
SWIDTH1 1000 0
BBX 12 2 1 5
BITMAP
C630
C630
ENDCHAR
STARTCHAR perthousand
ENCODING 8240
SWIDTH 1000 0
SWIDTH1 1000 0
BBX 14 12 0 0
BITMAP
6000
9040
9080
9100
9200
6400
0B18
14A4
24A4
44A4
84A4
0318
ENDCHAR
STARTCHAR minute
ENCODING 8242
SWIDTH 1000 0
SWIDTH1 1000 0
BBX 2 5 2 7
BITMAP
40
40
40
80
80
ENDCHAR
STARTCHAR second
ENCODING 8243
SWIDTH 1000 0
SWIDTH1 1000 0
BBX 5 5 2 7
BITMAP
48
48
48
90
90
ENDCHAR
STARTCHAR uni2035
ENCODING 8245
SWIDTH 1000 0
SWIDTH1 1000 0
BBX 2 4 6 8
BITMAP
80
80
40
40
ENDCHAR
STARTCHAR guilsinglleft
ENCODING 8249
SWIDTH 500 0
DWIDTH 8 0
SWIDTH1 1000 0
BBX 3 7 1 1
BITMAP
20
40
40
80
40
40
20
ENDCHAR
STARTCHAR guilsinglright
ENCODING 8250
SWIDTH 500 0
DWIDTH 8 0
SWIDTH1 1000 0
BBX 3 7 1 1
BITMAP
80
40
40
20
40
40
80
ENDCHAR
STARTCHAR uni203B
ENCODING 8251
SWIDTH 1000 0
SWIDTH1 1000 0
BBX 11 11 1 1
BITMAP
8620
4640
2080
1100
0A00
C460
CA60
1100
2080
4640
8620
ENDCHAR
STARTCHAR Euro
ENCODING 8364
SWIDTH 1000 0
SWIDTH1 1000 0
BBX 12 11 1 1
BITMAP
0FD0
1030
2010
2010
FFC0
2000
FF80
2000
2010
1020
0FC0
ENDCHAR
STARTCHAR uni2103
ENCODING 8451
SWIDTH 1000 0
SWIDTH1 1000 0
BBX 12 12 1 0
BITMAP
E000
A7D0
E830
1010
1010
1000
1000
1000
1010
0820
0440
0380
ENDCHAR
STARTCHAR uni2105
ENCODING 8453
SWIDTH 1000 0
SWIDTH1 1000 0
BBX 10 12 2 0
BITMAP
3100
4900
8200
8200
9400
6400
0980
0A40
1440
1440
2480
2300
ENDCHAR
STARTCHAR uni2109
ENCODING 8457
SWIDTH 1000 0
SWIDTH1 1000 0
BBX 11 11 1 1
BITMAP
EFE0
A420
E400
0400
0480
0780
0480
0400
0400
0400
0E00
ENDCHAR
STARTCHAR uni2116
ENCODING 8470
SWIDTH 1000 0
SWIDTH1 1000 0
BBX 13 10 0 1
BITMAP
4380
4100
6100
5130
4948
4548
4348
4130
4100
E178
ENDCHAR
STARTCHAR uni2121
ENCODING 8481
SWIDTH 1000 0
SWIDTH1 1000 0
BBX 10 5 2 7
BITMAP
ED00
4900
4D00
4900
4DC0
ENDCHAR
STARTCHAR trademark
ENCODING 8482
SWIDTH 500 0
DWIDTH 8 0
SWIDTH1 1000 0
BBX 8 6 0 6
BITMAP
FB
5B
5B
55
55
55
ENDCHAR
STARTCHAR uni2160
ENCODING 8544
SWIDTH 1000 0
SWIDTH1 1000 0
BBX 3 11 6 0
BITMAP
E0
40
40
40
40
40
40
40
40
40
E0
ENDCHAR
STARTCHAR uni2161
ENCODING 8545
SWIDTH 1000 0
SWIDTH1 1000 0
BBX 6 11 4 0
BITMAP
FC
48
48
48
48
48
48
48
48
48
FC
ENDCHAR
STARTCHAR uni2162
ENCODING 8546
SWIDTH 1000 0
SWIDTH1 1000 0
BBX 9 11 3 0
BITMAP
FF80
4900
4900
4900
4900
4900
4900
4900
4900
4900
FF80
ENDCHAR
STARTCHAR uni2163
ENCODING 8547
SWIDTH 1000 0
SWIDTH1 1000 0
BBX 11 11 2 0
BITMAP
F8E0
5040
5040
4880
4880
4880
4500
4500
4500
4200
E200
ENDCHAR
STARTCHAR uni2164
ENCODING 8548
SWIDTH 1000 0
SWIDTH1 1000 0
BBX 11 11 2 0
BITMAP
E0E0
4040
4040
2080
2080
1100
1100
0A00
0A00
0400
0400
ENDCHAR
STARTCHAR uni2165
ENCODING 8549
SWIDTH 1000 0
SWIDTH1 1000 0
BBX 11 11 2 0
BITMAP
E3E0
4140
4140
2240
2240
2240
1440
1440
1440
0840
08E0
ENDCHAR
STARTCHAR uni2166
ENCODING 8550
SWIDTH 1000 0
SWIDTH1 1000 0
BBX 13 11 1 0
BITMAP
E3F8
4150
4150
2250
2250
2250
1450
1450
1450
0850
08F8
ENDCHAR
STARTCHAR uni2167
ENCODING 8551
SWIDTH 1000 0
SWIDTH1 1000 0
BBX 13 11 1 0
BITMAP
EFF8
4550
4550
4550
2950
2950
2950
2950
1150
1150
13F8
ENDCHAR
STARTCHAR uni2168
ENCODING 8552
SWIDTH 1000 0
SWIDTH1 1000 0
BBX 11 11 2 0
BITMAP
F8E0
5040
4880
4880
4500
4200
4500
4880
4880
5040
F8E0
ENDCHAR
STARTCHAR uni2169
ENCODING 8553
SWIDTH 1000 0
SWIDTH1 1000 0
BBX 9 11 3 0
BITMAP
E380
4100
2200
2200
1400
0800
1400
2200
2200
4100
E380
ENDCHAR
STARTCHAR uni216A
ENCODING 8554
SWIDTH 1000 0
SWIDTH1 1000 0
BBX 11 11 2 1
BITMAP
EEE0
4440
4440
2840
2840
1040
2840
2840
4440
4440
EEE0
ENDCHAR
STARTCHAR uni216B
ENCODING 8555
SWIDTH 1000 0
SWIDTH1 1000 0
BBX 13 11 1 1
BITMAP
EEF8
4450
4450
2850
2850
1050
2850
2850
4450
4450
EEF8
ENDCHAR
STARTCHAR uni2170
ENCODING 8560
SWIDTH 1000 0
SWIDTH1 1000 0
BBX 3 11 6 0
BITMAP
40
40
00
C0
40
40
40
40
40
40
E0
ENDCHAR
STARTCHAR uni2171
ENCODING 8561
SWIDTH 1000 0
SWIDTH1 1000 0
BBX 7 11 4 0
BITMAP
44
44
00
CC
44
44
44
44
44
44
EE
ENDCHAR
STARTCHAR uni2172
ENCODING 8562
SWIDTH 1000 0
SWIDTH1 1000 0
BBX 9 11 3 0
BITMAP
4900
4900
0000
DB00
4900
4900
4900
4900
4900
4900
FF80
ENDCHAR
STARTCHAR uni2173
ENCODING 8563
SWIDTH 1000 0
SWIDTH1 1000 0
BBX 12 11 1 0
BITMAP
4000
4000
0000
DC70
4820
4440
4440
4280
4280
4100
E100
ENDCHAR
STARTCHAR uni2174
ENCODING 8564
SWIDTH 1000 0
SWIDTH1 1000 0
BBX 9 8 3 0
BITMAP
E380
4100
2200
2200
1400
1400
0800
0800
ENDCHAR
STARTCHAR uni2175
ENCODING 8565
SWIDTH 1000 0
SWIDTH1 1000 0
BBX 12 11 1 0
BITMAP
0020
0020
0000
E3E0
4120
2220
2220
1420
1420
0820
0870
ENDCHAR
STARTCHAR uni2176
ENCODING 8566
SWIDTH 1000 0
SWIDTH1 1000 0
BBX 13 11 1 0
BITMAP
0090
0090
0000
EFB0
4490
4490
2890
2890
2890
1090
11F8
ENDCHAR
STARTCHAR uni2177
ENCODING 8567
SWIDTH 1000 0
SWIDTH1 1000 0
BBX 13 11 1 0
BITMAP
0150
0150
0000
EFF0
4550
4550
2950
2950
2950
1150
13F8
ENDCHAR
STARTCHAR uni2178
ENCODING 8568
SWIDTH 1000 0
SWIDTH1 1000 0
BBX 11 11 2 0
BITMAP
4000
4000
0000
DCE0
4840
4480
4300
4300
4480
4840
FCE0
ENDCHAR
STARTCHAR uni2179
ENCODING 8569
SWIDTH 1000 0
SWIDTH1 1000 0
BBX 8 8 3 0
BITMAP
E7
42
24
18
18
24
42
E7
ENDCHAR
STARTCHAR arrowleft
ENCODING 8592
SWIDTH 1000 0
SWIDTH1 1000 0
BBX 13 5 1 3
BITMAP
2000
4000
FFF8
4000
2000
ENDCHAR
STARTCHAR arrowup
ENCODING 8593
SWIDTH 1000 0
SWIDTH1 1000 0
BBX 5 13 5 -1
BITMAP
20
70
A8
20
20
20
20
20
20
20
20
20
20
ENDCHAR
STARTCHAR arrowright
ENCODING 8594
SWIDTH 1000 0
SWIDTH1 1000 0
BBX 13 5 1 3
BITMAP
0020
0010
FFF8
0010
0020
ENDCHAR
STARTCHAR arrowdown
ENCODING 8595
SWIDTH 1000 0
SWIDTH1 1000 0
BBX 5 13 5 -1
BITMAP
20
20
20
20
20
20
20
20
20
20
A8
70
20
ENDCHAR
STARTCHAR uni2196
ENCODING 8598
SWIDTH 1000 0
SWIDTH1 1000 0
BBX 11 11 2 0
BITMAP
F800
C000
A000
9000
8800
0400
0200
0100
0080
0040
0020
ENDCHAR
STARTCHAR uni2197
ENCODING 8599
SWIDTH 1000 0
SWIDTH1 1000 0
BBX 11 11 2 0
BITMAP
03E0
0060
00A0
0120
0220
0400
0800
1000
2000
4000
8000
ENDCHAR
STARTCHAR uni2198
ENCODING 8600
SWIDTH 1000 0
SWIDTH1 1000 0
BBX 11 11 2 0
BITMAP
8000
4000
2000
1000
0800
0400
0220
0120
00A0
0060
03E0
ENDCHAR
STARTCHAR uni2199
ENCODING 8601
SWIDTH 1000 0
SWIDTH1 1000 0
BBX 11 11 2 0
BITMAP
0020
0040
0080
0100
0200
0400
8800
9000
A000
C000
F800
ENDCHAR
STARTCHAR element
ENCODING 8712
SWIDTH 1000 0
SWIDTH1 1000 0
BBX 9 9 3 1
BITMAP
3F80
4000
8000
8000
FF80
8000
8000
4000
3F80
ENDCHAR
STARTCHAR product
ENCODING 8719
SWIDTH 1000 0
SWIDTH1 1000 0
BBX 5 11 1 0
BITMAP
F8
88
88
88
88
88
88
88
88
88
88
ENDCHAR
STARTCHAR summation
ENCODING 8721
SWIDTH 1000 0
SWIDTH1 1000 0
BBX 8 9 3 1
BITMAP
FF
40
20
10
08
10
20
40
FF
ENDCHAR
STARTCHAR uni2215
ENCODING 8725
SWIDTH 1000 0
SWIDTH1 1000 0
BBX 6 11 1 0
BITMAP
04
04
08
08
10
20
20
40
40
80
80
ENDCHAR
STARTCHAR radical
ENCODING 8730
SWIDTH 1000 0
SWIDTH1 1000 0
BBX 13 13 1 -1
BITMAP
07F8
0400
0400
0400
0800
0800
0800
4800
4800
A800
3000
1000
1000
ENDCHAR
STARTCHAR proportional
ENCODING 8733
SWIDTH 1000 0
SWIDTH1 1000 0
BBX 12 6 1 3
BITMAP
38E0
4510
8200
8200
4510
38E0
ENDCHAR
STARTCHAR infinity
ENCODING 8734
SWIDTH 1000 0
SWIDTH1 1000 0
BBX 13 6 1 3
BITMAP
38E0
4510
8208
8208
4510
38E0
ENDCHAR
STARTCHAR orthogonal
ENCODING 8735
SWIDTH 1000 0
SWIDTH1 1000 0
BBX 9 9 3 1
BITMAP
8000
8000
8000
8000
8000
8000
8000
8000
FF80
ENDCHAR
STARTCHAR angle
ENCODING 8736
SWIDTH 1000 0
SWIDTH1 1000 0
BBX 9 9 3 1
BITMAP
0080
0100
0200
0400
0800
1000
2000
4000
FF80
ENDCHAR
STARTCHAR uni2223
ENCODING 8739
SWIDTH 1000 0
SWIDTH1 1000 0
BBX 1 15 7 -2
BITMAP
80
80
80
80
80
80
80
80
80
80
80
80
80
80
80
ENDCHAR
STARTCHAR uni2225
ENCODING 8741
SWIDTH 1000 0
SWIDTH1 1000 0
BBX 6 12 4 -1
BITMAP
24
24
24
24
48
48
48
48
90
90
90
90
ENDCHAR
STARTCHAR logicaland
ENCODING 8743
SWIDTH 1000 0
SWIDTH1 1000 0
BBX 9 10 3 1
BITMAP
0800
0800
1400
1400
2200
2200
4100
4100
8080
8080
ENDCHAR
STARTCHAR logicalor
ENCODING 8744
SWIDTH 1000 0
SWIDTH1 1000 0
BBX 9 10 3 1
BITMAP
8080
8080
4100
4100
2200
2200
1400
1400
0800
0800
ENDCHAR
STARTCHAR intersection
ENCODING 8745
SWIDTH 1000 0
SWIDTH1 1000 0
BBX 9 10 3 1
BITMAP
3E00
4100
8080
8080
8080
8080
8080
8080
8080
8080
ENDCHAR
STARTCHAR union
ENCODING 8746
SWIDTH 1000 0
SWIDTH1 1000 0
BBX 9 10 3 1
BITMAP
8080
8080
8080
8080
8080
8080
8080
8080
4100
3E00
ENDCHAR
STARTCHAR integral
ENCODING 8747
SWIDTH 1000 0
SWIDTH1 1000 0
BBX 5 13 5 -1
BITMAP
30
48
48
40
40
20
20
20
10
10
90
90
60
ENDCHAR
STARTCHAR uni222E
ENCODING 8750
SWIDTH 1000 0
SWIDTH1 1000 0
BBX 5 13 5 -1
BITMAP
30
48
48
40
70
A8
A8
A8
70
10
90
90
60
ENDCHAR
STARTCHAR therefore
ENCODING 8756
SWIDTH 1000 0
SWIDTH1 1000 0
BBX 10 9 2 1
BITMAP
0C00
0C00
0000
0000
0000
0000
0000
C0C0
C0C0
ENDCHAR
STARTCHAR uni2235
ENCODING 8757
SWIDTH 1000 0
SWIDTH1 1000 0
BBX 10 9 2 1
BITMAP
C0C0
C0C0
0000
0000
0000
0000
0000
0C00
0C00
ENDCHAR
STARTCHAR uni2236
ENCODING 8758
SWIDTH 1000 0
SWIDTH1 1000 0
BBX 2 9 6 1
BITMAP
C0
C0
00
00
00
00
00
C0
C0
ENDCHAR
STARTCHAR uni2237
ENCODING 8759
SWIDTH 1000 0
SWIDTH1 1000 0
BBX 10 10 2 1
BITMAP
C0C0
C0C0
0000
0000
0000
0000
0000
0000
C0C0
C0C0
ENDCHAR
STARTCHAR uni223D
ENCODING 8765
SWIDTH 1000 0
SWIDTH1 1000 0
BBX 12 5 1 4
BITMAP
61E0
8210
8410
8810
7060
ENDCHAR
STARTCHAR approxequal
ENCODING 8776
SWIDTH 1000 0
SWIDTH1 1000 0
BBX 12 6 1 3
BITMAP
7800
8610
01E0
7800
8630
01C0
ENDCHAR
STARTCHAR uni224C
ENCODING 8780
SWIDTH 1000 0
SWIDTH1 1000 0
BBX 12 9 1 1
BITMAP
61E0
8210
8410
8810
7060
0000
FFF0
0000
FFF0
ENDCHAR
STARTCHAR uni2252
ENCODING 8786
SWIDTH 1000 0
SWIDTH1 1000 0
BBX 10 9 2 2
BITMAP
C000
C000
0000
FFC0
0000
FFC0
0000
00C0
00C0
ENDCHAR
STARTCHAR notequal
ENCODING 8800
SWIDTH 1000 0
SWIDTH1 1000 0
BBX 12 10 1 1
BITMAP
0040
0080
0100
FFF0
0200
0400
FFF0
0800
1000
2000
ENDCHAR
STARTCHAR equivalence
ENCODING 8801
SWIDTH 1000 0
SWIDTH1 1000 0
BBX 12 7 1 3
BITMAP
FFF0
0000
0000
FFF0
0000
0000
FFF0
ENDCHAR
STARTCHAR lessequal
ENCODING 8804
SWIDTH 1000 0
SWIDTH1 1000 0
BBX 12 12 1 0
BITMAP
0030
01C0
0600
1800
E000
1800
0700
C0C0
3830
0600
01C0
0030
ENDCHAR
STARTCHAR greaterequal
ENCODING 8805
SWIDTH 1000 0
SWIDTH1 1000 0
BBX 12 12 1 0
BITMAP
C000
3800
0600
0180
0070
0380
1C00
E030
01C0
0600
3800
C000
ENDCHAR
STARTCHAR uni2266
ENCODING 8806
SWIDTH 1000 0
SWIDTH1 1000 0
BBX 10 9 2 2
BITMAP
01C0
1E00
E000
1E00
01C0
0000
FFC0
0000
FFC0
ENDCHAR
STARTCHAR uni2267
ENCODING 8807
SWIDTH 1000 0
SWIDTH1 1000 0
BBX 10 9 2 2
BITMAP
E000
1E00
01C0
1E00
E000
0000
FFC0
0000
FFC0
ENDCHAR
STARTCHAR uni226E
ENCODING 8814
SWIDTH 1000 0
SWIDTH1 1000 0
BBX 12 12 1 0
BITMAP
0400
0430
04C0
0700
1C00
E400
1C00
0700
04C0
0430
0400
0400
ENDCHAR
STARTCHAR uni226F
ENCODING 8815
SWIDTH 1000 0
SWIDTH1 1000 0
BBX 12 12 1 0
BITMAP
0200
C200
3200
0E00
0380
0270
0380
0E00
3200
C200
0200
0200
ENDCHAR
STARTCHAR circleplus
ENCODING 8853
SWIDTH 1000 0
SWIDTH1 1000 0
BBX 9 9 3 1
BITMAP
3E00
4100
8880
8880
BE80
8880
8880
4100
3E00
ENDCHAR
STARTCHAR uni2299
ENCODING 8857
SWIDTH 1000 0
SWIDTH1 1000 0
BBX 12 12 1 0
BITMAP
1F80
2040
4020
8010
8010
8610
8610
8010
8010
4020
2040
1F80
ENDCHAR
STARTCHAR perpendicular
ENCODING 8869
SWIDTH 1000 0
SWIDTH1 1000 0
BBX 11 11 2 0
BITMAP
0400
0400
0400
0400
0400
0400
0400
0400
0400
0400
FFE0
ENDCHAR
STARTCHAR uni22BF
ENCODING 8895
SWIDTH 1000 0
SWIDTH1 1000 0
BBX 10 10 2 1
BITMAP
0040
00C0
0140
0240
0440
0840
1040
2040
4040
FFC0
ENDCHAR
STARTCHAR uni2312
ENCODING 8978
SWIDTH 1000 0
SWIDTH1 1000 0
BBX 12 5 1 5
BITMAP
1F80
2040
4020
8010
8010
ENDCHAR
STARTCHAR uni2460
ENCODING 9312
SWIDTH 1000 0
SWIDTH1 1000 0
BBX 13 13 1 -1
BITMAP
0700
18C0
2220
4610
4210
8208
8208
8208
4210
4210
2220
18C0
0700
ENDCHAR
STARTCHAR uni2461
ENCODING 9313
SWIDTH 1000 0
SWIDTH1 1000 0
BBX 13 13 1 -1
BITMAP
0700
18C0
2720
4890
4890
8088
8108
8208
4410
4810
2FA0
18C0
0700
ENDCHAR
STARTCHAR uni2462
ENCODING 9314
SWIDTH 1000 0
SWIDTH1 1000 0
BBX 13 13 1 -1
BITMAP
0700
18C0
2720
4890
4890
8088
8308
8088
4890
4890
2720
18C0
0700
ENDCHAR
STARTCHAR uni2463
ENCODING 9315
SWIDTH 1000 0
SWIDTH1 1000 0
BBX 13 13 1 -1
BITMAP
0700
18C0
2120
4310
4310
8508
8508
8908
4F90
4110
2120
18C0
0700
ENDCHAR
STARTCHAR uni2464
ENCODING 9316
SWIDTH 1000 0
SWIDTH1 1000 0
BBX 13 13 1 -1
BITMAP
0700
18C0
2FA0
4810
4810
8F08
8088
8088
4890
4890
2720
18C0
0700
ENDCHAR
STARTCHAR uni2465
ENCODING 9317
SWIDTH 1000 0
SWIDTH1 1000 0
BBX 13 13 1 -1
BITMAP
0700
18C0
2720
4890
4890
8808
8F08
8888
4890
4890
2720
18C0
0700
ENDCHAR
STARTCHAR uni2466
ENCODING 9318
SWIDTH 1000 0
SWIDTH1 1000 0
BBX 13 13 1 -1
BITMAP
0700
18C0
2FA0
4090
4090
8108
8108
8208
4210
4410
2420
18C0
0700
ENDCHAR
STARTCHAR uni2467
ENCODING 9319
SWIDTH 1000 0
SWIDTH1 1000 0
BBX 13 13 1 -1
BITMAP
0700
18C0
2720
4890
4890
8888
8708
8888
4890
4890
2720
18C0
0700
ENDCHAR
STARTCHAR uni2468
ENCODING 9320
SWIDTH 1000 0
SWIDTH1 1000 0
BBX 13 13 1 -1
BITMAP
0700
18C0
2720
4890
4890
8888
8788
8088
4890
4890
2720
18C0
0700
ENDCHAR
STARTCHAR uni2469
ENCODING 9321
SWIDTH 1000 0
SWIDTH1 1000 0
BBX 13 13 1 -1
BITMAP
0700
18C0
31A0
5250
5250
9248
9248
9248
5250
5250
31A0
18C0
0700
ENDCHAR
STARTCHAR uni2474
ENCODING 9332
SWIDTH 1000 0
SWIDTH1 1000 0
BBX 14 12 0 0
BITMAP
2010
4108
8304
8104
8104
8104
8104
8104
8104
8104
4388
2010
ENDCHAR
STARTCHAR uni2475
ENCODING 9333
SWIDTH 1000 0
SWIDTH1 1000 0
BBX 14 12 0 0
BITMAP
2010
4388
8444
8444
8044
8084
8104
8204
8404
8444
47C8
2010
ENDCHAR
STARTCHAR uni2476
ENCODING 9334
SWIDTH 1000 0
SWIDTH1 1000 0
BBX 14 12 0 0
BITMAP
2010
4388
8444
8444
8084
8304
8084
8044
8444
8444
4388
2010
ENDCHAR
STARTCHAR uni2477
ENCODING 9335
SWIDTH 1000 0
SWIDTH1 1000 0
BBX 14 12 0 0
BITMAP
2010
4108
8104
8304
8304
8504
8504
8904
8FC4
8104
4388
2010
ENDCHAR
STARTCHAR uni2478
ENCODING 9336
SWIDTH 1000 0
SWIDTH1 1000 0
BBX 14 12 0 0
BITMAP
2010
47C8
8404
8404
8404
8784
8044
8044
8444
8444
4388
2010
ENDCHAR
STARTCHAR uni2479
ENCODING 9337
SWIDTH 1000 0
SWIDTH1 1000 0
BBX 14 12 0 0
BITMAP
2010
4388
8444
8404
8404
8784
8444
8444
8444
8444
4388
2010
ENDCHAR
STARTCHAR uni247A
ENCODING 9338
SWIDTH 1000 0
SWIDTH1 1000 0
BBX 14 12 0 0
BITMAP
2010
47C8
8884
8084
8104
8104
8204
8204
8204
8204
4208
2010
ENDCHAR
STARTCHAR uni247B
ENCODING 9339
SWIDTH 1000 0
SWIDTH1 1000 0
BBX 14 12 0 0
BITMAP
2010
4388
8444
8444
8444
8384
8444
8444
8444
8444
4388
2010
ENDCHAR
STARTCHAR uni247C
ENCODING 9340
SWIDTH 1000 0
SWIDTH1 1000 0
BBX 14 12 0 0
BITMAP
2010
4388
8444
8444
8444
8444
83C4
8044
8044
8484
4308
2010
ENDCHAR
STARTCHAR uni247D
ENCODING 9341
SWIDTH 1000 0
SWIDTH1 1000 0
BBX 14 12 0 0
BITMAP
2010
48C8
9924
8924
8924
8924
8924
8924
8924
8924
5CC8
2010
ENDCHAR
STARTCHAR uni247E
ENCODING 9342
SWIDTH 1000 0
SWIDTH1 1000 0
BBX 14 12 0 0
BITMAP
2010
4848
98C4
8844
8844
8844
8844
8844
8844
8844
5CE8
2010
ENDCHAR
STARTCHAR uni247F
ENCODING 9343
SWIDTH 1000 0
SWIDTH1 1000 0
BBX 14 12 0 0
BITMAP
2010
48C8
9924
8924
8824
8844
8844
8884
8884
8924
5DE8
2010
ENDCHAR
STARTCHAR uni2480
ENCODING 9344
SWIDTH 1000 0
SWIDTH1 1000 0
BBX 14 12 0 0
BITMAP
2010
48C8
9924
8824
8824
88C4
8824
8824
8924
8924
5CC8
2010
ENDCHAR
STARTCHAR uni2481
ENCODING 9345
SWIDTH 1000 0
SWIDTH1 1000 0
BBX 14 12 0 0
BITMAP
2010
4848
9844
88C4
8944
8944
8A44
8BE4
8844
8844
5CE8
2010
ENDCHAR
STARTCHAR uni2482
ENCODING 9346
SWIDTH 1000 0
SWIDTH1 1000 0
BBX 14 12 0 0
BITMAP
2010
49E8
9904
8904
8904
89C4
8824
8824
8824
8924
5CC8
2010
ENDCHAR
STARTCHAR uni2483
ENCODING 9347
SWIDTH 1000 0
SWIDTH1 1000 0
BBX 14 12 0 0
BITMAP
2010
48C8
9924
8904
8904
89C4
8924
8924
8924
8924
5CC8
2010
ENDCHAR
STARTCHAR uni2484
ENCODING 9348
SWIDTH 1000 0
SWIDTH1 1000 0
BBX 14 12 0 0
BITMAP
2010
49E8
9924
8844
8844
8844
8884
8884
8884
8884
5C88
2010
ENDCHAR
STARTCHAR uni2485
ENCODING 9349
SWIDTH 1000 0
SWIDTH1 1000 0
BBX 14 12 0 0
BITMAP
2010
48C8
9924
8924
8924
88C4
8924
8924
8924
8924
5CC8
2010
ENDCHAR
STARTCHAR uni2486
ENCODING 9350
SWIDTH 1000 0
SWIDTH1 1000 0
BBX 14 12 0 0
BITMAP
2010
48C8
9924
8924
8924
8924
88E4
8824
8924
8924
5CC8
2010
ENDCHAR
STARTCHAR uni2487
ENCODING 9351
SWIDTH 1000 0
SWIDTH1 1000 0
BBX 14 12 0 0
BITMAP
2010
4CC8
9324
9324
8524
8524
8924
8924
9124
9324
5EC8
2010
ENDCHAR
STARTCHAR uni2488
ENCODING 9352
SWIDTH 1000 0
SWIDTH1 1000 0
BBX 7 11 5 1
BITMAP
40
C0
40
40
40
40
40
40
40
46
46
ENDCHAR
STARTCHAR uni2489
ENCODING 9353
SWIDTH 1000 0
SWIDTH1 1000 0
BBX 9 11 3 1
BITMAP
7800
8400
8400
0400
0800
1000
2000
4000
8000
8180
FD80
ENDCHAR
STARTCHAR uni248A
ENCODING 9354
SWIDTH 1000 0
SWIDTH1 1000 0
BBX 9 12 3 0
BITMAP
FC00
0400
0800
1000
3000
0800
0400
0400
0400
8400
7980
0180
ENDCHAR
STARTCHAR uni248B
ENCODING 9355
SWIDTH 1000 0
SWIDTH1 1000 0
BBX 9 11 3 1
BITMAP
1000
1000
2000
2800
4800
4800
8800
FE00
0800
0980
0980
ENDCHAR
STARTCHAR uni248C
ENCODING 9356
SWIDTH 1000 0
SWIDTH1 1000 0
BBX 9 11 3 1
BITMAP
FC00
8000
8000
8000
F000
0800
0400
0400
0400
8580
7980
ENDCHAR
STARTCHAR uni248D
ENCODING 9357
SWIDTH 1000 0
SWIDTH1 1000 0
BBX 9 11 3 1
BITMAP
1000
2000
4000
4000
B800
C400
8400
8400
8400
8580
7980
ENDCHAR
STARTCHAR uni248E
ENCODING 9358
SWIDTH 1000 0
SWIDTH1 1000 0
BBX 8 11 4 1
BITMAP
FC
04
08
08
10
10
10
20
20
23
23
ENDCHAR
STARTCHAR uni248F
ENCODING 9359
SWIDTH 1000 0
SWIDTH1 1000 0
BBX 9 12 3 0
BITMAP
7800
8400
8400
8400
4800
3000
4800
8400
8400
8400
7980
0180
ENDCHAR
STARTCHAR uni2490
ENCODING 9360
SWIDTH 1000 0
SWIDTH1 1000 0
BBX 9 11 4 1
BITMAP
7800
8400
8400
8400
8400
8C00
7400
0800
0800
1180
2180
ENDCHAR
STARTCHAR uni2491
ENCODING 9361
SWIDTH 1000 0
SWIDTH1 1000 0
BBX 12 11 2 1
BITMAP
4700
C880
4880
4880
4880
4880
4880
4880
4880
48B0
4730
ENDCHAR
STARTCHAR uni2492
ENCODING 9362
SWIDTH 1000 0
SWIDTH1 1000 0
BBX 11 11 2 1
BITMAP
4200
C600
4200
4200
4200
4200
4200
4200
4200
4260
4260
ENDCHAR
STARTCHAR uni2493
ENCODING 9363
SWIDTH 1000 0
SWIDTH1 1000 0
BBX 12 11 2 1
BITMAP
4700
C880
4880
4080
4080
4100
4200
4400
4800
4830
4FB0
ENDCHAR
STARTCHAR uni2494
ENCODING 9364
SWIDTH 1000 0
SWIDTH1 1000 0
BBX 12 11 2 1
BITMAP
4F80
C080
4100
4200
4600
4100
4080
4080
4080
48B0
4730
ENDCHAR
STARTCHAR uni2495
ENCODING 9365
SWIDTH 1000 0
SWIDTH1 1000 0
BBX 12 11 2 1
BITMAP
4200
C200
4400
4500
4900
4900
5100
5FC0
4100
4130
4130
ENDCHAR
STARTCHAR uni2496
ENCODING 9366
SWIDTH 1000 0
SWIDTH1 1000 0
BBX 12 11 2 1
BITMAP
4F80
C800
4800
4800
4F00
4080
4080
4080
4080
48B0
4730
ENDCHAR
STARTCHAR uni2497
ENCODING 9367
SWIDTH 1000 0
SWIDTH1 1000 0
BBX 12 11 2 1
BITMAP
4100
C200
4400
4400
4B00
4C80
4880
4880
4880
48B0
4730
ENDCHAR
STARTCHAR uni2498
ENCODING 9368
SWIDTH 1000 0
SWIDTH1 1000 0
BBX 12 11 2 1
BITMAP
4FC0
C040
4080
4080
4100
4100
4100
4200
4200
4230
4230
ENDCHAR
STARTCHAR uni2499
ENCODING 9369
SWIDTH 1000 0
SWIDTH1 1000 0
BBX 12 11 2 1
BITMAP
4700
C880
4880
4880
4880
4700
4880
4880
4880
48B0
4730
ENDCHAR
STARTCHAR uni249A
ENCODING 9370
SWIDTH 1000 0
SWIDTH1 1000 0
BBX 12 11 2 1
BITMAP
4700
C880
4880
4880
4880
4980
4680
4100
4100
4230
4430
ENDCHAR
STARTCHAR uni249B
ENCODING 9371
SWIDTH 1000 0
SWIDTH1 1000 0
BBX 12 11 2 1
BITMAP
6300
9480
9480
1480
2480
2480
4480
4480
8480
84B0
F330
ENDCHAR
STARTCHAR SF100000
ENCODING 9472
SWIDTH 1000 0
SWIDTH1 1000 0
BBX 14 1 1 5
BITMAP
FFFC
ENDCHAR
STARTCHAR uni2501
ENCODING 9473
SWIDTH 1000 0
SWIDTH1 1000 0
BBX 14 2 1 5
BITMAP
FFFC
FFFC
ENDCHAR
STARTCHAR SF110000
ENCODING 9474
SWIDTH 1000 0
SWIDTH1 1000 0
BBX 1 14 7 -2
BITMAP
80
80
80
80
80
80
80
80
80
80
80
80
80
80
ENDCHAR
STARTCHAR uni2503
ENCODING 9475
SWIDTH 1000 0
SWIDTH1 1000 0
BBX 2 14 6 -2
BITMAP
C0
C0
C0
C0
C0
C0
C0
C0
C0
C0
C0
C0
C0
C0
ENDCHAR
STARTCHAR uni2504
ENCODING 9476
SWIDTH 1000 0
SWIDTH1 1000 0
BBX 15 1 0 5
BITMAP
F3CE
ENDCHAR
STARTCHAR uni2505
ENCODING 9477
SWIDTH 1000 0
SWIDTH1 1000 0
BBX 15 2 0 4
BITMAP
F3CE
F3CE
ENDCHAR
STARTCHAR uni2506
ENCODING 9478
SWIDTH 1000 0
SWIDTH1 1000 0
BBX 1 15 7 -2
BITMAP
80
80
80
80
00
00
80
80
80
80
00
00
80
80
80
ENDCHAR
STARTCHAR uni2507
ENCODING 9479
SWIDTH 1000 0
SWIDTH1 1000 0
BBX 2 15 7 -2
BITMAP
C0
C0
C0
C0
00
00
C0
C0
C0
C0
00
00
C0
C0
C0
ENDCHAR
STARTCHAR uni2508
ENCODING 9480
SWIDTH 1000 0
SWIDTH1 1000 0
BBX 15 1 0 5
BITMAP
E666
ENDCHAR
STARTCHAR uni2509
ENCODING 9481
SWIDTH 1000 0
SWIDTH1 1000 0
BBX 15 2 0 4
BITMAP
E666
E666
ENDCHAR
STARTCHAR uni250A
ENCODING 9482
SWIDTH 1000 0
SWIDTH1 1000 0
BBX 1 15 7 -2
BITMAP
80
80
80
00
00
80
80
00
00
80
80
00
00
80
80
ENDCHAR
STARTCHAR uni250B
ENCODING 9483
SWIDTH 1000 0
SWIDTH1 1000 0
BBX 2 15 7 -2
BITMAP
C0
C0
C0
00
00
C0
C0
00
00
C0
C0
00
00
C0
C0
ENDCHAR
STARTCHAR SF010000
ENCODING 9484
SWIDTH 1000 0
SWIDTH1 1000 0
BBX 8 8 7 -2
BITMAP
FF
80
80
80
80
80
80
80
ENDCHAR
STARTCHAR uni250D
ENCODING 9485
SWIDTH 1000 0
SWIDTH1 1000 0
BBX 8 8 7 -2
BITMAP
FF
FF
80
80
80
80
80
80
ENDCHAR
STARTCHAR uni250E
ENCODING 9486
SWIDTH 1000 0
SWIDTH1 1000 0
BBX 8 8 7 -2
BITMAP
FF
C0
C0
C0
C0
C0
C0
C0
ENDCHAR
STARTCHAR uni250F
ENCODING 9487
SWIDTH 1000 0
SWIDTH1 1000 0
BBX 9 9 6 -2
BITMAP
FF80
FF80
C000
C000
C000
C000
C000
C000
C000
ENDCHAR
STARTCHAR SF030000
ENCODING 9488
SWIDTH 1000 0
SWIDTH1 1000 0
BBX 7 8 1 -2
BITMAP
FE
02
02
02
02
02
02
02
ENDCHAR
STARTCHAR uni2511
ENCODING 9489
SWIDTH 1000 0
SWIDTH1 1000 0
BBX 8 8 0 -2
BITMAP
FF
FF
01
01
01
01
01
01
ENDCHAR
STARTCHAR uni2512
ENCODING 9490
SWIDTH 1000 0
SWIDTH1 1000 0
BBX 9 8 0 -2
BITMAP
FF80
0180
0180
0180
0180
0180
0180
0180
ENDCHAR
STARTCHAR uni2513
ENCODING 9491
SWIDTH 1000 0
SWIDTH1 1000 0
BBX 7 9 1 -2
BITMAP
FE
FE
06
06
06
06
06
06
06
ENDCHAR
STARTCHAR SF020000
ENCODING 9492
SWIDTH 1000 0
SWIDTH1 1000 0
BBX 8 7 7 5
BITMAP
80
80
80
80
80
80
FF
ENDCHAR
STARTCHAR uni2515
ENCODING 9493
SWIDTH 1000 0
SWIDTH1 1000 0
BBX 8 9 7 4
BITMAP
80
80
80
80
80
80
80
FF
FF
ENDCHAR
STARTCHAR uni2516
ENCODING 9494
SWIDTH 1000 0
SWIDTH1 1000 0
BBX 8 8 7 5
BITMAP
C0
C0
C0
C0
C0
C0
C0
FF
ENDCHAR
STARTCHAR uni2517
ENCODING 9495
SWIDTH 1000 0
SWIDTH1 1000 0
BBX 9 7 6 5
BITMAP
C000
C000
C000
C000
C000
FF80
FF80
ENDCHAR
STARTCHAR SF040000
ENCODING 9496
SWIDTH 1000 0
SWIDTH1 1000 0
BBX 7 7 1 5
BITMAP
02
02
02
02
02
02
FE
ENDCHAR
STARTCHAR uni2519
ENCODING 9497
SWIDTH 1000 0
SWIDTH1 1000 0
BBX 8 9 0 4
BITMAP
01
01
01
01
01
01
01
FF
FF
ENDCHAR
STARTCHAR uni251A
ENCODING 9498
SWIDTH 1000 0
SWIDTH1 1000 0
BBX 9 8 0 5
BITMAP
0180
0180
0180
0180
0180
0180
0180
FF80
ENDCHAR
STARTCHAR uni251B
ENCODING 9499
SWIDTH 1000 0
SWIDTH1 1000 0
BBX 7 7 1 5
BITMAP
06
06
06
06
06
FE
FE
ENDCHAR
STARTCHAR SF080000
ENCODING 9500
SWIDTH 1000 0
SWIDTH1 1000 0
BBX 8 14 7 -2
BITMAP
80
80
80
80
80
80
FF
80
80
80
80
80
80
80
ENDCHAR
STARTCHAR uni251D
ENCODING 9501
SWIDTH 1000 0
SWIDTH1 1000 0
BBX 8 14 7 -2
BITMAP
80
80
80
80
80
FF
FF
80
80
80
80
80
80
80
ENDCHAR
STARTCHAR uni251E
ENCODING 9502
SWIDTH 1000 0
SWIDTH1 1000 0
BBX 8 15 7 -2
BITMAP
C0
C0
C0
C0
C0
C0
C0
FF
80
80
80
80
80
80
80
ENDCHAR
STARTCHAR uni251F
ENCODING 9503
SWIDTH 1000 0
SWIDTH1 1000 0
BBX 8 15 7 -2
BITMAP
80
80
80
80
80
80
80
FF
C0
C0
C0
C0
C0
C0
C0
ENDCHAR
STARTCHAR uni2520
ENCODING 9504
SWIDTH 1000 0
SWIDTH1 1000 0
BBX 9 14 6 -2
BITMAP
C000
C000
C000
C000
C000
C000
FF80
C000
C000
C000
C000
C000
C000
C000
ENDCHAR
STARTCHAR uni2521
ENCODING 9505
SWIDTH 1000 0
SWIDTH1 1000 0
BBX 8 15 7 -2
BITMAP
C0
C0
C0
C0
C0
C0
C0
FF
FF
80
80
80
80
80
80
ENDCHAR
STARTCHAR uni2522
ENCODING 9506
SWIDTH 1000 0
SWIDTH1 1000 0
BBX 8 15 7 -2
BITMAP
80
80
80
80
80
80
80
FF
FF
C0
C0
C0
C0
C0
C0
ENDCHAR
STARTCHAR uni2523
ENCODING 9507
SWIDTH 1000 0
SWIDTH1 1000 0
BBX 9 14 6 -2
BITMAP
C000
C000
C000
C000
C000
FF80
FF80
C000
C000
C000
C000
C000
C000
C000
ENDCHAR
STARTCHAR SF090000
ENCODING 9508
SWIDTH 1000 0
SWIDTH1 1000 0
BBX 7 14 1 -2
BITMAP
02
02
02
02
02
02
FE
02
02
02
02
02
02
02
ENDCHAR
STARTCHAR uni2525
ENCODING 9509
SWIDTH 1000 0
SWIDTH1 1000 0
BBX 7 14 1 -2
BITMAP
02
02
02
02
02
FE
FE
02
02
02
02
02
02
02
ENDCHAR
STARTCHAR uni2526
ENCODING 9510
SWIDTH 1000 0
SWIDTH1 1000 0
BBX 9 15 0 -2
BITMAP
0180
0180
0180
0180
0180
0180
0180
FF80
0100
0100
0100
0100
0100
0100
0100
ENDCHAR
STARTCHAR uni2527
ENCODING 9511
SWIDTH 1000 0
SWIDTH1 1000 0
BBX 9 15 0 -2
BITMAP
0100
0100
0100
0100
0100
0100
0100
FF80
0180
0180
0180
0180
0180
0180
0180
ENDCHAR
STARTCHAR uni2528
ENCODING 9512
SWIDTH 1000 0
SWIDTH1 1000 0
BBX 7 14 1 -2
BITMAP
06
06
06
06
06
06
FE
06
06
06
06
06
06
06
ENDCHAR
STARTCHAR uni2529
ENCODING 9513
SWIDTH 1000 0
SWIDTH1 1000 0
BBX 9 15 0 -2
BITMAP
0180
0180
0180
0180
0180
0180
0180
FF80
FF80
0100
0100
0100
0100
0100
0100
ENDCHAR
STARTCHAR uni252A
ENCODING 9514
SWIDTH 1000 0
SWIDTH1 1000 0
BBX 9 15 0 -2
BITMAP
0100
0100
0100
0100
0100
0100
0100
FF80
FF80
0180
0180
0180
0180
0180
0180
ENDCHAR
STARTCHAR uni252B
ENCODING 9515
SWIDTH 1000 0
SWIDTH1 1000 0
BBX 7 14 1 -2
BITMAP
06
06
06
06
06
FE
FE
06
06
06
06
06
06
06
ENDCHAR
STARTCHAR SF060000
ENCODING 9516
SWIDTH 1000 0
SWIDTH1 1000 0
BBX 14 8 1 -2
BITMAP
FFFC
0200
0200
0200
0200
0200
0200
0200
ENDCHAR
STARTCHAR uni252D
ENCODING 9517
SWIDTH 1000 0
SWIDTH1 1000 0
BBX 15 8 0 -2
BITMAP
FFFE
FF00
0100
0100
0100
0100
0100
0100
ENDCHAR
STARTCHAR uni252E
ENCODING 9518
SWIDTH 1000 0
SWIDTH1 1000 0
BBX 15 8 0 -2
BITMAP
FFFE
01FE
0100
0100
0100
0100
0100
0100
ENDCHAR
STARTCHAR uni252F
ENCODING 9519
SWIDTH 1000 0
SWIDTH1 1000 0
BBX 14 9 1 -2
BITMAP
FFFC
FFFC
0200
0200
0200
0200
0200
0200
0200
ENDCHAR
STARTCHAR uni2530
ENCODING 9520
SWIDTH 1000 0
SWIDTH1 1000 0
BBX 14 8 1 -2
BITMAP
FFFC
0600
0600
0600
0600
0600
0600
0600
ENDCHAR
STARTCHAR uni2531
ENCODING 9521
SWIDTH 1000 0
SWIDTH1 1000 0
BBX 15 8 0 -2
BITMAP
FFFE
FF80
0180
0180
0180
0180
0180
0180
ENDCHAR
STARTCHAR uni2532
ENCODING 9522
SWIDTH 1000 0
SWIDTH1 1000 0
BBX 15 8 0 -2
BITMAP
FFFE
01FE
0180
0180
0180
0180
0180
0180
ENDCHAR
STARTCHAR uni2533
ENCODING 9523
SWIDTH 1000 0
SWIDTH1 1000 0
BBX 14 9 1 -2
BITMAP
FFFC
FFFC
0600
0600
0600
0600
0600
0600
0600
ENDCHAR
STARTCHAR SF070000
ENCODING 9524
SWIDTH 1000 0
SWIDTH1 1000 0
BBX 14 7 1 5
BITMAP
0200
0200
0200
0200
0200
0200
FFFC
ENDCHAR
STARTCHAR uni2535
ENCODING 9525
SWIDTH 1000 0
SWIDTH1 1000 0
BBX 15 9 0 4
BITMAP
0100
0100
0100
0100
0100
0100
0100
FFFE
FF00
ENDCHAR
STARTCHAR uni2536
ENCODING 9526
SWIDTH 1000 0
SWIDTH1 1000 0
BBX 15 9 0 4
BITMAP
0100
0100
0100
0100
0100
0100
0100
FFFE
01FE
ENDCHAR
STARTCHAR uni2537
ENCODING 9527
SWIDTH 1000 0
SWIDTH1 1000 0
BBX 14 7 1 5
BITMAP
0200
0200
0200
0200
0200
FFFC
FFFC
ENDCHAR
STARTCHAR uni2538
ENCODING 9528
SWIDTH 1000 0
SWIDTH1 1000 0
BBX 14 7 1 5
BITMAP
0600
0600
0600
0600
0600
0600
FFFC
ENDCHAR
STARTCHAR uni2539
ENCODING 9529
SWIDTH 1000 0
SWIDTH1 1000 0
BBX 15 9 0 4
BITMAP
0180
0180
0180
0180
0180
0180
0180
FFFE
FF80
ENDCHAR
STARTCHAR uni253A
ENCODING 9530
SWIDTH 1000 0
SWIDTH1 1000 0
BBX 15 9 0 4
BITMAP
0180
0180
0180
0180
0180
0180
0180
FFFE
01FE
ENDCHAR
STARTCHAR uni253B
ENCODING 9531
SWIDTH 1000 0
SWIDTH1 1000 0
BBX 14 7 1 5
BITMAP
0600
0600
0600
0600
0600
FFFC
FFFC
ENDCHAR
STARTCHAR SF050000
ENCODING 9532
SWIDTH 1000 0
SWIDTH1 1000 0
BBX 14 14 1 -2
BITMAP
0200
0200
0200
0200
0200
0200
FFFC
0200
0200
0200
0200
0200
0200
0200
ENDCHAR
STARTCHAR uni253D
ENCODING 9533
SWIDTH 1000 0
SWIDTH1 1000 0
BBX 15 15 0 -2
BITMAP
0100
0100
0100
0100
0100
0100
0100
FFFE
FF00
0100
0100
0100
0100
0100
0100
ENDCHAR
STARTCHAR uni253E
ENCODING 9534
SWIDTH 1000 0
SWIDTH1 1000 0
BBX 15 15 0 -2
BITMAP
0100
0100
0100
0100
0100
0100
0100
FFFE
01FE
0100
0100
0100
0100
0100
0100
ENDCHAR
STARTCHAR uni253F
ENCODING 9535
SWIDTH 1000 0
SWIDTH1 1000 0
BBX 14 14 1 -2
BITMAP
0200
0200
0200
0200
0200
FFFC
FFFC
0200
0200
0200
0200
0200
0200
0200
ENDCHAR
STARTCHAR uni2540
ENCODING 9536
SWIDTH 1000 0
SWIDTH1 1000 0
BBX 15 15 0 -2
BITMAP
0180
0180
0180
0180
0180
0180
0180
FFFE
0100
0100
0100
0100
0100
0100
0100
ENDCHAR
STARTCHAR uni2541
ENCODING 9537
SWIDTH 1000 0
SWIDTH1 1000 0
BBX 15 15 0 -2
BITMAP
0100
0100
0100
0100
0100
0100
0100
FFFE
0180
0180
0180
0180
0180
0180
0180
ENDCHAR
STARTCHAR uni2542
ENCODING 9538
SWIDTH 1000 0
SWIDTH1 1000 0
BBX 14 14 1 -2
BITMAP
0600
0600
0600
0600
0600
0600
FFFC
0600
0600
0600
0600
0600
0600
0600
ENDCHAR
STARTCHAR uni2543
ENCODING 9539
SWIDTH 1000 0
SWIDTH1 1000 0
BBX 15 15 0 -2
BITMAP
0180
0180
0180
0180
0180
0180
0180
FFFE
FF80
0100
0100
0100
0100
0100
0100
ENDCHAR
STARTCHAR uni2544
ENCODING 9540
SWIDTH 1000 0
SWIDTH1 1000 0
BBX 15 15 0 -2
BITMAP
0180
0180
0180
0180
0180
0180
0180
FFFE
01FE
0100
0100
0100
0100
0100
0100
ENDCHAR
STARTCHAR uni2545
ENCODING 9541
SWIDTH 1000 0
SWIDTH1 1000 0
BBX 15 15 0 -2
BITMAP
0100
0100
0100
0100
0100
0100
0100
FFFE
FF80
0180
0180
0180
0180
0180
0180
ENDCHAR
STARTCHAR uni2546
ENCODING 9542
SWIDTH 1000 0
SWIDTH1 1000 0
BBX 15 15 0 -2
BITMAP
0100
0100
0100
0100
0100
0100
0100
FFFE
01FE
0180
0180
0180
0180
0180
0180
ENDCHAR
STARTCHAR uni2547
ENCODING 9543
SWIDTH 1000 0
SWIDTH1 1000 0
BBX 15 15 0 -2
BITMAP
0180
0180
0180
0180
0180
0180
0180
FFFE
FFFE
0100
0100
0100
0100
0100
0100
ENDCHAR
STARTCHAR uni2548
ENCODING 9544
SWIDTH 1000 0
SWIDTH1 1000 0
BBX 15 15 0 -2
BITMAP
0100
0100
0100
0100
0100
0100
0100
FFFE
FFFE
0180
0180
0180
0180
0180
0180
ENDCHAR
STARTCHAR uni2549
ENCODING 9545
SWIDTH 1000 0
SWIDTH1 1000 0
BBX 15 15 0 -2
BITMAP
0180
0180
0180
0180
0180
0180
0180
FFFE
FF80
0180
0180
0180
0180
0180
0180
ENDCHAR
STARTCHAR uni254A
ENCODING 9546
SWIDTH 1000 0
SWIDTH1 1000 0
BBX 15 15 0 -2
BITMAP
0180
0180
0180
0180
0180
0180
0180
FFFE
01FE
0180
0180
0180
0180
0180
0180
ENDCHAR
STARTCHAR uni254B
ENCODING 9547
SWIDTH 1000 0
SWIDTH1 1000 0
BBX 14 14 1 -2
BITMAP
0600
0600
0600
0600
0600
FFFC
FFFC
0600
0600
0600
0600
0600
0600
0600
ENDCHAR
STARTCHAR SF430000
ENCODING 9552
SWIDTH 1000 0
SWIDTH1 1000 0
BBX 15 3 0 4
BITMAP
FFFE
0000
FFFE
ENDCHAR
STARTCHAR SF240000
ENCODING 9553
SWIDTH 1000 0
SWIDTH1 1000 0
BBX 3 15 6 -2
BITMAP
A0
A0
A0
A0
A0
A0
A0
A0
A0
A0
A0
A0
A0
A0
A0
ENDCHAR
STARTCHAR SF510000
ENCODING 9554
SWIDTH 1000 0
SWIDTH1 1000 0
BBX 8 9 7 -2
BITMAP
FF
80
FF
80
80
80
80
80
80
ENDCHAR
STARTCHAR SF520000
ENCODING 9555
SWIDTH 1000 0
SWIDTH1 1000 0
BBX 9 8 6 -2
BITMAP
FF80
A000
A000
A000
A000
A000
A000
A000
ENDCHAR
STARTCHAR SF390000
ENCODING 9556
SWIDTH 1000 0
SWIDTH1 1000 0
BBX 9 9 6 -2
BITMAP
FF80
8000
BF80
A000
A000
A000
A000
A000
A000
ENDCHAR
STARTCHAR SF220000
ENCODING 9557
SWIDTH 1000 0
SWIDTH1 1000 0
BBX 8 9 0 -2
BITMAP
FF
01
FF
01
01
01
01
01
01
ENDCHAR
STARTCHAR SF210000
ENCODING 9558
SWIDTH 1000 0
SWIDTH1 1000 0
BBX 9 8 0 -2
BITMAP
FF80
0280
0280
0280
0280
0280
0280
0280
ENDCHAR
STARTCHAR SF250000
ENCODING 9559
SWIDTH 1000 0
SWIDTH1 1000 0
BBX 9 9 0 -2
BITMAP
FF80
0080
FE80
0280
0280
0280
0280
0280
0280
ENDCHAR
STARTCHAR SF500000
ENCODING 9560
SWIDTH 1000 0
SWIDTH1 1000 0
BBX 8 9 7 4
BITMAP
80
80
80
80
80
80
FF
80
FF
ENDCHAR
STARTCHAR SF490000
ENCODING 9561
SWIDTH 1000 0
SWIDTH1 1000 0
BBX 9 8 6 5
BITMAP
A000
A000
A000
A000
A000
A000
A000
FF80
ENDCHAR
STARTCHAR SF380000
ENCODING 9562
SWIDTH 1000 0
SWIDTH1 1000 0
BBX 9 9 6 4
BITMAP
A000
A000
A000
A000
A000
A000
BF80
8000
FF80
ENDCHAR
STARTCHAR SF280000
ENCODING 9563
SWIDTH 1000 0
SWIDTH1 1000 0
BBX 8 9 0 4
BITMAP
01
01
01
01
01
01
FF
01
FF
ENDCHAR
STARTCHAR SF270000
ENCODING 9564
SWIDTH 1000 0
SWIDTH1 1000 0
BBX 9 8 0 5
BITMAP
0280
0280
0280
0280
0280
0280
0280
FF80
ENDCHAR
STARTCHAR SF260000
ENCODING 9565
SWIDTH 1000 0
SWIDTH1 1000 0
BBX 9 9 0 4
BITMAP
0280
0280
0280
0280
0280
0280
FE80
0080
FF80
ENDCHAR
STARTCHAR SF360000
ENCODING 9566
SWIDTH 1000 0
SWIDTH1 1000 0
BBX 8 15 7 -2
BITMAP
80
80
80
80
80
80
FF
80
FF
80
80
80
80
80
80
ENDCHAR
STARTCHAR SF370000
ENCODING 9567
SWIDTH 1000 0
SWIDTH1 1000 0
BBX 9 15 6 -2
BITMAP
A000
A000
A000
A000
A000
A000
A000
BF80
A000
A000
A000
A000
A000
A000
A000
ENDCHAR
STARTCHAR SF420000
ENCODING 9568
SWIDTH 1000 0
SWIDTH1 1000 0
BBX 9 15 6 -2
BITMAP
A000
A000
A000
A000
A000
A000
BF80
8000
BF80
A000
A000
A000
A000
A000
A000
ENDCHAR
STARTCHAR SF190000
ENCODING 9569
SWIDTH 1000 0
SWIDTH1 1000 0
BBX 8 15 0 -2
BITMAP
01
01
01
01
01
01
FF
01
FF
01
01
01
01
01
01
ENDCHAR
STARTCHAR SF200000
ENCODING 9570
SWIDTH 1000 0
SWIDTH1 1000 0
BBX 9 15 0 -2
BITMAP
0280
0280
0280
0280
0280
0280
0280
FE80
0280
0280
0280
0280
0280
0280
0280
ENDCHAR
STARTCHAR SF230000
ENCODING 9571
SWIDTH 1000 0
SWIDTH1 1000 0
BBX 9 15 0 -2
BITMAP
0280
0280
0280
0280
0280
0280
FE80
0080
FE80
0280
0280
0280
0280
0280
0280
ENDCHAR
STARTCHAR SF470000
ENCODING 9572
SWIDTH 1000 0
SWIDTH1 1000 0
BBX 15 9 0 -2
BITMAP
FFFE
0000
FFFE
0100
0100
0100
0100
0100
0100
ENDCHAR
STARTCHAR SF480000
ENCODING 9573
SWIDTH 1000 0
SWIDTH1 1000 0
BBX 15 8 0 -2
BITMAP
FFFE
0280
0280
0280
0280
0280
0280
0280
ENDCHAR
STARTCHAR SF410000
ENCODING 9574
SWIDTH 1000 0
SWIDTH1 1000 0
BBX 15 9 0 -2
BITMAP
FFFE
0000
FEFE
0280
0280
0280
0280
0280
0280
ENDCHAR
STARTCHAR SF450000
ENCODING 9575
SWIDTH 1000 0
SWIDTH1 1000 0
BBX 15 9 0 4
BITMAP
0100
0100
0100
0100
0100
0100
FFFE
0000
FFFE
ENDCHAR
STARTCHAR SF460000
ENCODING 9576
SWIDTH 1000 0
SWIDTH1 1000 0
BBX 15 8 0 5
BITMAP
0280
0280
0280
0280
0280
0280
0280
FFFE
ENDCHAR
STARTCHAR SF400000
ENCODING 9577
SWIDTH 1000 0
SWIDTH1 1000 0
BBX 15 9 0 4
BITMAP
0280
0280
0280
0280
0280
0280
FEFE
0000
FFFE
ENDCHAR
STARTCHAR SF540000
ENCODING 9578
SWIDTH 1000 0
SWIDTH1 1000 0
BBX 15 15 0 -2
BITMAP
0100
0100
0100
0100
0100
0100
FFFE
0100
FFFE
0100
0100
0100
0100
0100
0100
ENDCHAR
STARTCHAR SF530000
ENCODING 9579
SWIDTH 1000 0
SWIDTH1 1000 0
BBX 15 15 0 -2
BITMAP
0280
0280
0280
0280
0280
0280
0280
FFFE
0280
0280
0280
0280
0280
0280
0280
ENDCHAR
STARTCHAR SF440000
ENCODING 9580
SWIDTH 1000 0
SWIDTH1 1000 0
BBX 15 15 0 -2
BITMAP
0280
0280
0280
0280
0280
0280
FEFE
0000
FEFE
0280
0280
0280
0280
0280
0280
ENDCHAR
STARTCHAR uni256D
ENCODING 9581
SWIDTH 1000 0
SWIDTH1 1000 0
BBX 8 8 7 -2
BITMAP
07
18
20
40
40
80
80
80
ENDCHAR
STARTCHAR uni256E
ENCODING 9582
SWIDTH 1000 0
SWIDTH1 1000 0
BBX 8 8 0 -2
BITMAP
E0
18
04
02
02
01
01
01
ENDCHAR
STARTCHAR uni256F
ENCODING 9583
SWIDTH 1000 0
SWIDTH1 1000 0
BBX 8 8 0 5
BITMAP
01
01
01
02
02
04
18
E0
ENDCHAR
STARTCHAR uni2570
ENCODING 9584
SWIDTH 1000 0
SWIDTH1 1000 0
BBX 8 8 7 5
BITMAP
80
80
80
40
40
20
18
07
ENDCHAR
STARTCHAR uni2571
ENCODING 9585
SWIDTH 1000 0
SWIDTH1 1000 0
BBX 15 15 0 -2
BITMAP
0002
0004
0008
0010
0020
0040
0080
0100
0200
0400
0800
1000
2000
4000
8000
ENDCHAR
STARTCHAR uni2572
ENCODING 9586
SWIDTH 1000 0
SWIDTH1 1000 0
BBX 15 15 0 -2
BITMAP
8000
4000
2000
1000
0800
0400
0200
0100
0080
0040
0020
0010
0008
0004
0002
ENDCHAR
STARTCHAR uni2573
ENCODING 9587
SWIDTH 1000 0
SWIDTH1 1000 0
BBX 15 15 0 -2
BITMAP
8002
4004
2008
1010
0820
0440
0280
0100
0280
0440
0820
1010
2008
4004
8002
ENDCHAR
STARTCHAR uni2581
ENCODING 9601
SWIDTH 1000 0
SWIDTH1 1000 0
BBX 15 2 0 -2
BITMAP
FFFE
FFFE
ENDCHAR
STARTCHAR uni2582
ENCODING 9602
SWIDTH 1000 0
SWIDTH1 1000 0
BBX 15 4 0 -2
BITMAP
FFFE
FFFE
FFFE
FFFE
ENDCHAR
STARTCHAR uni2583
ENCODING 9603
SWIDTH 1000 0
SWIDTH1 1000 0
BBX 15 6 0 -2
BITMAP
FFFE
FFFE
FFFE
FFFE
FFFE
FFFE
ENDCHAR
STARTCHAR dnblock
ENCODING 9604
SWIDTH 1000 0
SWIDTH1 1000 0
BBX 15 8 0 -2
BITMAP
FFFE
FFFE
FFFE
FFFE
FFFE
FFFE
FFFE
FFFE
ENDCHAR
STARTCHAR uni2585
ENCODING 9605
SWIDTH 1000 0
SWIDTH1 1000 0
BBX 15 10 0 -2
BITMAP
FFFE
FFFE
FFFE
FFFE
FFFE
FFFE
FFFE
FFFE
FFFE
FFFE
ENDCHAR
STARTCHAR uni2586
ENCODING 9606
SWIDTH 1000 0
SWIDTH1 1000 0
BBX 15 11 0 -2
BITMAP
FFFE
FFFE
FFFE
FFFE
FFFE
FFFE
FFFE
FFFE
FFFE
FFFE
FFFE
ENDCHAR
STARTCHAR uni2587
ENCODING 9607
SWIDTH 1000 0
SWIDTH1 1000 0
BBX 15 13 0 -2
BITMAP
FFFE
FFFE
FFFE
FFFE
FFFE
FFFE
FFFE
FFFE
FFFE
FFFE
FFFE
FFFE
FFFE
ENDCHAR
STARTCHAR block
ENCODING 9608
SWIDTH 1000 0
SWIDTH1 1000 0
BBX 15 15 0 -2
BITMAP
FFFE
FFFE
FFFE
FFFE
FFFE
FFFE
FFFE
FFFE
FFFE
FFFE
FFFE
FFFE
FFFE
FFFE
FFFE
ENDCHAR
STARTCHAR uni2589
ENCODING 9609
SWIDTH 1000 0
SWIDTH1 1000 0
BBX 13 15 0 -2
BITMAP
FFF8
FFF8
FFF8
FFF8
FFF8
FFF8
FFF8
FFF8
FFF8
FFF8
FFF8
FFF8
FFF8
FFF8
FFF8
ENDCHAR
STARTCHAR uni258A
ENCODING 9610
SWIDTH 1000 0
SWIDTH1 1000 0
BBX 11 15 0 -2
BITMAP
FFE0
FFE0
FFE0
FFE0
FFE0
FFE0
FFE0
FFE0
FFE0
FFE0
FFE0
FFE0
FFE0
FFE0
FFE0
ENDCHAR
STARTCHAR uni258B
ENCODING 9611
SWIDTH 1000 0
SWIDTH1 1000 0
BBX 9 15 0 -2
BITMAP
FF80
FF80
FF80
FF80
FF80
FF80
FF80
FF80
FF80
FF80
FF80
FF80
FF80
FF80
FF80
ENDCHAR
STARTCHAR lfblock
ENCODING 9612
SWIDTH 1000 0
SWIDTH1 1000 0
BBX 8 15 0 -2
BITMAP
FF
FF
FF
FF
FF
FF
FF
FF
FF
FF
FF
FF
FF
FF
FF
ENDCHAR
STARTCHAR uni258D
ENCODING 9613
SWIDTH 1000 0
SWIDTH1 1000 0
BBX 6 15 0 -2
BITMAP
FC
FC
FC
FC
FC
FC
FC
FC
FC
FC
FC
FC
FC
FC
FC
ENDCHAR
STARTCHAR uni258E
ENCODING 9614
SWIDTH 1000 0
SWIDTH1 1000 0
BBX 4 15 0 -2
BITMAP
F0
F0
F0
F0
F0
F0
F0
F0
F0
F0
F0
F0
F0
F0
F0
ENDCHAR
STARTCHAR uni258F
ENCODING 9615
SWIDTH 1000 0
SWIDTH1 1000 0
BBX 2 15 0 -2
BITMAP
C0
C0
C0
C0
C0
C0
C0
C0
C0
C0
C0
C0
C0
C0
C0
ENDCHAR
STARTCHAR dkshade
ENCODING 9619
SWIDTH 1000 0
SWIDTH1 1000 0
BBX 13 15 1 -2
BITMAP
FFF8
64C8
FFF8
9930
FFF8
6648
FFF8
9B30
FFF8
66C8
FFF8
9B30
FFF8
64C8
FFF8
ENDCHAR
STARTCHAR uni2594
ENCODING 9620
SWIDTH 1000 0
SWIDTH1 1000 0
BBX 14 2 0 11
BITMAP
FFFC
FFFC
ENDCHAR
STARTCHAR uni2595
ENCODING 9621
SWIDTH 1000 0
SWIDTH1 1000 0
BBX 2 14 12 -1
BITMAP
C0
C0
C0
C0
C0
C0
C0
C0
C0
C0
C0
C0
C0
C0
ENDCHAR
STARTCHAR filledbox
ENCODING 9632
SWIDTH 1000 0
SWIDTH1 1000 0
BBX 12 12 1 0
BITMAP
FFF0
FFF0
FFF0
FFF0
FFF0
FFF0
FFF0
FFF0
FFF0
FFF0
FFF0
FFF0
ENDCHAR
STARTCHAR H22073
ENCODING 9633
SWIDTH 1000 0
SWIDTH1 1000 0
BBX 12 12 1 0
BITMAP
FFF0
8010
8010
8010
8010
8010
8010
8010
8010
8010
8010
FFF0
ENDCHAR
STARTCHAR triagup
ENCODING 9650
SWIDTH 1000 0
SWIDTH1 1000 0
BBX 13 12 1 0
BITMAP
0200
0200
0700
0700
0F80
0F80
1FC0
1FC0
3FE0
3FE0
7FF0
FFF8
ENDCHAR
STARTCHAR uni25B3
ENCODING 9651
SWIDTH 1000 0
SWIDTH1 1000 0
BBX 13 12 1 0
BITMAP
0200
0200
0500
0500
0880
0880
1040
1040
2020
2020
4010
FFF8
ENDCHAR
STARTCHAR triagdn
ENCODING 9660
SWIDTH 1000 0
SWIDTH1 1000 0
BBX 6 8 1 0
BITMAP
38
44
80
80
80
80
44
38
ENDCHAR
STARTCHAR uni25BD
ENCODING 9661
SWIDTH 1000 0
SWIDTH1 1000 0
BBX 11 10 2 1
BITMAP
FFE0
4040
4040
2080
2080
1100
1100
0A00
0400
0400
ENDCHAR
STARTCHAR uni25C6
ENCODING 9670
SWIDTH 1000 0
SWIDTH1 1000 0
BBX 12 12 1 0
BITMAP
0600
0F00
1F80
3FC0
7FE0
FFF0
FFF0
7FE0
3FC0
1F80
0F00
0600
ENDCHAR
STARTCHAR uni25C7
ENCODING 9671
SWIDTH 1000 0
SWIDTH1 1000 0
BBX 12 12 1 0
BITMAP
0600
0900
1080
2040
4020
8010
8010
4020
2040
1080
0900
0600
ENDCHAR
STARTCHAR circle
ENCODING 9675
SWIDTH 1000 0
SWIDTH1 1000 0
BBX 12 12 1 0
BITMAP
1F80
2040
4020
8010
8010
8010
8010
8010
8010
4020
2040
1F80
ENDCHAR
STARTCHAR uni25CE
ENCODING 9678
SWIDTH 1000 0
SWIDTH1 1000 0
BBX 12 12 1 0
BITMAP
1F80
2040
4F20
9090
A050
A050
A050
A050
9090
4F20
2040
1F80
ENDCHAR
STARTCHAR H18533
ENCODING 9679
SWIDTH 1000 0
SWIDTH1 1000 0
BBX 12 12 1 0
BITMAP
1F80
3FC0
7FE0
FFF0
FFF0
FFF0
FFF0
FFF0
FFF0
7FE0
3FC0
1F80
ENDCHAR
STARTCHAR uni25E2
ENCODING 9698
SWIDTH 1000 0
SWIDTH1 1000 0
BBX 14 14 1 -2
BITMAP
0004
000C
001C
003C
007C
00FC
01FC
03FC
07FC
0FFC
1FFC
3FFC
7FFC
FFFC
ENDCHAR
STARTCHAR uni25E3
ENCODING 9699
SWIDTH 1000 0
SWIDTH1 1000 0
BBX 14 14 0 -2
BITMAP
8000
C000
E000
F000
F800
FC00
FE00
FF00
FF80
FFC0
FFE0
FFF0
FFF8
FFFC
ENDCHAR
STARTCHAR uni25E4
ENCODING 9700
SWIDTH 1000 0
SWIDTH1 1000 0
BBX 15 15 0 -2
BITMAP
FFFE
FFFC
FFF8
FFF0
FFE0
FFC0
FF80
FF00
FE00
FC00
F800
F000
E000
C000
8000
ENDCHAR
STARTCHAR uni25E5
ENCODING 9701
SWIDTH 1000 0
SWIDTH1 1000 0
BBX 15 15 0 -2
BITMAP
FFFE
7FFE
3FFE
1FFE
0FFE
07FE
03FE
01FE
00FE
007E
003E
001E
000E
0006
0002
ENDCHAR
STARTCHAR uni2605
ENCODING 9733
SWIDTH 1000 0
SWIDTH1 1000 0
BBX 12 12 1 0
BITMAP
0200
0200
0600
0700
FFF0
7FE0
3FC0
1F80
1F80
19C0
30C0
2040
ENDCHAR
STARTCHAR uni2606
ENCODING 9734
SWIDTH 1000 0
SWIDTH1 1000 0
BBX 12 13 1 0
BITMAP
0200
0200
0200
0500
0500
F9F0
4020
2040
1080
1080
1640
39C0
2060
ENDCHAR
STARTCHAR uni2609
ENCODING 9737
SWIDTH 1000 0
SWIDTH1 1000 0
BBX 8 8 3 2
BITMAP
3C
42
81
99
99
81
42
3C
ENDCHAR
STARTCHAR female
ENCODING 9792
SWIDTH 1000 0
SWIDTH1 1000 0
BBX 9 12 3 0
BITMAP
1C00
2200
2200
2200
2200
1C00
0800
FF80
0800
0800
0800
0800
ENDCHAR
STARTCHAR male
ENCODING 9794
SWIDTH 1000 0
SWIDTH1 1000 0
BBX 5 13 5 0
BITMAP
20
20
70
70
A8
20
20
70
88
88
88
88
70
ENDCHAR
STARTCHAR uni2E81
ENCODING 11905
SWIDTH 1000 0
SWIDTH1 1000 0
BBX 12 14 1 -1
BITMAP
00F0
3F00
2000
2000
2000
2000
2000
2000
2000
2000
2000
4000
4000
8000
ENDCHAR
STARTCHAR uni2E84
ENCODING 11908
SWIDTH 1000 0
SWIDTH1 1000 0
BBX 12 13 2 -1
BITMAP
FF80
0080
0080
0080
0080
0080
0080
0080
0080
0040
0050
0030
0010
ENDCHAR
STARTCHAR uni2E88
ENCODING 11912
SWIDTH 1000 0
SWIDTH1 1000 0
BBX 11 5 1 8
BITMAP
1000
1FE0
2040
4080
8000
ENDCHAR
STARTCHAR uni2E8B
ENCODING 11915
SWIDTH 1000 0
SWIDTH1 1000 0
BBX 12 13 2 -1
BITMAP
FF80
8080
8080
8080
8080
8080
8080
8300
8000
8010
8010
8010
7FF0
ENDCHAR
STARTCHAR uni2E8C
ENCODING 11916
SWIDTH 1000 0
SWIDTH1 1000 0
BBX 11 5 2 8
BITMAP
0400
8420
4440
2480
0400
ENDCHAR
STARTCHAR uni2E97
ENCODING 11927
SWIDTH 1000 0
SWIDTH1 1000 0
BBX 13 14 1 -1
BITMAP
0800
0800
0800
0840
2A20
2920
4910
4890
8888
8888
0800
0800
0800
3800
ENDCHAR
STARTCHAR uni2EA7
ENCODING 11943
SWIDTH 1000 0
SWIDTH1 1000 0
BBX 13 6 1 7
BITMAP
0200
2200
3FE0
4200
0200
FFF8
ENDCHAR
STARTCHAR uni2EAA
ENCODING 11946
SWIDTH 1000 0
SWIDTH1 1000 0
BBX 6 12 1 0
BITMAP
7C
04
08
10
50
5C
50
50
50
50
5C
E0
ENDCHAR
STARTCHAR uni2EAE
ENCODING 11950
SWIDTH 1000 0
SWIDTH1 1000 0
BBX 13 6 1 7
BITMAP
2080
2080
3EF8
5120
4A10
8010
ENDCHAR
STARTCHAR uni2EB3
ENCODING 11955
SWIDTH 1000 0
SWIDTH1 1000 0
BBX 13 6 1 6
BITMAP
FFF8
8008
8008
0880
1040
2020
ENDCHAR
STARTCHAR uni2EB6
ENCODING 11958
SWIDTH 1000 0
SWIDTH1 1000 0
BBX 13 10 1 3
BITMAP
1040
0880
7FF0
0200
3FE0
0400
FFF8
1000
2000
C000
ENDCHAR
STARTCHAR uni2EB7
ENCODING 11959
SWIDTH 1000 0
SWIDTH1 1000 0
BBX 13 10 1 3
BITMAP
1040
0840
0880
7FF0
0200
0200
3FE0
0200
0200
FFF8
ENDCHAR
STARTCHAR uni2EBB
ENCODING 11963
SWIDTH 1000 0
SWIDTH1 1000 0
BBX 13 8 1 5
BITMAP
0200
3FE0
0220
FFF8
0220
3FE0
0200
FFF8
ENDCHAR
STARTCHAR uni2ECA
ENCODING 11978
SWIDTH 1000 0
SWIDTH1 1000 0
BBX 6 12 1 0
BITMAP
78
48
48
48
78
10
50
5C
50
50
5C
E0
ENDCHAR
STARTCHAR uni2FF0
ENCODING 12272
SWIDTH 1000 0
SWIDTH1 1000 0
BBX 13 13 1 0
BITMAP
AAA8
0000
8208
0000
8208
0000
8208
0000
8208
0000
8208
0000
AAA8
ENDCHAR
STARTCHAR uni2FF1
ENCODING 12273
SWIDTH 1000 0
SWIDTH1 1000 0
BBX 13 13 1 0
BITMAP
AAA8
0000
8008
0000
8008
0000
AAA8
0000
8008
0000
8008
0000
AAA8
ENDCHAR
STARTCHAR uni2FF2
ENCODING 12274
SWIDTH 1000 0
SWIDTH1 1000 0
BBX 13 13 1 0
BITMAP
AAA8
0000
8888
0000
8888
0000
8888
0000
8888
0000
8888
0000
AAA8
ENDCHAR
STARTCHAR uni2FF3
ENCODING 12275
SWIDTH 1000 0
SWIDTH1 1000 0
BBX 13 13 1 0
BITMAP
AAA8
0000
8008
0000
AAA8
0000
8008
0000
AAA8
0000
8008
0000
AAA8
ENDCHAR
STARTCHAR uni2FF4
ENCODING 12276
SWIDTH 1000 0
SWIDTH1 1000 0
BBX 13 13 1 0
BITMAP
AAA8
0000
8008
0A80
8008
0880
8008
0880
8008
0A80
8008
0000
AAA8
ENDCHAR
STARTCHAR uni2FF5
ENCODING 12277
SWIDTH 1000 0
SWIDTH1 1000 0
BBX 13 13 1 0
BITMAP
AAA8
0000
8008
0000
8A88
0000
8888
0000
8888
0000
8888
0000
AAA8
ENDCHAR
STARTCHAR uni2FF6
ENCODING 12278
SWIDTH 1000 0
SWIDTH1 1000 0
BBX 13 13 1 0
BITMAP
AAA8
0000
8888
0000
8888
0000
8888
0000
8A88
0000
8008
0000
AAA8
ENDCHAR
STARTCHAR uni2FF7
ENCODING 12279
SWIDTH 1000 0
SWIDTH1 1000 0
BBX 13 13 1 0
BITMAP
AAA8
0000
8008
0000
8AA8
0000
8808
0000
8AA8
0000
8008
0000
AAA8
ENDCHAR
STARTCHAR uni2FF8
ENCODING 12280
SWIDTH 1000 0
SWIDTH1 1000 0
BBX 13 13 1 0
BITMAP
AAA8
0000
8008
0000
8008
0000
82A8
0000
8208
0000
8208
0000
AAA8
ENDCHAR
STARTCHAR uni2FF9
ENCODING 12281
SWIDTH 1000 0
SWIDTH1 1000 0
BBX 13 13 1 0
BITMAP
AAA8
0000
8008
0000
8008
0000
AA08
0000
8208
0000
8208
0000
AAA8
ENDCHAR
STARTCHAR uni2FFA
ENCODING 12282
SWIDTH 1000 0
SWIDTH1 1000 0
BBX 13 13 1 0
BITMAP
AAA8
0000
8208
0000
8208
0000
82A8
0000
8008
0000
8008
0000
AAA8
ENDCHAR
STARTCHAR uni2FFB
ENCODING 12283
SWIDTH 1000 0
SWIDTH1 1000 0
BBX 13 13 1 0
BITMAP
AA80
0000
8080
0000
8AA8
0000
8888
0000
AA88
0000
0808
0000
0AA8
ENDCHAR
STARTCHAR uni3000
ENCODING 12288
SWIDTH 1000 0
SWIDTH1 1000 0
BBX 1 1 14 -2
BITMAP
00
ENDCHAR
STARTCHAR uni3001
ENCODING 12289
SWIDTH 1000 0
SWIDTH1 1000 0
BBX 3 4 1 -1
BITMAP
80
40
60
20
ENDCHAR
STARTCHAR uni3002
ENCODING 12290
SWIDTH 1000 0
SWIDTH1 1000 0
BBX 4 4 1 -1
BITMAP
60
90
90
60
ENDCHAR
STARTCHAR uni3003
ENCODING 12291
SWIDTH 1000 0
SWIDTH1 1000 0
BBX 4 5 5 3
BITMAP
50
50
50
A0
A0
ENDCHAR
STARTCHAR uni3005
ENCODING 12293
SWIDTH 1000 0
SWIDTH1 1000 0
BBX 8 11 3 1
BITMAP
10
10
27
39
42
82
04
14
08
04
04
ENDCHAR
STARTCHAR uni3006
ENCODING 12294
SWIDTH 1000 0
SWIDTH1 1000 0
BBX 9 11 2 1
BITMAP
0100
0080
0100
3A00
4400
8600
8A00
9000
A000
C000
8000
ENDCHAR
STARTCHAR uni3007
ENCODING 12295
SWIDTH 1000 0
SWIDTH1 1000 0
BBX 12 12 1 0
BITMAP
0F00
30C0
4020
4020
8010
8010
8010
8010
4020
4020
30C0
0F00
ENDCHAR
STARTCHAR uni3008
ENCODING 12296
SWIDTH 1000 0
SWIDTH1 1000 0
BBX 4 14 9 -1
BITMAP
10
10
20
20
40
40
80
80
40
40
20
20
10
10
ENDCHAR
STARTCHAR uni3009
ENCODING 12297
SWIDTH 1000 0
SWIDTH1 1000 0
BBX 4 14 1 -1
BITMAP
80
80
40
40
20
20
10
10
20
20
40
40
80
80
ENDCHAR
STARTCHAR uni300A
ENCODING 12298
SWIDTH 1000 0
SWIDTH1 1000 0
BBX 6 14 7 -1
BITMAP
14
14
28
28
50
50
A0
A0
50
50
28
28
14
14
ENDCHAR
STARTCHAR uni300B
ENCODING 12299
SWIDTH 1000 0
SWIDTH1 1000 0
BBX 6 14 1 -1
BITMAP
A0
A0
50
50
28
28
14
14
28
28
50
50
A0
A0
ENDCHAR
STARTCHAR uni300C
ENCODING 12300
SWIDTH 1000 0
SWIDTH1 1000 0
BBX 4 14 8 -1
BITMAP
F0
80
80
80
80
80
80
80
80
80
80
80
80
80
ENDCHAR
STARTCHAR uni300D
ENCODING 12301
SWIDTH 1000 0
SWIDTH1 1000 0
BBX 4 14 1 -1
BITMAP
10
10
10
10
10
10
10
10
10
10
10
10
10
F0
ENDCHAR
STARTCHAR uni300E
ENCODING 12302
SWIDTH 1000 0
SWIDTH1 1000 0
BBX 5 14 8 -1
BITMAP
F8
88
B8
A0
A0
A0
A0
A0
A0
A0
A0
A0
A0
E0
ENDCHAR
STARTCHAR uni300F
ENCODING 12303
SWIDTH 1000 0
SWIDTH1 1000 0
BBX 5 14 1 -1
BITMAP
38
28
28
28
28
28
28
28
28
28
28
E8
88
F8
ENDCHAR
STARTCHAR uni3010
ENCODING 12304
SWIDTH 1000 0
SWIDTH1 1000 0
BBX 5 14 7 -1
BITMAP
F8
F0
E0
E0
C0
C0
C0
C0
C0
C0
E0
E0
F0
F8
ENDCHAR
STARTCHAR uni3011
ENCODING 12305
SWIDTH 1000 0
SWIDTH1 1000 0
BBX 5 14 2 -1
BITMAP
F8
78
38
38
18
18
18
18
18
18
38
38
78
F8
ENDCHAR
STARTCHAR uni3012
ENCODING 12306
SWIDTH 1000 0
SWIDTH1 1000 0
BBX 12 11 1 0
BITMAP
FFF0
0000
0000
FFF0
0600
0600
0600
0600
0600
0600
0600
ENDCHAR
STARTCHAR uni3013
ENCODING 12307
SWIDTH 1000 0
SWIDTH1 1000 0
BBX 14 12 0 0
BITMAP
FFFC
FFFC
FFFC
FFFC
0000
0000
0000
0000
FFFC
FFFC
FFFC
FFFC
ENDCHAR
STARTCHAR uni3014
ENCODING 12308
SWIDTH 1000 0
SWIDTH1 1000 0
BBX 3 12 9 0
BITMAP
20
40
80
80
80
80
80
80
80
80
40
20
ENDCHAR
STARTCHAR uni3015
ENCODING 12309
SWIDTH 1000 0
SWIDTH1 1000 0
BBX 3 12 2 0
BITMAP
80
40
20
20
20
20
20
20
20
20
40
80
ENDCHAR
STARTCHAR uni3016
ENCODING 12310
SWIDTH 1000 0
SWIDTH1 1000 0
BBX 6 14 7 -1
BITMAP
FC
88
90
90
A0
A0
A0
A0
A0
A0
90
90
88
FC
ENDCHAR
STARTCHAR uni3017
ENCODING 12311
SWIDTH 1000 0
SWIDTH1 1000 0
BBX 6 14 1 -1
BITMAP
FC
44
24
24
14
14
14
14
14
14
24
24
44
FC
ENDCHAR
STARTCHAR uni301D
ENCODING 12317
SWIDTH 1000 0
SWIDTH1 1000 0
BBX 4 4 8 9
BITMAP
A0
A0
50
50
ENDCHAR
STARTCHAR uni301E
ENCODING 12318
SWIDTH 1000 0
SWIDTH1 1000 0
BBX 4 4 1 8
BITMAP
50
50
A0
A0
ENDCHAR
STARTCHAR uni3021
ENCODING 12321
SWIDTH 1000 0
SWIDTH1 1000 0
BBX 2 12 6 1
BITMAP
C0
80
80
80
80
80
80
80
80
80
80
80
ENDCHAR
STARTCHAR uni3022
ENCODING 12322
SWIDTH 1000 0
SWIDTH1 1000 0
BBX 6 12 4 0
BITMAP
04
84
84
84
84
84
84
84
84
84
04
04
ENDCHAR
STARTCHAR uni3023
ENCODING 12323
SWIDTH 1000 0
SWIDTH1 1000 0
BBX 10 14 2 -1
BITMAP
0040
8040
8840
8840
8840
8840
8840
8840
8840
8840
8840
8840
8840
8040
ENDCHAR
STARTCHAR uni3024
ENCODING 12324
SWIDTH 1000 0
SWIDTH1 1000 0
BBX 9 10 2 3
BITMAP
0100
0100
C100
3200
0A00
0400
0A00
1100
2080
C000
ENDCHAR
STARTCHAR uni3025
ENCODING 12325
SWIDTH 1000 0
SWIDTH1 1000 0
BBX 8 13 2 0
BITMAP
10
11
21
42
FC
12
21
21
41
41
41
22
1C
ENDCHAR
STARTCHAR uni3026
ENCODING 12326
SWIDTH 1000 0
SWIDTH1 1000 0
BBX 14 5 0 6
BITMAP
0200
0200
0200
0200
FFFC
ENDCHAR
STARTCHAR uni3027
ENCODING 12327
SWIDTH 1000 0
SWIDTH1 1000 0
BBX 12 9 1 3
BITMAP
0400
0400
0400
0400
FFF0
0000
0000
0000
FFF0
ENDCHAR
STARTCHAR uni3028
ENCODING 12328
SWIDTH 1000 0
SWIDTH1 1000 0
BBX 13 11 0 2
BITMAP
0200
0200
0200
FFF8
0000
0000
0000
3FF0
0000
0000
FFF8
ENDCHAR
STARTCHAR uni3029
ENCODING 12329
SWIDTH 1000 0
SWIDTH1 1000 0
BBX 11 14 1 -1
BITMAP
2000
2000
3FE0
4080
6080
9080
0900
0500
0200
0500
0880
1040
2040
C000
ENDCHAR
STARTCHAR uni303E
ENCODING 12350
SWIDTH 1000 0
SWIDTH1 1000 0
BBX 13 13 1 0
BITMAP
AAA8
0000
8C28
1240
A188
0000
8088
3FE0
8208
3FE0
8808
0000
AAA8
ENDCHAR
STARTCHAR uni3041
ENCODING 12353
SWIDTH 1000 0
SWIDTH1 1000 0
BBX 9 9 3 -1
BITMAP
1000
7E00
1000
3E00
5500
9480
9880
7100
0600
ENDCHAR
STARTCHAR uni3042
ENCODING 12354
SWIDTH 1000 0
SWIDTH1 1000 0
BBX 11 13 2 -1
BITMAP
0800
0800
FFC0
0800
0900
1F80
2940
4A20
8A20
8A20
8C20
7040
0180
ENDCHAR
STARTCHAR uni3043
ENCODING 12355
SWIDTH 1000 0
SWIDTH1 1000 0
BBX 9 8 3 -1
BITMAP
8000
8100
8100
8080
8080
9080
5000
2000
ENDCHAR
STARTCHAR uni3044
ENCODING 12356
SWIDTH 1000 0
SWIDTH1 1000 0
BBX 11 11 2 0
BITMAP
8000
8000
8080
8040
8040
8020
8020
8020
5020
5000
2000
ENDCHAR
STARTCHAR uni3045
ENCODING 12357
SWIDTH 1000 0
SWIDTH1 1000 0
BBX 7 9 4 -1
BITMAP
7C
00
1C
E2
02
02
04
08
30
ENDCHAR
STARTCHAR uni3046
ENCODING 12358
SWIDTH 1000 0
SWIDTH1 1000 0
BBX 9 13 3 -1
BITMAP
7000
0E00
0000
0000
0E00
F100
0080
0080
0080
0100
0100
0600
3800
ENDCHAR
STARTCHAR uni3047
ENCODING 12359
SWIDTH 1000 0
SWIDTH1 1000 0
BBX 8 8 4 -1
BITMAP
3C
00
7C
08
10
28
48
87
ENDCHAR
STARTCHAR uni3048
ENCODING 12360
SWIDTH 1000 0
SWIDTH1 1000 0
BBX 12 11 2 0
BITMAP
3E00
0000
0000
7F00
0200
0400
0E00
1100
2100
4100
80F0
ENDCHAR
STARTCHAR uni3049
ENCODING 12361
SWIDTH 1000 0
SWIDTH1 1000 0
BBX 10 10 3 -1
BITMAP
2000
2000
FC80
2040
3E00
6100
A080
A080
A100
4600
ENDCHAR
STARTCHAR uni304A
ENCODING 12362
SWIDTH 1000 0
SWIDTH1 1000 0
BBX 11 12 2 0
BITMAP
1000
1000
7E40
1020
1000
1F80
3040
5020
9020
9020
9040
6380
ENDCHAR
STARTCHAR uni304B
ENCODING 12363
SWIDTH 1000 0
SWIDTH1 1000 0
BBX 13 12 1 0
BITMAP
1000
1000
1000
1E20
F110
2108
2108
4108
4100
4200
9200
8C00
ENDCHAR
STARTCHAR uni304C
ENCODING 12364
SWIDTH 1000 0
SWIDTH1 1000 0
BBX 13 12 1 0
BITMAP
1050
1050
1000
1E20
F110
2108
2108
4108
4100
4200
9200
8C00
ENDCHAR
STARTCHAR uni304D
ENCODING 12365
SWIDTH 1000 0
SWIDTH1 1000 0
BBX 11 12 2 0
BITMAP
0400
04C0
FF00
0260
FF80
0100
3F00
4180
8080
8000
4000
3F00
ENDCHAR
STARTCHAR uni304E
ENCODING 12366
SWIDTH 1000 0
SWIDTH1 1000 0
BBX 11 12 2 0
BITMAP
04A0
04A0
FF00
0240
FF80
0100
3F00
4180
8080
8000
4000
3F00
ENDCHAR
STARTCHAR uni304F
ENCODING 12367
SWIDTH 1000 0
SWIDTH1 1000 0
BBX 7 12 3 -1
BITMAP
04
08
10
20
40
80
80
60
10
08
04
02
ENDCHAR
STARTCHAR uni3050
ENCODING 12368
SWIDTH 1000 0
SWIDTH1 1000 0
BBX 10 12 3 -1
BITMAP
0400
0800
1140
2140
4000
8000
8000
6000
1000
0800
0400
0200
ENDCHAR
STARTCHAR uni3051
ENCODING 12369
SWIDTH 1000 0
SWIDTH1 1000 0
BBX 12 12 2 -1
BITMAP
0080
8080
8080
8FF0
8080
8080
8080
8080
8080
8080
8100
0600
ENDCHAR
STARTCHAR uni3052
ENCODING 12370
SWIDTH 1000 0
SWIDTH1 1000 0
BBX 12 13 2 -1
BITMAP
0050
0050
8080
8080
8FF0
8080
8080
8080
8080
8080
8080
8100
0600
ENDCHAR
STARTCHAR uni3053
ENCODING 12371
SWIDTH 1000 0
SWIDTH1 1000 0
BBX 9 10 3 0
BITMAP
7F00
0000
0000
0000
0000
0000
8000
8000
8000
7F80
ENDCHAR
STARTCHAR uni3054
ENCODING 12372
SWIDTH 1000 0
SWIDTH1 1000 0
BBX 10 12 3 0
BITMAP
0140
0140
7E00
0000
0000
0000
0000
0000
8000
8000
8000
7F80
ENDCHAR
STARTCHAR uni3055
ENCODING 12373
SWIDTH 1000 0
SWIDTH1 1000 0
BBX 10 12 3 0
BITMAP
0400
0400
FFC0
0200
0200
0100
3F00
4180
8080
8000
4000
3E00
ENDCHAR
STARTCHAR uni3056
ENCODING 12374
SWIDTH 1000 0
SWIDTH1 1000 0
BBX 10 12 3 0
BITMAP
0540
0540
0400
FFC0
0200
0100
3F00
4180
8080
8000
4000
3E00
ENDCHAR
STARTCHAR uni3057
ENCODING 12375
SWIDTH 1000 0
SWIDTH1 1000 0
BBX 9 11 3 0
BITMAP
8000
8000
8000
8000
8000
8000
8080
8080
8100
4200
3C00
ENDCHAR
STARTCHAR uni3058
ENCODING 12376
SWIDTH 1000 0
SWIDTH1 1000 0
BBX 9 11 3 0
BITMAP
8500
8500
8000
8000
8000
8000
8080
8080
8100
4200
3C00
ENDCHAR
STARTCHAR uni3059
ENCODING 12377
SWIDTH 1000 0
SWIDTH1 1000 0
BBX 12 13 1 -1
BITMAP
0100
0100
FFF0
0100
0100
0F00
1100
1100
1300
0D00
0100
0200
0C00
ENDCHAR
STARTCHAR uni305A
ENCODING 12378
SWIDTH 1000 0
SWIDTH1 1000 0
BBX 13 13 1 -1
BITMAP
0128
0128
FFF0
0100
0100
0F00
1100
1100
1300
0D00
0100
0200
0C00
ENDCHAR
STARTCHAR uni305B
ENCODING 12379
SWIDTH 1000 0
SWIDTH1 1000 0
BBX 13 11 1 0
BITMAP
1040
1040
1040
FFF8
1040
1040
1380
1000
1000
1000
0FE0
ENDCHAR
STARTCHAR uni305C
ENCODING 12380
SWIDTH 1000 0
SWIDTH1 1000 0
BBX 13 12 1 0
BITMAP
0028
1028
1040
1040
FFF8
1040
1040
1380
1000
1000
1000
0FE0
ENDCHAR
STARTCHAR uni305D
ENCODING 12381
SWIDTH 1000 0
SWIDTH1 1000 0
BBX 11 11 2 0
BITMAP
3F80
0100
0600
0800
FFE0
0400
0800
0800
0800
0400
0380
ENDCHAR
STARTCHAR uni305E
ENCODING 12382
SWIDTH 1000 0
SWIDTH1 1000 0
BBX 12 12 2 0
BITMAP
0050
3F50
0100
0600
0800
FFE0
0400
0800
0800
0800
0400
0380
ENDCHAR
STARTCHAR uni305F
ENCODING 12383
SWIDTH 1000 0
SWIDTH1 1000 0
BBX 12 12 2 0
BITMAP
1000
1000
FC00
1000
2000
23E0
2000
4000
4400
4400
8400
83F0
ENDCHAR
STARTCHAR uni3060
ENCODING 12384
SWIDTH 1000 0
SWIDTH1 1000 0
BBX 12 12 2 0
BITMAP
10A0
10A0
FC00
1000
2000
23E0
2000
4000
4400
4400
8400
83F0
ENDCHAR
STARTCHAR uni3061
ENCODING 12385
SWIDTH 1000 0
SWIDTH1 1000 0
BBX 10 12 2 0
BITMAP
1000
1000
FF80
1000
2000
2F00
7080
4040
0040
0040
0180
1E00
ENDCHAR
STARTCHAR uni3062
ENCODING 12386
SWIDTH 1000 0
SWIDTH1 1000 0
BBX 11 12 2 0
BITMAP
10A0
10A0
FF00
1000
2000
2F00
7080
4040
0040
0040
0180
1E00
ENDCHAR
STARTCHAR uni3063
ENCODING 12387
SWIDTH 1000 0
SWIDTH1 1000 0
BBX 8 6 3 0
BITMAP
1E
E1
01
01
02
1C
ENDCHAR
STARTCHAR uni3064
ENCODING 12388
SWIDTH 1000 0
SWIDTH1 1000 0
BBX 12 9 2 1
BITMAP
0FC0
F020
0010
0010
0010
0010
0020
00C0
0F00
ENDCHAR
STARTCHAR uni3065
ENCODING 12389
SWIDTH 1000 0
SWIDTH1 1000 0
BBX 12 11 2 1
BITMAP
0050
0050
0F80
F060
0010
0010
0010
0010
0020
00C0
0F00
ENDCHAR
STARTCHAR uni3066
ENCODING 12390
SWIDTH 1000 0
SWIDTH1 1000 0
BBX 12 11 2 0
BITMAP
0FF0
F100
0200
0400
0800
0800
0800
0800
0800
0400
0380
ENDCHAR
STARTCHAR uni3067
ENCODING 12391
SWIDTH 1000 0
SWIDTH1 1000 0
BBX 12 11 2 0
BITMAP
0FF0
F100
0210
0450
0840
0800
0800
0800
0800
0400
0380
ENDCHAR
STARTCHAR uni3068
ENCODING 12392
SWIDTH 1000 0
SWIDTH1 1000 0
BBX 9 12 3 0
BITMAP
2000
2000
2000
1180
1600
1800
2000
4000
8000
8000
8000
7F80
ENDCHAR
STARTCHAR uni3069
ENCODING 12393
SWIDTH 1000 0
SWIDTH1 1000 0
BBX 10 12 3 0
BITMAP
2140
2140
2000
1180
1600
1800
2000
4000
8000
8000
8000
7F80
ENDCHAR
STARTCHAR uni306A
ENCODING 12394
SWIDTH 1000 0
SWIDTH1 1000 0
BBX 12 12 2 0
BITMAP
1000
1000
FCC0
2030
2000
4080
4080
8080
8780
08C0
08A0
0700
ENDCHAR
STARTCHAR uni306B
ENCODING 12395
SWIDTH 1000 0
SWIDTH1 1000 0
BBX 11 11 2 0
BITMAP
8000
87E0
8000
8000
8000
8000
8400
8400
8400
83E0
8000
ENDCHAR
STARTCHAR uni306C
ENCODING 12396
SWIDTH 1000 0
SWIDTH1 1000 0
BBX 12 12 1 0
BITMAP
0200
4200
47C0
5A20
2210
5410
5410
8810
8810
94D0
6120
00D0
ENDCHAR
STARTCHAR uni306D
ENCODING 12397
SWIDTH 1000 0
SWIDTH1 1000 0
BBX 11 12 2 0
BITMAP
2000
2000
F380
2C40
3020
2020
6020
6020
A020
A3A0
2440
23A0
ENDCHAR
STARTCHAR uni306E
ENCODING 12398
SWIDTH 1000 0
SWIDTH1 1000 0
BBX 12 11 1 0
BITMAP
1F80
2440
4420
8410
8410
8410
8410
8810
4820
3040
0380
ENDCHAR
STARTCHAR uni306F
ENCODING 12399
SWIDTH 1000 0
SWIDTH1 1000 0
BBX 11 11 2 0
BITMAP
8080
8080
8FE0
8080
8080
8080
8080
8780
88C0
88A0
8700
ENDCHAR
STARTCHAR uni3070
ENCODING 12400
SWIDTH 1000 0
SWIDTH1 1000 0
BBX 12 12 2 0
BITMAP
0050
8050
8080
8080
8FE0
8080
8080
8080
8780
88C0
88A0
8700
ENDCHAR
STARTCHAR uni3071
ENCODING 12401
SWIDTH 1000 0
SWIDTH1 1000 0
BBX 12 12 2 0
BITMAP
0020
8050
80A0
8080
8FF0
8080
8080
8080
8780
88C0
88A0
8700
ENDCHAR
STARTCHAR uni3072
ENCODING 12402
SWIDTH 1000 0
SWIDTH1 1000 0
BBX 12 11 2 0
BITMAP
F880
1080
20C0
40C0
40A0
8090
8080
8080
8100
4300
3C00
ENDCHAR
STARTCHAR uni3073
ENCODING 12403
SWIDTH 1000 0
SWIDTH1 1000 0
BBX 12 12 2 0
BITMAP
00A0
F8A0
1000
2080
40C0
40A0
8090
8080
8080
8100
4300
3C00
ENDCHAR
STARTCHAR uni3074
ENCODING 12404
SWIDTH 1000 0
SWIDTH1 1000 0
BBX 12 12 2 0
BITMAP
0040
F8A0
1040
2000
4080
40C0
80A0
8090
8080
8100
4300
3C00
ENDCHAR
STARTCHAR uni3075
ENCODING 12405
SWIDTH 1000 0
SWIDTH1 1000 0
BBX 13 11 1 0
BITMAP
0E00
0180
0000
0400
0400
2420
2210
4108
8088
1080
0F00
ENDCHAR
STARTCHAR uni3076
ENCODING 12406
SWIDTH 1000 0
SWIDTH1 1000 0
BBX 13 11 1 0
BITMAP
0C00
0350
0050
0400
0400
2420
2210
4108
8088
1080
0F00
ENDCHAR
STARTCHAR uni3077
ENCODING 12407
SWIDTH 1000 0
SWIDTH1 1000 0
BBX 13 11 1 0
BITMAP
0C20
0350
0020
0400
0400
2420
2210
4108
8088
1080
0F00
ENDCHAR
STARTCHAR uni3078
ENCODING 12408
SWIDTH 1000 0
SWIDTH1 1000 0
BBX 13 8 1 1
BITMAP
0C00
1200
2100
4080
8040
0020
0010
0008
ENDCHAR
STARTCHAR uni3079
ENCODING 12409
SWIDTH 1000 0
SWIDTH1 1000 0
BBX 13 9 1 1
BITMAP
0050
0C50
1200
2100
4080
8040
0020
0010
0008
ENDCHAR
STARTCHAR uni307A
ENCODING 12410
SWIDTH 1000 0
SWIDTH1 1000 0
BBX 13 10 1 1
BITMAP
0020
0050
0C20
1200
2100
4080
8040
0020
0010
0008
ENDCHAR
STARTCHAR uni307B
ENCODING 12411
SWIDTH 1000 0
SWIDTH1 1000 0
BBX 11 11 2 0
BITMAP
8FE0
8080
8080
8FE0
8080
8080
8080
8780
88C0
88A0
8700
ENDCHAR
STARTCHAR uni307C
ENCODING 12412
SWIDTH 1000 0
SWIDTH1 1000 0
BBX 12 12 2 0
BITMAP
0050
8050
8000
8FE0
8080
8FE0
8080
8080
8780
88C0
88A0
8700
ENDCHAR
STARTCHAR uni307D
ENCODING 12413
SWIDTH 1000 0
SWIDTH1 1000 0
BBX 12 12 2 0
BITMAP
0020
8050
8020
8FE0
8080
8FE0
8080
8080
8780
88C0
88A0
8700
ENDCHAR
STARTCHAR uni307E
ENCODING 12414
SWIDTH 1000 0
SWIDTH1 1000 0
BBX 10 12 3 0
BITMAP
0400
0400
FFC0
0400
0400
7F80
0400
0400
7C00
8600
8580
7840
ENDCHAR
STARTCHAR uni307F
ENCODING 12415
SWIDTH 1000 0
SWIDTH1 1000 0
BBX 13 11 1 -1
BITMAP
3E00
0200
0220
0420
3F20
48E0
9030
9048
A040
4080
0300
ENDCHAR
STARTCHAR uni3080
ENCODING 12416
SWIDTH 1000 0
SWIDTH1 1000 0
BBX 12 12 2 0
BITMAP
1000
1000
FC20
1010
7000
9000
9000
A000
6000
2020
2020
1FC0
ENDCHAR
STARTCHAR uni3081
ENCODING 12417
SWIDTH 1000 0
SWIDTH1 1000 0
BBX 12 12 2 0
BITMAP
0200
2200
2F80
3260
6220
A210
9410
9410
8810
9420
60C0
0300
ENDCHAR
STARTCHAR uni3082
ENCODING 12418
SWIDTH 1000 0
SWIDTH1 1000 0
BBX 10 12 2 0
BITMAP
0800
4800
3E00
1000
1000
9080
7E40
1040
1040
1040
0880
0700
ENDCHAR
STARTCHAR uni3083
ENCODING 12419
SWIDTH 1000 0
SWIDTH1 1000 0
BBX 9 9 3 -1
BITMAP
0400
4400
4F00
F080
2080
2080
1700
1000
1000
ENDCHAR
STARTCHAR uni3084
ENCODING 12420
SWIDTH 1000 0
SWIDTH1 1000 0
BBX 12 12 2 -1
BITMAP
2100
2100
27C0
3820
D010
1010
1020
11C0
0800
0800
0800
0800
ENDCHAR
STARTCHAR uni3085
ENCODING 12421
SWIDTH 1000 0
SWIDTH1 1000 0
BBX 8 9 3 -1
BITMAP
08
9E
A9
C9
89
A9
9E
08
30
ENDCHAR
STARTCHAR uni3086
ENCODING 12422
SWIDTH 1000 0
SWIDTH1 1000 0
BBX 11 12 2 0
BITMAP
0200
8200
8F80
9240
A220
C220
C220
8220
9240
8F80
0400
1800
ENDCHAR
STARTCHAR uni3087
ENCODING 12423
SWIDTH 1000 0
SWIDTH1 1000 0
BBX 8 8 3 0
BITMAP
08
08
0F
08
08
78
8E
71
ENDCHAR
STARTCHAR uni3088
ENCODING 12424
SWIDTH 1000 0
SWIDTH1 1000 0
BBX 10 11 2 0
BITMAP
0400
0400
07C0
0400
0400
0400
0400
7C00
8600
8580
7840
ENDCHAR
STARTCHAR uni3089
ENCODING 12425
SWIDTH 1000 0
SWIDTH1 1000 0
BBX 10 12 3 0
BITMAP
3800
0600
0000
4000
4000
5F00
E080
8040
0040
0040
0080
1F00
ENDCHAR
STARTCHAR uni308A
ENCODING 12426
SWIDTH 1000 0
SWIDTH1 1000 0
BBX 8 12 3 0
BITMAP
01
81
81
81
81
A1
A1
41
02
02
0C
30
ENDCHAR
STARTCHAR uni308B
ENCODING 12427
SWIDTH 1000 0
SWIDTH1 1000 0
BBX 11 11 2 0
BITMAP
3F00
0200
0400
0800
1F80
3040
4020
8C20
1220
1140
0F80
ENDCHAR
STARTCHAR uni308C
ENCODING 12428
SWIDTH 1000 0
SWIDTH1 1000 0
BBX 12 12 2 0
BITMAP
2000
2000
F380
2C40
3040
2040
6040
6040
A040
A040
2050
2020
ENDCHAR
STARTCHAR uni308D
ENCODING 12429
SWIDTH 1000 0
SWIDTH1 1000 0
BBX 10 11 3 0
BITMAP
7E00
0400
0800
1000
3F00
6080
8040
0040
0040
0080
1F00
ENDCHAR
STARTCHAR uni308E
ENCODING 12430
SWIDTH 1000 0
SWIDTH1 1000 0
BBX 9 9 3 0
BITMAP
2000
3000
EE00
3100
6080
6080
A080
2100
2600
ENDCHAR
STARTCHAR uni308F
ENCODING 12431
SWIDTH 1000 0
SWIDTH1 1000 0
BBX 11 12 2 0
BITMAP
2000
2000
F000
2780
2840
7020
6020
A020
A020
2040
2080
2300
ENDCHAR
STARTCHAR uni3090
ENCODING 12432
SWIDTH 1000 0
SWIDTH1 1000 0
BBX 11 11 2 0
BITMAP
3C00
0400
0400
0F80
3840
4820
8820
9020
9320
64C0
0380
ENDCHAR
STARTCHAR uni3091
ENCODING 12433
SWIDTH 1000 0
SWIDTH1 1000 0
BBX 12 11 2 0
BITMAP
1F00
0200
0400
0F80
1040
2C40
0F80
1000
30E0
4910
8630
ENDCHAR
STARTCHAR uni3092
ENCODING 12434
SWIDTH 1000 0
SWIDTH1 1000 0
BBX 11 12 2 0
BITMAP
0800
0980
FE00
1000
1C00
22E0
4700
8A00
1200
1000
1000
0FC0
ENDCHAR
STARTCHAR uni3093
ENCODING 12435
SWIDTH 1000 0
SWIDTH1 1000 0
BBX 12 12 1 0
BITMAP
0400
0400
0800
0800
1000
1000
3C00
2200
4210
4210
8220
81C0
ENDCHAR
STARTCHAR uni309B
ENCODING 12443
SWIDTH 1000 0
SWIDTH1 1000 0
BBX 4 3 1 9
BITMAP
20
90
40
ENDCHAR
STARTCHAR uni309C
ENCODING 12444
SWIDTH 1000 0
SWIDTH1 1000 0
BBX 3 3 1 9
BITMAP
40
A0
40
ENDCHAR
STARTCHAR uni309D
ENCODING 12445
SWIDTH 1000 0
SWIDTH1 1000 0
BBX 4 7 6 2
BITMAP
80
80
80
40
20
70
80
ENDCHAR
STARTCHAR uni309E
ENCODING 12446
SWIDTH 1000 0
SWIDTH1 1000 0
BBX 7 8 6 2
BITMAP
04
92
88
80
40
20
70
80
ENDCHAR
STARTCHAR uni30A1
ENCODING 12449
SWIDTH 1000 0
SWIDTH1 1000 0
BBX 9 9 3 -1
BITMAP
FF80
0080
0900
0A00
0800
0800
0800
1000
2000
ENDCHAR
STARTCHAR uni30A2
ENCODING 12450
SWIDTH 1000 0
SWIDTH1 1000 0
BBX 11 10 2 0
BITMAP
FFE0
0020
0040
0480
0500
0400
0400
0800
1000
6000
ENDCHAR
STARTCHAR uni30A3
ENCODING 12451
SWIDTH 1000 0
SWIDTH1 1000 0
BBX 7 9 4 -1
BITMAP
02
04
08
18
28
C8
08
08
08
ENDCHAR
STARTCHAR uni30A4
ENCODING 12452
SWIDTH 1000 0
SWIDTH1 1000 0
BBX 9 12 3 -1
BITMAP
0080
0100
0200
0400
0C00
3400
C400
0400
0400
0400
0400
0400
ENDCHAR
STARTCHAR uni30A5
ENCODING 12453
SWIDTH 1000 0
SWIDTH1 1000 0
BBX 7 10 4 -1
BITMAP
10
10
FE
82
82
82
02
04
08
30
ENDCHAR
STARTCHAR uni30A6
ENCODING 12454
SWIDTH 1000 0
SWIDTH1 1000 0
BBX 9 12 3 0
BITMAP
0800
0800
FF80
8080
8080
8080
0080
0100
0100
0200
0C00
3000
ENDCHAR
STARTCHAR uni30A7
ENCODING 12455
SWIDTH 1000 0
SWIDTH1 1000 0
BBX 9 6 3 0
BITMAP
7F00
0800
0800
0800
0800
FF80
ENDCHAR
STARTCHAR uni30A8
ENCODING 12456
SWIDTH 1000 0
SWIDTH1 1000 0
BBX 11 8 2 1
BITMAP
7FC0
0400
0400
0400
0400
0400
0400
FFE0
ENDCHAR
STARTCHAR uni30A9
ENCODING 12457
SWIDTH 1000 0
SWIDTH1 1000 0
BBX 8 9 3 -1
BITMAP
04
04
FF
0C
14
24
C4
04
18
ENDCHAR
STARTCHAR uni30AA
ENCODING 12458
SWIDTH 1000 0
SWIDTH1 1000 0
BBX 11 11 2 0
BITMAP
0100
0100
FFE0
0300
0500
0900
1100
2100
C100
0100
0600
ENDCHAR
STARTCHAR uni30AB
ENCODING 12459
SWIDTH 1000 0
SWIDTH1 1000 0
BBX 10 12 2 0
BITMAP
1000
1000
1000
FFC0
1040
1040
1040
1040
2040
2040
4040
8380
ENDCHAR
STARTCHAR uni30AC
ENCODING 12460
SWIDTH 1000 0
SWIDTH1 1000 0
BBX 11 12 2 0
BITMAP
10A0
10A0
1000
FFC0
1040
1040
1040
1040
2040
2040
4040
8380
ENDCHAR
STARTCHAR uni30AD
ENCODING 12461
SWIDTH 1000 0
SWIDTH1 1000 0
BBX 11 13 2 -1
BITMAP
0400
0400
0400
7FC0
0400
0400
0400
FFE0
0200
0200
0200
0200
0200
ENDCHAR
STARTCHAR uni30AE
ENCODING 12462
SWIDTH 1000 0
SWIDTH1 1000 0
BBX 11 13 2 -1
BITMAP
04A0
04A0
0400
7FC0
0400
0400
0400
FFE0
0200
0200
0200
0200
0200
ENDCHAR
STARTCHAR uni30AF
ENCODING 12463
SWIDTH 1000 0
SWIDTH1 1000 0
BBX 9 13 3 -1
BITMAP
1000
1000
3F80
2080
4080
4080
8080
0100
0100
0200
0400
1800
6000
ENDCHAR
STARTCHAR uni30B0
ENCODING 12464
SWIDTH 1000 0
SWIDTH1 1000 0
BBX 10 13 3 -1
BITMAP
1140
1140
2000
3F80
4080
4080
8080
0100
0100
0200
0400
1800
6000
ENDCHAR
STARTCHAR uni30B1
ENCODING 12465
SWIDTH 1000 0
SWIDTH1 1000 0
BBX 11 12 2 -1
BITMAP
1000
1000
3FE0
2100
4100
8100
0100
0100
0200
0200
0400
1800
ENDCHAR
STARTCHAR uni30B2
ENCODING 12466
SWIDTH 1000 0
SWIDTH1 1000 0
BBX 12 13 2 -1
BITMAP
0050
1050
1000
3FE0
2100
4100
8100
0100
0100
0200
0200
0400
1800
ENDCHAR
STARTCHAR uni30B3
ENCODING 12467
SWIDTH 1000 0
SWIDTH1 1000 0
BBX 9 9 3 0
BITMAP
FF80
0080
0080
0080
0080
0080
0080
FF80
0080
ENDCHAR
STARTCHAR uni30B4
ENCODING 12468
SWIDTH 1000 0
SWIDTH1 1000 0
BBX 10 12 3 0
BITMAP
0140
0140
0000
FF80
0080
0080
0080
0080
0080
0080
FF80
0080
ENDCHAR
STARTCHAR uni30B5
ENCODING 12469
SWIDTH 1000 0
SWIDTH1 1000 0
BBX 11 11 2 0
BITMAP
2080
2080
FFE0
2080
2080
2080
0080
0100
0100
0200
0C00
ENDCHAR
STARTCHAR uni30B6
ENCODING 12470
SWIDTH 1000 0
SWIDTH1 1000 0
BBX 12 12 2 0
BITMAP
0050
2050
2080
FFE0
2080
2080
2080
0080
0100
0100
0200
0C00
ENDCHAR
STARTCHAR uni30B7
ENCODING 12471
SWIDTH 1000 0
SWIDTH1 1000 0
BBX 11 10 2 0
BITMAP
6000
1000
0020
C020
2040
0080
0100
0200
0C00
7000
ENDCHAR
STARTCHAR uni30B8
ENCODING 12472
SWIDTH 1000 0
SWIDTH1 1000 0
BBX 12 11 2 0
BITMAP
0050
6050
1000
0020
C020
2040
0080
0100
0200
0C00
7000
ENDCHAR
STARTCHAR uni30B9
ENCODING 12473
SWIDTH 1000 0
SWIDTH1 1000 0
BBX 11 10 2 0
BITMAP
7F80
0080
0080
0100
0100
0200
0500
0880
3040
C020
ENDCHAR
STARTCHAR uni30BA
ENCODING 12474
SWIDTH 1000 0
SWIDTH1 1000 0
BBX 12 12 2 0
BITMAP
0050
0050
7F80
0080
0080
0100
0100
0200
0500
0880
3040
C020
ENDCHAR
STARTCHAR uni30BB
ENCODING 12475
SWIDTH 1000 0
SWIDTH1 1000 0
BBX 11 11 2 0
BITMAP
1000
1000
13E0
FC20
1040
1080
1100
1000
1000
1000
0FE0
ENDCHAR
STARTCHAR uni30BC
ENCODING 12476
SWIDTH 1000 0
SWIDTH1 1000 0
BBX 12 12 2 0
BITMAP
0050
1050
1000
13E0
FC20
1040
1080
1100
1000
1000
1000
0FE0
ENDCHAR
STARTCHAR uni30BD
ENCODING 12477
SWIDTH 1000 0
SWIDTH1 1000 0
BBX 9 10 3 0
BITMAP
8080
4080
4080
0080
0100
0100
0200
0400
1800
6000
ENDCHAR
STARTCHAR uni30BE
ENCODING 12478
SWIDTH 1000 0
SWIDTH1 1000 0
BBX 10 12 3 0
BITMAP
0140
0140
8000
4080
4080
0100
0100
0200
0200
0400
1800
6000
ENDCHAR
STARTCHAR uni30BF
ENCODING 12479
SWIDTH 1000 0
SWIDTH1 1000 0
BBX 9 12 3 0
BITMAP
1000
1000
1F80
2080
2080
4080
9900
0500
0200
0500
1800
6000
ENDCHAR
STARTCHAR uni30C0
ENCODING 12480
SWIDTH 1000 0
SWIDTH1 1000 0
BBX 10 12 3 0
BITMAP
1140
1140
1000
3F80
2080
4080
9900
0500
0200
0500
1800
6000
ENDCHAR
STARTCHAR uni30C1
ENCODING 12481
SWIDTH 1000 0
SWIDTH1 1000 0
BBX 11 11 2 0
BITMAP
03C0
7C00
0400
0400
FFE0
0400
0400
0400
0400
0800
3000
ENDCHAR
STARTCHAR uni30C2
ENCODING 12482
SWIDTH 1000 0
SWIDTH1 1000 0
BBX 11 12 2 0
BITMAP
0080
0300
7CA0
04A0
0400
FFE0
0400
0400
0400
0400
0800
3000
ENDCHAR
STARTCHAR uni30C3
ENCODING 12483
SWIDTH 1000 0
SWIDTH1 1000 0
BBX 9 8 3 -1
BITMAP
1000
8880
4880
4100
0100
0200
0400
1800
ENDCHAR
STARTCHAR uni30C4
ENCODING 12484
SWIDTH 1000 0
SWIDTH1 1000 0
BBX 9 10 3 0
BITMAP
1000
8880
4880
4080
0080
0100
0100
0200
0C00
7000
ENDCHAR
STARTCHAR uni30C5
ENCODING 12485
SWIDTH 1000 0
SWIDTH1 1000 0
BBX 10 12 3 0
BITMAP
0140
0140
1000
8880
4880
4080
0080
0100
0100
0200
0C00
7000
ENDCHAR
STARTCHAR uni30C6
ENCODING 12486
SWIDTH 1000 0
SWIDTH1 1000 0
BBX 11 10 2 0
BITMAP
7FC0
0000
0000
FFE0
0400
0400
0400
0400
0800
3000
ENDCHAR
STARTCHAR uni30C7
ENCODING 12487
SWIDTH 1000 0
SWIDTH1 1000 0
BBX 11 12 2 0
BITMAP
00A0
00A0
7F00
0000
0000
FFE0
0400
0400
0400
0400
0800
3000
ENDCHAR
STARTCHAR uni30C8
ENCODING 12488
SWIDTH 1000 0
SWIDTH1 1000 0
BBX 5 12 6 -1
BITMAP
80
80
80
80
80
E0
98
80
80
80
80
80
ENDCHAR
STARTCHAR uni30C9
ENCODING 12489
SWIDTH 1000 0
SWIDTH1 1000 0
BBX 7 12 6 -1
BITMAP
8A
8A
80
80
80
E0
98
80
80
80
80
80
ENDCHAR
STARTCHAR uni30CA
ENCODING 12490
SWIDTH 1000 0
SWIDTH1 1000 0
BBX 11 12 2 -1
BITMAP
0400
0400
0400
FFE0
0400
0400
0400
0400
0800
0800
1000
6000
ENDCHAR
STARTCHAR uni30CB
ENCODING 12491
SWIDTH 1000 0
SWIDTH1 1000 0
BBX 11 8 2 1
BITMAP
7FC0
0000
0000
0000
0000
0000
0000
FFE0
ENDCHAR
STARTCHAR uni30CC
ENCODING 12492
SWIDTH 1000 0
SWIDTH1 1000 0
BBX 9 10 3 0
BITMAP
7F80
0080
0080
3100
0D00
0200
0500
0880
3000
C000
ENDCHAR
STARTCHAR uni30CD
ENCODING 12493
SWIDTH 1000 0
SWIDTH1 1000 0
BBX 11 13 2 -1
BITMAP
0400
0400
0400
7F80
0080
0100
0200
0400
1D80
E460
0400
0400
0400
ENDCHAR
STARTCHAR uni30CE
ENCODING 12494
SWIDTH 1000 0
SWIDTH1 1000 0
BBX 9 10 2 0
BITMAP
0080
0080
0080
0100
0100
0200
0400
0800
3000
C000
ENDCHAR
STARTCHAR uni30CF
ENCODING 12495
SWIDTH 1000 0
SWIDTH1 1000 0
BBX 11 8 2 1
BITMAP
2100
2080
2080
2040
2040
4020
4020
8020
ENDCHAR
STARTCHAR uni30D0
ENCODING 12496
SWIDTH 1000 0
SWIDTH1 1000 0
BBX 11 11 2 1
BITMAP
00A0
00A0
0000
2100
2080
2080
2040
2040
4020
4020
8020
ENDCHAR
STARTCHAR uni30D1
ENCODING 12497
SWIDTH 1000 0
SWIDTH1 1000 0
BBX 11 11 2 1
BITMAP
0040
00A0
0040
2100
2080
2080
2040
2040
4020
4020
8020
ENDCHAR
STARTCHAR uni30D2
ENCODING 12498
SWIDTH 1000 0
SWIDTH1 1000 0
BBX 9 11 3 0
BITMAP
8000
8000
8300
8C00
F000
8000
8000
8000
8000
8000
7F80
ENDCHAR
STARTCHAR uni30D3
ENCODING 12499
SWIDTH 1000 0
SWIDTH1 1000 0
BBX 10 12 3 0
BITMAP
0140
8140
8000
8300
8C00
F000
8000
8000
8000
8000
8000
7F80
ENDCHAR
STARTCHAR uni30D4
ENCODING 12500
SWIDTH 1000 0
SWIDTH1 1000 0
BBX 10 12 3 0
BITMAP
0080
8140
8080
8200
8C00
F000
8000
8000
8000
8000
8000
7F80
ENDCHAR
STARTCHAR uni30D5
ENCODING 12501
SWIDTH 1000 0
SWIDTH1 1000 0
BBX 10 10 3 0
BITMAP
FFC0
0040
0040
0040
0080
0080
0100
0200
0C00
3000
ENDCHAR
STARTCHAR uni30D6
ENCODING 12502
SWIDTH 1000 0
SWIDTH1 1000 0
BBX 11 12 3 0
BITMAP
00A0
00A0
0000
FFC0
0040
0040
0080
0080
0100
0200
0C00
3000
ENDCHAR
STARTCHAR uni30D7
ENCODING 12503
SWIDTH 1000 0
SWIDTH1 1000 0
BBX 11 12 3 0
BITMAP
0040
00A0
0040
FFC0
0040
0040
0080
0080
0100
0200
0C00
3000
ENDCHAR
STARTCHAR uni30D8
ENCODING 12504
SWIDTH 1000 0
SWIDTH1 1000 0
BBX 11 7 2 2
BITMAP
1800
2400
4200
8100
0080
0040
0020
ENDCHAR
STARTCHAR uni30D9
ENCODING 12505
SWIDTH 1000 0
SWIDTH1 1000 0
BBX 11 8 2 2
BITMAP
00A0
18A0
2400
4200
8100
0080
0040
0020
ENDCHAR
STARTCHAR uni30DA
ENCODING 12506
SWIDTH 1000 0
SWIDTH1 1000 0
BBX 11 9 2 2
BITMAP
0040
00A0
1840
2400
4200
8100
0080
0040
0020
ENDCHAR
STARTCHAR uni30DB
ENCODING 12507
SWIDTH 1000 0
SWIDTH1 1000 0
BBX 11 13 2 -1
BITMAP
0400
0400
0400
FFE0
0400
0400
2480
2440
4440
4420
8420
0400
0400
ENDCHAR
STARTCHAR uni30DC
ENCODING 12508
SWIDTH 1000 0
SWIDTH1 1000 0
BBX 12 13 2 -1
BITMAP
0450
0450
0400
FFE0
0400
0400
2480
2440
4440
4420
8420
0400
0400
ENDCHAR
STARTCHAR uni30DD
ENCODING 12509
SWIDTH 1000 0
SWIDTH1 1000 0
BBX 12 13 2 -1
BITMAP
0420
0450
0420
FFE0
0400
0400
2480
2440
4440
4420
8420
0400
0400
ENDCHAR
STARTCHAR uni30DE
ENCODING 12510
SWIDTH 1000 0
SWIDTH1 1000 0
BBX 11 9 2 0
BITMAP
FFE0
0020
0040
0080
1100
0A00
0400
0200
0200
ENDCHAR
STARTCHAR uni30DF
ENCODING 12511
SWIDTH 1000 0
SWIDTH1 1000 0
BBX 7 11 4 -1
BITMAP
70
0C
00
00
70
0C
00
00
E0
1C
02
ENDCHAR
STARTCHAR uni30E0
ENCODING 12512
SWIDTH 1000 0
SWIDTH1 1000 0
BBX 11 11 2 0
BITMAP
0800
0800
0800
0800
1000
1080
1040
2040
27E0
F820
0020
ENDCHAR
STARTCHAR uni30E1
ENCODING 12513
SWIDTH 1000 0
SWIDTH1 1000 0
BBX 9 11 2 0
BITMAP
0080
0080
0080
0100
3100
0A00
0400
0A00
1100
2000
C000
ENDCHAR
STARTCHAR uni30E2
ENCODING 12514
SWIDTH 1000 0
SWIDTH1 1000 0
BBX 11 10 2 0
BITMAP
7FC0
0800
0800
0800
FFE0
0800
0800
0800
0800
07C0
ENDCHAR
STARTCHAR uni30E3
ENCODING 12515
SWIDTH 1000 0
SWIDTH1 1000 0
BBX 9 9 3 -1
BITMAP
1000
1000
1780
F880
1100
0A00
0800
0800
0800
ENDCHAR
STARTCHAR uni30E4
ENCODING 12516
SWIDTH 1000 0
SWIDTH1 1000 0
BBX 11 12 2 -1
BITMAP
1000
1000
17E0
F820
0840
0880
0900
0800
0400
0400
0400
0400
ENDCHAR
STARTCHAR uni30E5
ENCODING 12517
SWIDTH 1000 0
SWIDTH1 1000 0
BBX 9 6 3 0
BITMAP
7E00
0200
0200
0200
0200
FF80
ENDCHAR
STARTCHAR uni30E6
ENCODING 12518
SWIDTH 1000 0
SWIDTH1 1000 0
BBX 11 9 2 1
BITMAP
7F00
0100
0100
0100
0200
0200
0200
0200
FFE0
ENDCHAR
STARTCHAR uni30E7
ENCODING 12519
SWIDTH 1000 0
SWIDTH1 1000 0
BBX 7 8 4 -1
BITMAP
FE
02
02
FE
02
02
FE
02
ENDCHAR
STARTCHAR uni30E8
ENCODING 12520
SWIDTH 1000 0
SWIDTH1 1000 0
BBX 8 10 3 0
BITMAP
FF
01
01
01
FF
01
01
01
FF
01
ENDCHAR
STARTCHAR uni30E9
ENCODING 12521
SWIDTH 1000 0
SWIDTH1 1000 0
BBX 10 10 2 0
BITMAP
7F80
0000
0000
FFC0
0040
0080
0080
0100
0600
3800
ENDCHAR
STARTCHAR uni30EA
ENCODING 12522
SWIDTH 1000 0
SWIDTH1 1000 0
BBX 7 12 4 -1
BITMAP
82
82
82
82
82
82
82
02
04
04
08
30
ENDCHAR
STARTCHAR uni30EB
ENCODING 12523
SWIDTH 1000 0
SWIDTH1 1000 0
BBX 12 11 2 0
BITMAP
0200
2200
2200
2200
2200
2210
2210
2220
4240
4280
8300
ENDCHAR
STARTCHAR uni30EC
ENCODING 12524
SWIDTH 1000 0
SWIDTH1 1000 0
BBX 9 11 4 0
BITMAP
8000
8000
8000
8000
8080
8080
8100
8200
8400
9800
E000
ENDCHAR
STARTCHAR uni30ED
ENCODING 12525
SWIDTH 1000 0
SWIDTH1 1000 0
BBX 9 10 3 0
BITMAP
FF80
8080
8080
8080
8080
8080
8080
8080
FF80
8080
ENDCHAR
STARTCHAR uni30EE
ENCODING 12526
SWIDTH 1000 0
SWIDTH1 1000 0
BBX 8 8 4 -1
BITMAP
FF
81
81
81
01
02
04
18
ENDCHAR
STARTCHAR uni30EF
ENCODING 12527
SWIDTH 1000 0
SWIDTH1 1000 0
BBX 10 11 2 0
BITMAP
FFC0
8040
8040
8040
8040
0040
0080
0080
0100
0600
1800
ENDCHAR
STARTCHAR uni30F0
ENCODING 12528
SWIDTH 1000 0
SWIDTH1 1000 0
BBX 12 12 1 -1
BITMAP
0100
0100
7FE0
1100
1100
1100
1100
FFF0
0100
0100
0100
0100
ENDCHAR
STARTCHAR uni30F1
ENCODING 12529
SWIDTH 1000 0
SWIDTH1 1000 0
BBX 13 9 1 0
BITMAP
3FE0
0040
0080
0300
0200
0200
0200
0200
FFF8
ENDCHAR
STARTCHAR uni30F2
ENCODING 12530
SWIDTH 1000 0
SWIDTH1 1000 0
BBX 9 11 3 0
BITMAP
FF80
0080
0080
FF80
0080
0080
0100
0100
0200
0C00
7000
ENDCHAR
STARTCHAR uni30F3
ENCODING 12531
SWIDTH 1000 0
SWIDTH1 1000 0
BBX 11 10 3 0
BITMAP
C000
2000
0020
0020
0040
0080
0100
0200
0C00
7000
ENDCHAR
STARTCHAR uni30F4
ENCODING 12532
SWIDTH 1000 0
SWIDTH1 1000 0
BBX 10 12 3 0
BITMAP
0140
0940
0800
FF80
8080
8080
0080
0100
0100
0200
0C00
3000
ENDCHAR
STARTCHAR uni30F5
ENCODING 12533
SWIDTH 1000 0
SWIDTH1 1000 0
BBX 8 9 3 -1
BITMAP
10
10
FF
11
11
21
21
41
86
ENDCHAR
STARTCHAR uni30F6
ENCODING 12534
SWIDTH 1000 0
SWIDTH1 1000 0
BBX 9 9 3 -1
BITMAP
2000
2000
3F80
4400
8400
0400
0400
0800
1000
ENDCHAR
STARTCHAR uni30FC
ENCODING 12540
SWIDTH 1000 0
SWIDTH1 1000 0
BBX 11 2 2 5
BITMAP
8000
7FE0
ENDCHAR
STARTCHAR uni30FD
ENCODING 12541
SWIDTH 1000 0
SWIDTH1 1000 0
BBX 4 5 5 3
BITMAP
80
40
20
10
10
ENDCHAR
STARTCHAR uni30FE
ENCODING 12542
SWIDTH 1000 0
SWIDTH1 1000 0
BBX 6 8 5 3
BITMAP
08
24
10
80
40
20
10
10
ENDCHAR
STARTCHAR uni3105
ENCODING 12549
SWIDTH 1000 0
SWIDTH1 1000 0
BBX 9 12 2 0
BITMAP
2000
2000
2000
4F80
F080
0080
0080
0080
0080
0100
0900
0600
ENDCHAR
STARTCHAR uni3106
ENCODING 12550
SWIDTH 1000 0
SWIDTH1 1000 0
BBX 8 13 3 0
BITMAP
10
10
20
47
F9
01
02
22
14
0C
12
22
C0
ENDCHAR
STARTCHAR uni3107
ENCODING 12551
SWIDTH 1000 0
SWIDTH1 1000 0
BBX 10 8 2 2
BITMAP
07C0
F840
8080
8080
8080
8080
8080
8080
ENDCHAR
STARTCHAR uni3108
ENCODING 12552
SWIDTH 1000 0
SWIDTH1 1000 0
BBX 11 10 2 1
BITMAP
0FC0
F000
4000
4000
4000
8000
8000
8000
8000
7FE0
ENDCHAR
STARTCHAR uni3109
ENCODING 12553
SWIDTH 1000 0
SWIDTH1 1000 0
BBX 10 12 2 0
BITMAP
1000
1000
2000
47C0
F840
0840
0840
1040
2080
4080
8500
0300
ENDCHAR
STARTCHAR uni310A
ENCODING 12554
SWIDTH 1000 0
SWIDTH1 1000 0
BBX 12 11 1 1
BITMAP
0400
0400
0400
04F0
FF00
0400
0800
0800
1080
23C0
3C40
ENDCHAR
STARTCHAR uni310B
ENCODING 12555
SWIDTH 1000 0
SWIDTH1 1000 0
BBX 10 12 2 0
BITMAP
0F00
F100
0200
0400
0B80
1C40
0040
0080
0080
0100
0500
0200
ENDCHAR
STARTCHAR uni310C
ENCODING 12556
SWIDTH 1000 0
SWIDTH1 1000 0
BBX 10 12 2 0
BITMAP
0200
2200
2200
4400
47C0
F840
0840
0840
1080
2080
4480
8300
ENDCHAR
STARTCHAR uni310D
ENCODING 12557
SWIDTH 1000 0
SWIDTH1 1000 0
BBX 9 12 2 0
BITMAP
1100
1100
2100
2200
4200
8400
8400
4200
2100
2100
1080
1080
ENDCHAR
STARTCHAR uni310E
ENCODING 12558
SWIDTH 1000 0
SWIDTH1 1000 0
BBX 12 11 1 0
BITMAP
03F0
FC00
0400
0800
13C0
1C40
0040
0040
0080
0480
0300
ENDCHAR
STARTCHAR uni310F
ENCODING 12559
SWIDTH 1000 0
SWIDTH1 1000 0
BBX 12 12 1 0
BITMAP
00F0
7F00
2000
2000
2000
2000
2000
2000
2000
4000
4000
8000
ENDCHAR
STARTCHAR uni3110
ENCODING 12560
SWIDTH 1000 0
SWIDTH1 1000 0
BBX 7 12 3 0
BITMAP
02
42
42
42
42
42
4E
72
C2
02
02
02
ENDCHAR
STARTCHAR uni3111
ENCODING 12561
SWIDTH 1000 0
SWIDTH1 1000 0
BBX 5 12 4 0
BITMAP
10
10
20
20
40
80
80
40
20
10
08
08
ENDCHAR
STARTCHAR uni3112
ENCODING 12562
SWIDTH 1000 0
SWIDTH1 1000 0
BBX 10 12 2 0
BITMAP
01C0
FE00
0400
0400
0400
0400
0400
0400
0400
0400
0400
0400
ENDCHAR
STARTCHAR uni3113
ENCODING 12563
SWIDTH 1000 0
SWIDTH1 1000 0
BBX 12 12 1 0
BITMAP
0400
0400
0440
2440
2440
2440
2440
3FC0
0400
0400
0400
FFF0
ENDCHAR
STARTCHAR uni3114
ENCODING 12564
SWIDTH 1000 0
SWIDTH1 1000 0
BBX 7 12 3 0
BITMAP
04
08
10
22
C4
08
18
28
C8
08
08
08
ENDCHAR
STARTCHAR uni3115
ENCODING 12565
SWIDTH 1000 0
SWIDTH1 1000 0
BBX 10 12 1 0
BITMAP
03C0
3C40
0040
0380
1C00
1000
1000
1000
2000
2000
4000
8000
ENDCHAR
STARTCHAR uni3116
ENCODING 12566
SWIDTH 1000 0
SWIDTH1 1000 0
BBX 8 11 3 0
BITMAP
9F
E1
81
91
89
89
81
81
81
FE
02
ENDCHAR
STARTCHAR uni3117
ENCODING 12567
SWIDTH 1000 0
SWIDTH1 1000 0
BBX 9 12 2 0
BITMAP
0780
F880
1080
1080
1080
1080
1500
1200
1000
1000
1000
1000
ENDCHAR
STARTCHAR uni3118
ENCODING 12568
SWIDTH 1000 0
SWIDTH1 1000 0
BBX 12 12 1 0
BITMAP
0400
0400
07F0
FC00
0800
11C0
1E40
0040
0080
0080
0100
0200
ENDCHAR
STARTCHAR uni3119
ENCODING 12569
SWIDTH 1000 0
SWIDTH1 1000 0
BBX 10 12 2 0
BITMAP
0400
0400
0400
0800
0800
1000
1000
2100
2080
43C0
FC40
0040
ENDCHAR
STARTCHAR uni311A
ENCODING 12570
SWIDTH 1000 0
SWIDTH1 1000 0
BBX 9 12 2 0
BITMAP
8080
4100
2200
1400
0800
0800
0800
0800
0800
0800
0800
0800
ENDCHAR
STARTCHAR uni311B
ENCODING 12571
SWIDTH 1000 0
SWIDTH1 1000 0
BBX 11 11 1 0
BITMAP
0FE0
F200
0200
0200
1E00
2000
4000
4000
4000
20C0
1F00
ENDCHAR
STARTCHAR uni311C
ENCODING 12572
SWIDTH 1000 0
SWIDTH1 1000 0
BBX 12 12 1 0
BITMAP
0200
0200
02F0
FF00
0200
0200
1E00
2000
4000
4000
2060
1F80
ENDCHAR
STARTCHAR uni311D
ENCODING 12573
SWIDTH 1000 0
SWIDTH1 1000 0
BBX 12 12 1 0
BITMAP
2180
1080
1080
1080
17F0
F900
1100
1100
1200
1200
0800
07E0
ENDCHAR
STARTCHAR uni311E
ENCODING 12574
SWIDTH 1000 0
SWIDTH1 1000 0
BBX 12 12 1 0
BITMAP
01F0
FE00
2200
2200
43C0
7E20
0220
0420
0420
0840
1040
6080
ENDCHAR
STARTCHAR uni311F
ENCODING 12575
SWIDTH 1000 0
SWIDTH1 1000 0
BBX 12 11 1 0
BITMAP
1C00
E400
0400
0400
0400
0400
0200
0200
0100
0080
0070
ENDCHAR
STARTCHAR uni3120
ENCODING 12576
SWIDTH 1000 0
SWIDTH1 1000 0
BBX 9 12 3 0
BITMAP
1000
1000
2000
2000
4200
8200
FC00
0800
1200
2100
4F80
F080
ENDCHAR
STARTCHAR uni3121
ENCODING 12577
SWIDTH 1000 0
SWIDTH1 1000 0
BBX 9 12 2 0
BITMAP
0380
FC80
0080
0100
2100
1200
0A00
0400
0A00
1180
2080
C000
ENDCHAR
STARTCHAR uni3122
ENCODING 12578
SWIDTH 1000 0
SWIDTH1 1000 0
BBX 10 12 2 0
BITMAP
0F00
F100
0100
4200
4200
47C0
F840
0040
0080
0080
0100
0100
ENDCHAR
STARTCHAR uni3123
ENCODING 12579
SWIDTH 1000 0
SWIDTH1 1000 0
BBX 10 12 2 0
BITMAP
C000
4000
4000
4000
8000
81C0
FE40
0040
0040
0080
0080
0080
ENDCHAR
STARTCHAR uni3124
ENCODING 12580
SWIDTH 1000 0
SWIDTH1 1000 0
BBX 12 12 1 0
BITMAP
0400
0400
0400
07E0
7D00
0500
0900
0900
1100
1100
2100
C0F0
ENDCHAR
STARTCHAR uni3125
ENCODING 12581
SWIDTH 1000 0
SWIDTH1 1000 0
BBX 11 11 1 1
BITMAP
0400
0400
0400
0800
0800
1000
1000
2000
2000
4000
FFE0
ENDCHAR
STARTCHAR uni3126
ENCODING 12582
SWIDTH 1000 0
SWIDTH1 1000 0
BBX 12 12 1 0
BITMAP
1200
1200
1200
1200
1200
1200
1200
1200
1200
2210
4110
80F0
ENDCHAR
STARTCHAR uni3127
ENCODING 12583
SWIDTH 1000 0
SWIDTH1 1000 0
BBX 13 1 1 5
BITMAP
FFF8
ENDCHAR
STARTCHAR uni3128
ENCODING 12584
SWIDTH 1000 0
SWIDTH1 1000 0
BBX 10 11 2 1
BITMAP
0080
00C0
4080
2100
1100
0A00
0400
0A00
1100
20C0
C040
ENDCHAR
STARTCHAR uni3129
ENCODING 12585
SWIDTH 1000 0
SWIDTH1 1000 0
BBX 11 8 1 2
BITMAP
0060
C020
4020
4020
4020
4020
43E0
FC20
ENDCHAR
STARTCHAR uni3220
ENCODING 12832
SWIDTH 1000 0
SWIDTH1 1000 0
BBX 14 12 0 0
BITMAP
2010
4008
8004
8004
8004
9FE4
8004
8004
8004
8004
4008
2010
ENDCHAR
STARTCHAR uni3221
ENCODING 12833
SWIDTH 1000 0
SWIDTH1 1000 0
BBX 14 12 0 0
BITMAP
2010
4008
8FC4
8004
8004
8004
8004
8004
8004
9FE4
4008
2010
ENDCHAR
STARTCHAR uni3222
ENCODING 12834
SWIDTH 1000 0
SWIDTH1 1000 0
BBX 14 12 0 0
BITMAP
2010
4008
9FE4
8004
8004
8004
8FC4
8004
8004
8004
5FE8
2010
ENDCHAR
STARTCHAR uni3223
ENCODING 12835
SWIDTH 1000 0
SWIDTH1 1000 0
BBX 14 12 0 0
BITMAP
2010
4008
9FE4
92A4
92A4
92A4
94E4
9824
9024
9FE4
4008
2010
ENDCHAR
STARTCHAR uni3224
ENCODING 12836
SWIDTH 1000 0
SWIDTH1 1000 0
BBX 14 12 0 0
BITMAP
2010
4008
9FE4
8204
8204
8FC4
8444
8444
8444
8444
5FE8
2010
ENDCHAR
STARTCHAR uni3225
ENCODING 12837
SWIDTH 1000 0
SWIDTH1 1000 0
BBX 14 12 0 0
BITMAP
2010
4208
8104
8004
9FE4
8004
8484
8444
8824
9024
4008
2010
ENDCHAR
STARTCHAR uni3226
ENCODING 12838
SWIDTH 1000 0
SWIDTH1 1000 0
BBX 14 12 0 0
BITMAP
2010
4408
8404
8464
8784
BC04
8404
8404
8424
83E4
4008
2010
ENDCHAR
STARTCHAR uni3227
ENCODING 12839
SWIDTH 1000 0
SWIDTH1 1000 0
BBX 14 12 0 0
BITMAP
2010
4388
8084
8484
8484
8484
8484
8844
8844
9024
4008
2010
ENDCHAR
STARTCHAR uni3228
ENCODING 12840
SWIDTH 1000 0
SWIDTH1 1000 0
BBX 14 12 0 0
BITMAP
2010
4408
8404
9F84
8484
8484
8484
8484
8494
8874
5008
2010
ENDCHAR
STARTCHAR uni3229
ENCODING 12841
SWIDTH 1000 0
SWIDTH1 1000 0
BBX 14 12 0 0
BITMAP
2010
4108
8104
8104
8104
9FF4
8104
8104
8104
8104
4108
2010
ENDCHAR
STARTCHAR uni3231
ENCODING 12849
SWIDTH 1000 0
SWIDTH1 1000 0
BBX 14 12 0 0
BITMAP
5088
5288
93E4
FA84
9484
93F4
B884
D5C4
92A4
9494
5088
4008
ENDCHAR
STARTCHAR uni32A3
ENCODING 12963
SWIDTH 1000 0
SWIDTH1 1000 0
BBX 12 12 1 0
BITMAP
1F80
2040
7FE0
8210
8210
93D0
9210
9210
9210
7FE0
2040
1F80
ENDCHAR
STARTCHAR uni338E
ENCODING 13198
SWIDTH 1000 0
SWIDTH1 1000 0
BBX 12 11 1 -1
BITMAP
A8D0
5520
5520
5520
54C0
5480
54E0
5510
0110
0110
00E0
ENDCHAR
STARTCHAR uni338F
ENCODING 13199
SWIDTH 1000 0
SWIDTH1 1000 0
BBX 11 14 2 -1
BITMAP
8000
8000
8000
89A0
9240
A240
C240
A180
9100
89C0
8220
0220
0220
01C0
ENDCHAR
STARTCHAR uni339C
ENCODING 13212
SWIDTH 1000 0
SWIDTH1 1000 0
BBX 13 8 1 1
BITMAP
A950
54A8
54A8
54A8
54A8
54A8
54A8
54A8
ENDCHAR
STARTCHAR uni339D
ENCODING 13213
SWIDTH 1000 0
SWIDTH1 1000 0
BBX 13 8 1 1
BITMAP
75B0
8A48
8248
8248
8248
8248
8A48
7248
ENDCHAR
STARTCHAR uni339E
ENCODING 13214
SWIDTH 1000 0
SWIDTH1 1000 0
BBX 13 11 1 1
BITMAP
8000
8000
8000
89B0
9248
A248
C248
A248
9248
8A48
8648
ENDCHAR
STARTCHAR uni33A1
ENCODING 13217
SWIDTH 1000 0
SWIDTH1 1000 0
BBX 13 11 1 1
BITMAP
0030
0048
0008
B610
4920
4978
4900
4900
4900
4900
4900
ENDCHAR
STARTCHAR uni33C4
ENCODING 13252
SWIDTH 1000 0
SWIDTH1 1000 0
BBX 11 8 2 1
BITMAP
71C0
8A20
8200
8200
8200
8200
8A20
71C0
ENDCHAR
STARTCHAR uni33CE
ENCODING 13262
SWIDTH 1000 0
SWIDTH1 1000 0
BBX 12 11 1 1
BITMAP
9410
9630
A630
A550
C550
A550
A490
A490
9490
9410
9410
ENDCHAR
STARTCHAR uni33D1
ENCODING 13265
SWIDTH 1000 0
SWIDTH1 1000 0
BBX 9 11 3 1
BITMAP
8000
8000
8000
9700
8880
8880
8880
8880
8880
8880
8880
ENDCHAR
STARTCHAR uni33D2
ENCODING 13266
SWIDTH 1000 0
SWIDTH1 1000 0
BBX 11 14 2 -1
BITMAP
8000
8000
8000
91A0
AA40
AA40
AA40
A980
A900
A9C0
9220
0220
0220
01C0
ENDCHAR
STARTCHAR uni33D5
ENCODING 13269
SWIDTH 1000 0
SWIDTH1 1000 0
BBX 12 11 1 1
BITMAP
0010
0010
0090
A810
5490
5490
5490
5490
5490
5490
5490
ENDCHAR
STARTCHAR uni4E00
ENCODING 19968
SWIDTH 1000 0
SWIDTH1 1000 0
BBX 13 2 1 6
BITMAP
0010
FFF8
ENDCHAR
STARTCHAR uni4E01
ENCODING 19969
SWIDTH 1000 0
SWIDTH1 1000 0
BBX 13 13 1 -1
BITMAP
FFF8
0200
0200
0200
0200
0200
0200
0200
0200
0200
0200
0200
0E00
ENDCHAR
STARTCHAR uni4E02
ENCODING 19970
SWIDTH 1000 0
SWIDTH1 1000 0
BBX 13 13 1 -1
BITMAP
FFF8
0800
0800
1000
1000
3FE0
0020
0020
0020
0020
0020
0020
00C0
ENDCHAR
STARTCHAR uni4E03
ENCODING 19971
SWIDTH 1000 0
SWIDTH1 1000 0
BBX 13 14 1 -1
BITMAP
0400
0400
0400
0400
0478
0780
FC00
0400
0400
0400
0400
0408
0408
03F8
ENDCHAR
STARTCHAR uni4E04
ENCODING 19972
SWIDTH 1000 0
SWIDTH1 1000 0
BBX 13 14 1 -1
BITMAP
0200
0200
0200
0200
0200
0200
0200
0200
0200
0200
0200
0200
0200
FFF8
ENDCHAR
STARTCHAR uni4E05
ENCODING 19973
SWIDTH 1000 0
SWIDTH1 1000 0
BBX 13 13 1 -1
BITMAP
FFF8
0200
0200
0200
0200
0200
0200
0200
0200
0200
0200
0200
0200
ENDCHAR
STARTCHAR uni4E06
ENCODING 19974
SWIDTH 1000 0
SWIDTH1 1000 0
BBX 13 8 1 4
BITMAP
FFF8
0400
0400
0800
1000
2000
4000
8000
ENDCHAR
STARTCHAR uni4E07
ENCODING 19975
SWIDTH 1000 0
SWIDTH1 1000 0
BBX 13 14 1 -1
BITMAP
FFF8
0800
0800
0800
0800
0FE0
0820
1020
1020
1020
2020
2020
4020
81C0
ENDCHAR
STARTCHAR uni4E08
ENCODING 19976
SWIDTH 1000 0
SWIDTH1 1000 0
BBX 13 14 1 -1
BITMAP
0100
0100
0100
FFF8
0100
2100
2100
1100
1200
0A00
0400
0B00
30C0
C038
ENDCHAR
STARTCHAR uni4E09
ENCODING 19977
SWIDTH 1000 0
SWIDTH1 1000 0
BBX 13 13 1 -1
BITMAP
7FF0
0000
0000
0000
0000
0000
3FE0
0000
0000
0000
0000
0000
FFF8
ENDCHAR
STARTCHAR uni4E0A
ENCODING 19978
SWIDTH 1000 0
SWIDTH1 1000 0
BBX 13 14 1 -1
BITMAP
0200
0200
0200
0200
0200
03F0
0200
0200
0200
0200
0200
0200
0200
FFF8
ENDCHAR
STARTCHAR uni4E0B
ENCODING 19979
SWIDTH 1000 0
SWIDTH1 1000 0
BBX 13 13 1 -1
BITMAP
FFF8
0400
0400
0400
0480
0440
0420
0420
0400
0400
0400
0400
0400
ENDCHAR
STARTCHAR uni4E0C
ENCODING 19980
SWIDTH 1000 0
SWIDTH1 1000 0
BBX 13 13 1 -1
BITMAP
FFF8
1040
1040
1040
1040
1040
1040
1040
1040
2040
2040
4040
8040
ENDCHAR
STARTCHAR uni4E0D
ENCODING 19981
SWIDTH 1000 0
SWIDTH1 1000 0
BBX 13 13 1 -1
BITMAP
FFF8
0100
0100
0200
0600
0A40
1220
2210
4208
8208
0200
0200
0200
ENDCHAR
STARTCHAR uni4E0E
ENCODING 19982
SWIDTH 1000 0
SWIDTH1 1000 0
BBX 13 14 1 -1
BITMAP
1000
1000
1FF8
1000
1000
2000
3FF8
0008
0008
FFE8
0008
0008
0008
0030
ENDCHAR
STARTCHAR uni4E0F
ENCODING 19983
SWIDTH 1000 0
SWIDTH1 1000 0
BBX 13 13 1 -1
BITMAP
FFF8
0200
0200
23F0
2210
2210
2210
3FF0
0010
0010
0010
0010
0060
ENDCHAR
STARTCHAR uni4E10
ENCODING 19984
SWIDTH 1000 0
SWIDTH1 1000 0
BBX 13 13 1 -1
BITMAP
FFF8
0200
0200
23F0
2200
2200
2200
3FF0
0010
0010
0010
0010
0060
ENDCHAR
STARTCHAR uni4E11
ENCODING 19985
SWIDTH 1000 0
SWIDTH1 1000 0
BBX 13 13 1 -1
BITMAP
7FE0
0820
0820
0820
0820
0820
7FE0
1020
1020
1020
1020
1020
FFF8
ENDCHAR
STARTCHAR uni4E12
ENCODING 19986
SWIDTH 1000 0
SWIDTH1 1000 0
BBX 13 13 1 -1
BITMAP
7FF0
0410
0410
1410
0C10
0410
0A10
0910
1010
2020
40C0
0000
FFF8
ENDCHAR
STARTCHAR uni4E13
ENCODING 19987
SWIDTH 1000 0
SWIDTH1 1000 0
BBX 13 14 1 -1
BITMAP
0200
0200
7FF0
0400
0400
FFF8
0800
1000
3FE0
0020
0040
1C80
0300
0080
ENDCHAR
STARTCHAR uni4E14
ENCODING 19988
SWIDTH 1000 0
SWIDTH1 1000 0
BBX 13 13 1 -1
BITMAP
3FE0
2020
2020
2020
3FE0
2020
2020
2020
3FE0
2020
2020
2020
FFF8
ENDCHAR
STARTCHAR uni4E15
ENCODING 19989
SWIDTH 1000 0
SWIDTH1 1000 0
BBX 13 14 1 -1
BITMAP
FFF8
0100
0100
0200
0600
0A40
1220
2210
4208
8208
0200
0200
0000
FFF8
ENDCHAR
STARTCHAR uni4E16
ENCODING 19990
SWIDTH 1000 0
SWIDTH1 1000 0
BBX 13 14 1 -1
BITMAP
0420
2420
2420
2420
FFF8
2420
2420
2420
2420
27E0
2000
2000
2000
3FF8
ENDCHAR
STARTCHAR uni4E17
ENCODING 19991
SWIDTH 1000 0
SWIDTH1 1000 0
BBX 13 14 1 -1
BITMAP
2220
2220
2220
2220
2220
FFF8
2220
2220
2220
2220
2220
2220
3FE0
2020
ENDCHAR
STARTCHAR uni4E18
ENCODING 19992
SWIDTH 1000 0
SWIDTH1 1000 0
BBX 13 13 1 -1
BITMAP
00E0
3F00
2000
2000
2000
3FF0
2080
2080
2080
2080
2080
2080
FFF8
ENDCHAR
STARTCHAR uni4E19
ENCODING 19993
SWIDTH 1000 0
SWIDTH1 1000 0
BBX 13 13 1 -1
BITMAP
FFF8
0200
0200
7FF0
4210
4210
4510
4490
4850
5050
4010
4010
4070
ENDCHAR
STARTCHAR uni4E1A
ENCODING 19994
SWIDTH 1000 0
SWIDTH1 1000 0
BBX 13 14 1 -1
BITMAP
0880
0880
0880
8890
4890
4890
28A0
28A0
28C0
0880
0880
0880
0880
FFF8
ENDCHAR
STARTCHAR uni4E1B
ENCODING 19995
SWIDTH 1000 0
SWIDTH1 1000 0
BBX 13 14 1 -1
BITMAP
1040
1040
1040
1040
1040
1040
28A0
24A0
4510
4110
8208
0000
0000
FFF8
ENDCHAR
STARTCHAR uni4E1C
ENCODING 19996
SWIDTH 1000 0
SWIDTH1 1000 0
BBX 12 14 1 -1
BITMAP
0400
0400
7FF0
0800
1200
2200
3FE0
0200
0200
2240
2220
4210
8210
0E00
ENDCHAR
STARTCHAR uni4E1D
ENCODING 19997
SWIDTH 1000 0
SWIDTH1 1000 0
BBX 13 14 1 -1
BITMAP
2040
2040
4080
4488
8508
F9F0
0820
1040
2080
4100
FDF8
0000
0000
FFF8
ENDCHAR
STARTCHAR uni4E1E
ENCODING 19998
SWIDTH 1000 0
SWIDTH1 1000 0
BBX 13 13 1 -1
BITMAP
3FC0
0080
0110
7A20
0B40
1280
1240
2220
4218
8E00
0000
0000
7FF0
ENDCHAR
STARTCHAR uni4E1F
ENCODING 19999
SWIDTH 1000 0
SWIDTH1 1000 0
BBX 13 13 1 -1
BITMAP
FFF8
0200
0200
7FF0
0200
0200
0200
FFF8
0800
1040
2020
7FF0
0010
ENDCHAR
STARTCHAR uni4E20
ENCODING 20000
SWIDTH 1000 0
SWIDTH1 1000 0
BBX 13 14 1 -1
BITMAP
0880
0880
0888
F890
08E0
0880
0880
3880
C888
0888
0878
0000
0000
FFF8
ENDCHAR
STARTCHAR uni4E21
ENCODING 20001
SWIDTH 1000 0
SWIDTH1 1000 0
BBX 13 13 1 -1
BITMAP
FFF8
0200
0200
7FF0
4210
5250
5250
5250
5250
5FD0
4010
4010
4070
ENDCHAR
STARTCHAR uni4E22
ENCODING 20002
SWIDTH 1000 0
SWIDTH1 1000 0
BBX 13 14 1 -1
BITMAP
00F0
7F00
0200
0200
7FF0
0200
0200
0200
FFF8
0800
1040
2020
7FF0
0010
ENDCHAR
STARTCHAR uni4E23
ENCODING 20003
SWIDTH 1000 0
SWIDTH1 1000 0
BBX 13 13 1 -1
BITMAP
FFF8
0880
0880
78F0
4890
4890
4890
78F0
0890
1080
1080
2080
4080
ENDCHAR
STARTCHAR uni4E24
ENCODING 20004
SWIDTH 1000 0
SWIDTH1 1000 0
BBX 13 13 1 -1
BITMAP
FFF8
0880
0880
7FF0
4890
4890
4890
5550
6230
4410
4010
4010
4070
ENDCHAR
STARTCHAR uni4E25
ENCODING 20005
SWIDTH 1000 0
SWIDTH1 1000 0
BBX 13 14 1 -1
BITMAP
7FF8
0480
2490
1490
14A0
0480
3FF8
2000
2000
2000
2000
4000
4000
8000
ENDCHAR
STARTCHAR uni4E26
ENCODING 20006
SWIDTH 1000 0
SWIDTH1 1000 0
BBX 13 14 1 -1
BITMAP
2020
1040
0880
7FF0
0880
0880
8888
4888
2890
28A0
0880
0880
0880
FFF8
ENDCHAR
STARTCHAR uni4E27
ENCODING 20007
SWIDTH 1000 0
SWIDTH1 1000 0
BBX 13 14 1 -1
BITMAP
0200
0200
7FF0
0200
2220
1240
0200
FFF8
2400
2220
2140
2880
3060
2018
ENDCHAR
STARTCHAR uni4E28
ENCODING 20008
SWIDTH 1000 0
SWIDTH1 1000 0
BBX 1 14 7 -1
BITMAP
80
80
80
80
80
80
80
80
80
80
80
80
80
80
ENDCHAR
STARTCHAR uni4E29
ENCODING 20009
SWIDTH 1000 0
SWIDTH1 1000 0
BBX 7 14 3 -1
BITMAP
02
02
82
82
82
82
86
9A
E2
82
02
02
02
02
ENDCHAR
STARTCHAR uni4E2A
ENCODING 20010
SWIDTH 1000 0
SWIDTH1 1000 0
BBX 13 14 1 -1
BITMAP
0200
0200
0500
0880
1040
2220
C218
0200
0200
0200
0200
0200
0200
0200
ENDCHAR
STARTCHAR uni4E2B
ENCODING 20011
SWIDTH 1000 0
SWIDTH1 1000 0
BBX 11 14 2 -1
BITMAP
8020
4040
2080
1100
1200
0400
0400
0400
0400
0400
0400
0400
0400
0400
ENDCHAR
STARTCHAR uni4E2C
ENCODING 20012
SWIDTH 1000 0
SWIDTH1 1000 0
BBX 6 14 2 -1
BITMAP
04
04
44
24
14
04
04
0C
34
C4
04
04
04
04
ENDCHAR
STARTCHAR uni4E2D
ENCODING 20013
SWIDTH 1000 0
SWIDTH1 1000 0
BBX 11 14 2 -1
BITMAP
0400
0400
FFE0
8420
8420
8420
8420
8420
FFE0
8420
0400
0400
0400
0400
ENDCHAR
STARTCHAR uni4E2E
ENCODING 20014
SWIDTH 1000 0
SWIDTH1 1000 0
BBX 13 13 1 -1
BITMAP
7FE0
0820
0820
0820
FFA0
0820
0820
0820
FFA0
0820
0828
0818
0808
ENDCHAR
STARTCHAR uni4E2F
ENCODING 20015
SWIDTH 1000 0
SWIDTH1 1000 0
BBX 13 14 1 -1
BITMAP
0200
0230
03C0
0E00
F230
03C0
0E00
F218
02E0
0F00
F200
0200
0200
0200
ENDCHAR
STARTCHAR uni4E30
ENCODING 20016
SWIDTH 1000 0
SWIDTH1 1000 0
BBX 13 14 1 -1
BITMAP
0200
0200
7FF0
0200
0200
0200
3FE0
0200
0200
0200
FFF8
0200
0200
0200
ENDCHAR
STARTCHAR uni4E31
ENCODING 20017
SWIDTH 1000 0
SWIDTH1 1000 0
BBX 12 14 1 -1
BITMAP
0880
0880
4890
4890
4890
4890
5890
68F0
0890
1080
1080
2080
4080
8080
ENDCHAR
STARTCHAR uni4E32
ENCODING 20018
SWIDTH 1000 0
SWIDTH1 1000 0
BBX 13 14 1 -1
BITMAP
0200
0200
7FF0
4210
4210
7FF0
0200
FFF8
8208
8208
FFF8
8208
0200
0200
ENDCHAR
STARTCHAR uni4E33
ENCODING 20019
SWIDTH 1000 0
SWIDTH1 1000 0
BBX 13 14 1 -1
BITMAP
0880
0880
7FF0
4890
4890
7FF0
0880
FFF8
8888
8888
FFF8
9088
2080
4080
ENDCHAR
STARTCHAR uni4E34
ENCODING 20020
SWIDTH 1000 0
SWIDTH1 1000 0
BBX 12 14 2 -1
BITMAP
1200
1200
93F0
9480
9440
9840
9000
97F0
9490
9490
9490
17F0
1410
1000
ENDCHAR
STARTCHAR uni4E35
ENCODING 20021
SWIDTH 1000 0
SWIDTH1 1000 0
BBX 13 14 1 -1
BITMAP
0880
4890
28A0
0880
FFF8
1040
0880
3FE0
0200
0200
FFF8
0200
0200
0200
ENDCHAR
STARTCHAR uni4E36
ENCODING 20022
SWIDTH 1000 0
SWIDTH1 1000 0
BBX 4 6 5 3
BITMAP
80
40
20
20
10
10
ENDCHAR
STARTCHAR uni4E37
ENCODING 20023
SWIDTH 1000 0
SWIDTH1 1000 0
BBX 11 7 2 6
BITMAP
0020
8020
4040
2040
2080
1100
1200
ENDCHAR
STARTCHAR uni4E38
ENCODING 20024
SWIDTH 1000 0
SWIDTH1 1000 0
BBX 13 14 1 -1
BITMAP
0800
0800
0800
7FC0
0840
0840
2840
1840
0840
1440
1240
2048
4048
8038
ENDCHAR
STARTCHAR uni4E39
ENCODING 20025
SWIDTH 1000 0
SWIDTH1 1000 0
BBX 13 13 1 -1
BITMAP
3FE0
2020
2420
2220
2220
2020
FFF8
2020
2020
2020
2020
4020
80E0
ENDCHAR
STARTCHAR uni4E3A
ENCODING 20026
SWIDTH 1000 0
SWIDTH1 1000 0
BBX 12 14 1 -1
BITMAP
0400
2400
1400
0400
FFF0
0410
0810
0910
0890
1090
1010
2010
4020
80C0
ENDCHAR
STARTCHAR uni4E3B
ENCODING 20027
SWIDTH 1000 0
SWIDTH1 1000 0
BBX 13 14 1 -1
BITMAP
0400
0200
7FF0
0200
0200
0200
0200
3FE0
0200
0200
0200
0200
0200
FFF8
ENDCHAR
STARTCHAR uni4E3C
ENCODING 20028
SWIDTH 1000 0
SWIDTH1 1000 0
BBX 13 14 1 -1
BITMAP
1040
1040
1040
7FF0
1040
1440
1240
1240
FFF8
1040
2040
2040
4040
8040
ENDCHAR
STARTCHAR uni4E3D
ENCODING 20029
SWIDTH 1000 0
SWIDTH1 1000 0
BBX 13 13 1 -1
BITMAP
FFF8
0000
0000
7DF0
4510
4510
6590
5550
5550
4510
4510
4510
5D70
ENDCHAR
STARTCHAR uni4E3E
ENCODING 20030
SWIDTH 1000 0
SWIDTH1 1000 0
BBX 13 14 1 -1
BITMAP
2420
1240
0080
FFF8
0880
1240
2220
DFD8
0200
0200
7FF0
0200
0200
0200
ENDCHAR
STARTCHAR uni4E3F
ENCODING 20031
SWIDTH 1000 0
SWIDTH1 1000 0
BBX 5 14 3 -1
BITMAP
08
08
08
08
08
08
08
08
08
10
10
20
40
80
ENDCHAR
STARTCHAR uni4E40
ENCODING 20032
SWIDTH 1000 0
SWIDTH1 1000 0
BBX 13 14 1 -1
BITMAP
0400
0400
0800
1000
2800
4800
8800
0800
0400
0400
0200
0100
00C0
0038
ENDCHAR
STARTCHAR uni4E41
ENCODING 20033
SWIDTH 1000 0
SWIDTH1 1000 0
BBX 12 13 2 -1
BITMAP
FC00
0400
0400
0400
0400
0400
0200
0200
0100
0080
0040
0020
0010
ENDCHAR
STARTCHAR uni4E42
ENCODING 20034
SWIDTH 1000 0
SWIDTH1 1000 0
BBX 13 14 1 -1
BITMAP
0020
2020
2020
1040
1040
0880
0880
0500
0200
0500
0880
1040
2020
C018
ENDCHAR
STARTCHAR uni4E43
ENCODING 20035
SWIDTH 1000 0
SWIDTH1 1000 0
BBX 13 13 1 -1
BITMAP
7FE0
0820
0840
0840
0880
09F8
1008
1008
1008
2008
2008
4010
80E0
ENDCHAR
STARTCHAR uni4E44
ENCODING 20036
SWIDTH 1000 0
SWIDTH1 1000 0
BBX 10 14 2 -1
BITMAP
0040
0040
0040
0080
1080
0900
0500
0200
0500
8880
9040
A040
C000
8000
ENDCHAR
STARTCHAR uni4E45
ENCODING 20037
SWIDTH 1000 0
SWIDTH1 1000 0
BBX 13 14 1 -1
BITMAP
0800
0800
0800
1FC0
1040
2080
4080
8100
0200
0500
0880
1040
2020
C018
ENDCHAR
STARTCHAR uni4E46
ENCODING 20038
SWIDTH 1000 0
SWIDTH1 1000 0
BBX 13 14 1 -1
BITMAP
0800
0800
0840
1040
1080
2780
7900
0100
0200
0500
0880
1040
2020
C018
ENDCHAR
STARTCHAR uni4E47
ENCODING 20039
SWIDTH 1000 0
SWIDTH1 1000 0
BBX 13 14 1 -1
BITMAP
01E0
3E00
0400
0400
0400
0478
0780
FC00
0400
0400
0400
0408
0408
03F8
ENDCHAR
STARTCHAR uni4E48
ENCODING 20040
SWIDTH 1000 0
SWIDTH1 1000 0
BBX 13 14 1 -1
BITMAP
0200
0200
0400
0440
0840
1080
2080
4100
8200
0400
0820
1010
7FF8
0008
ENDCHAR
STARTCHAR uni4E49
ENCODING 20041
SWIDTH 1000 0
SWIDTH1 1000 0
BBX 13 14 1 -1
BITMAP
0420
2220
2220
1040
1040
0880
0880
0500
0200
0500
0880
1040
2020
C018
ENDCHAR
STARTCHAR uni4E4A
ENCODING 20042
SWIDTH 1000 0
SWIDTH1 1000 0
BBX 13 9 1 4
BITMAP
0078
0780
F800
0020
2020
1040
1040
0880
0900
ENDCHAR
STARTCHAR uni4E4B
ENCODING 20043
SWIDTH 1000 0
SWIDTH1 1000 0
BBX 13 14 1 -1
BITMAP
0400
0200
0000
7FF0
0020
0040
0080
0100
0200
0400
0800
3000
4C00
83F8
ENDCHAR
STARTCHAR uni4E4C
ENCODING 20044
SWIDTH 1000 0
SWIDTH1 1000 0
BBX 12 14 1 -1
BITMAP
0400
0800
3FC0
2040
2040
21C0
2000
3FF0
0010
0010
FFD0
0010
0010
0060
ENDCHAR
STARTCHAR uni4E4D
ENCODING 20045
SWIDTH 1000 0
SWIDTH1 1000 0
BBX 13 14 1 -1
BITMAP
1000
1000
1000
1FF8
2400
4400
87E0
0400
0400
07F0
0400
0400
0400
0400
ENDCHAR
STARTCHAR uni4E4E
ENCODING 20046
SWIDTH 1000 0
SWIDTH1 1000 0
BBX 13 14 1 -1
BITMAP
00F0
7F00
0200
2220
1220
1240
0200
FFF8
0200
0200
0200
0200
0200
0E00
ENDCHAR
STARTCHAR uni4E4F
ENCODING 20047
SWIDTH 1000 0
SWIDTH1 1000 0
BBX 13 13 1 -1
BITMAP
00F0
7F00
0000
0400
0200
7FF0
0060
0180
0600
1800
2000
5000
8FF8
ENDCHAR
STARTCHAR uni4E50
ENCODING 20048
SWIDTH 1000 0
SWIDTH1 1000 0
BBX 13 14 1 -1
BITMAP
00E0
3F00
2000
2200
4200
4200
7FF8
0200
0200
2240
2220
4210
8210
0E00
ENDCHAR
STARTCHAR uni4E51
ENCODING 20049
SWIDTH 1000 0
SWIDTH1 1000 0
BBX 13 14 1 -1
BITMAP
00F0
7F00
0200
1210
1320
2340
4A80
8A80
1240
2220
4210
8208
0200
0200
ENDCHAR
STARTCHAR uni4E52
ENCODING 20050
SWIDTH 1000 0
SWIDTH1 1000 0
BBX 13 14 1 -1
BITMAP
00E0
1F00
1000
1000
1FF0
1040
1040
1040
FFF8
0000
1000
1000
2000
4000
ENDCHAR
STARTCHAR uni4E53
ENCODING 20051
SWIDTH 1000 0
SWIDTH1 1000 0
BBX 13 14 1 -1
BITMAP
00E0
3F00
2000
2000
3FF0
2080
2080
2080
FFF8
0000
0080
0040
0020
0010
ENDCHAR
STARTCHAR uni4E54
ENCODING 20052
SWIDTH 1000 0
SWIDTH1 1000 0
BBX 13 14 1 -1
BITMAP
01E0
3E00
0200
FFF8
0500
0880
3060
C018
1040
1040
1040
1040
2040
4040
ENDCHAR
STARTCHAR uni4E55
ENCODING 20053
SWIDTH 1000 0
SWIDTH1 1000 0
BBX 13 14 1 -1
BITMAP
00F0
3F00
2100
2FF0
2100
3FF8
2100
2FF0
2910
2910
4910
4970
8100
0100
ENDCHAR
STARTCHAR uni4E56
ENCODING 20054
SWIDTH 1000 0
SWIDTH1 1000 0
BBX 13 14 1 -1
BITMAP
00E0
3F00
0200
FFF8
0200
0A80
7A88
0AF0
0A88
1A88
EA78
0200
0200
0200
ENDCHAR
STARTCHAR uni4E57
ENCODING 20055
SWIDTH 1000 0
SWIDTH1 1000 0
BBX 13 14 1 -1
BITMAP
00E0
3F00
0200
FFF8
1240
1240
FFF8
1240
1240
7FF0
0A80
3260
C218
0200
ENDCHAR
STARTCHAR uni4E58
ENCODING 20056
SWIDTH 1000 0
SWIDTH1 1000 0
BBX 13 14 1 -1
BITMAP
00E0
3F00
0200
FFF8
0A80
7AA0
0AC0
1A90
6A70
0700
0A80
3260
C218
0200
ENDCHAR
STARTCHAR uni4E59
ENCODING 20057
SWIDTH 1000 0
SWIDTH1 1000 0
BBX 12 13 2 -1
BITMAP
FFE0
0040
0080
0100
0200
0400
0800
1000
2000
4010
4010
4010
3FF0
ENDCHAR
STARTCHAR uni4E5A
ENCODING 20058
SWIDTH 1000 0
SWIDTH1 1000 0
BBX 10 14 3 -1
BITMAP
8000
8000
8000
8000
8000
8000
8000
8000
8000
8000
8040
8040
8040
7FC0
ENDCHAR
STARTCHAR uni4E5B
ENCODING 20059
SWIDTH 1000 0
SWIDTH1 1000 0
BBX 12 4 1 7
BITMAP
FFF0
0010
0020
0040
ENDCHAR
STARTCHAR uni4E5C
ENCODING 20060
SWIDTH 1000 0
SWIDTH1 1000 0
BBX 13 12 1 -1
BITMAP
2060
21A0
2620
3820
E020
2020
2020
2060
2008
2008
2008
1FF8
ENDCHAR
STARTCHAR uni4E5D
ENCODING 20061
SWIDTH 1000 0
SWIDTH1 1000 0
BBX 13 14 1 -1
BITMAP
0800
0800
0800
7FC0
0840
0840
0840
0840
0840
1040
1040
2048
4048
8038
ENDCHAR
STARTCHAR uni4E5E
ENCODING 20062
SWIDTH 1000 0
SWIDTH1 1000 0
BBX 12 14 1 -1
BITMAP
1000
1000
1FF0
2000
4000
9FC0
0080
0300
0400
0800
1010
2010
2010
1FF0
ENDCHAR
STARTCHAR uni4E5F
ENCODING 20063
SWIDTH 1000 0
SWIDTH1 1000 0
BBX 13 14 1 -1
BITMAP
0200
0200
2260
23A0
2620
3A20
E220
2220
2220
2260
2208
2008
2008
1FF8
ENDCHAR
STARTCHAR uni4E60
ENCODING 20064
SWIDTH 1000 0
SWIDTH1 1000 0
BBX 12 13 1 -1
BITMAP
7FF0
0010
0010
1010
0810
0890
0310
0C10
3010
C010
0010
0020
00C0
ENDCHAR
STARTCHAR uni4E61
ENCODING 20065
SWIDTH 1000 0
SWIDTH1 1000 0
BBX 12 14 1 -1
BITMAP
0800
0840
1040
2080
7F00
0210
0410
1820
7FE0
0040
0080
0300
1C00
E000
ENDCHAR
STARTCHAR uni4E62
ENCODING 20066
SWIDTH 1000 0
SWIDTH1 1000 0
BBX 13 14 1 -1
BITMAP
1040
1040
1040
9240
9240
9240
9240
9240
9240
9240
9E40
E248
0048
0038
ENDCHAR
STARTCHAR uni4E63
ENCODING 20067
SWIDTH 1000 0
SWIDTH1 1000 0
BBX 13 14 1 -1
BITMAP
1080
1080
1080
2080
2480
4480
F880
0880
1080
2080
4880
FC88
0488
0078
ENDCHAR
STARTCHAR uni4E64
ENCODING 20068
SWIDTH 1000 0
SWIDTH1 1000 0
BBX 13 13 1 -1
BITMAP
FFF8
0200
0280
0240
0220
0200
0000
7FE0
0180
0E08
3008
4008
3FF8
ENDCHAR
STARTCHAR uni4E65
ENCODING 20069
SWIDTH 1000 0
SWIDTH1 1000 0
BBX 12 14 2 -1
BITMAP
03C0
FC00
0000
2080
1080
1100
0000
0000
FFC0
0300
1C10
6010
8010
7FF0
ENDCHAR
STARTCHAR uni4E66
ENCODING 20070
SWIDTH 1000 0
SWIDTH1 1000 0
BBX 13 14 1 -1
BITMAP
0420
0410
7FE8
0420
0420
0420
0420
FFF8
0408
0408
0408
0408
0430
0400
ENDCHAR
STARTCHAR uni4E67
ENCODING 20071
SWIDTH 1000 0
SWIDTH1 1000 0
BBX 13 14 1 -1
BITMAP
0880
0480
2080
1080
01F8
FE80
0080
0080
7FE0
0180
0E08
3008
4008
3FF8
ENDCHAR
STARTCHAR uni4E68
ENCODING 20072
SWIDTH 1000 0
SWIDTH1 1000 0
BBX 13 14 1 -1
BITMAP
1040
1040
2440
4240
FF40
0140
0040
7E40
4240
4240
4240
4248
7E48
4238
ENDCHAR
STARTCHAR uni4E69
ENCODING 20073
SWIDTH 1000 0
SWIDTH1 1000 0
BBX 12 14 2 -1
BITMAP
2080
2080
2080
3E80
2080
2080
2080
FC80
8480
8480
8480
8490
FC90
8470
ENDCHAR
STARTCHAR uni4E6A
ENCODING 20074
SWIDTH 1000 0
SWIDTH1 1000 0
BBX 13 13 1 -1
BITMAP
F7F0
1490
1490
1490
27F0
2490
2490
4490
4490
87F0
8008
8008
7FF8
ENDCHAR
STARTCHAR uni4E6B
ENCODING 20075
SWIDTH 1000 0
SWIDTH1 1000 0
BBX 13 14 1 -1
BITMAP
2000
FDF0
2510
2510
4510
45F0
9800
0000
7FE0
0180
0E08
3008
4008
3FF8
ENDCHAR
STARTCHAR uni4E6C
ENCODING 20076
SWIDTH 1000 0
SWIDTH1 1000 0
BBX 12 14 2 -1
BITMAP
FFE0
8000
FF80
8080
FF80
8000
FFE0
0000
FFC0
0300
1C10
6010
8010
7FF0
ENDCHAR
STARTCHAR uni4E6D
ENCODING 20077
SWIDTH 1000 0
SWIDTH1 1000 0
BBX 13 13 1 -1
BITMAP
FFF8
0800
1FE0
3020
5020
9FE0
0000
7FE0
0180
0E08
3008
4008
3FF8
ENDCHAR
STARTCHAR uni4E6E
ENCODING 20078
SWIDTH 1000 0
SWIDTH1 1000 0
BBX 13 14 1 -1
BITMAP
0C00
71F0
4510
4510
5D10
6910
1170
6100
0000
FFE0
0380
3C08
4008
3FF8
ENDCHAR
STARTCHAR uni4E6F
ENCODING 20079
SWIDTH 1000 0
SWIDTH1 1000 0
BBX 13 14 1 -1
BITMAP
01E0
7E00
2220
1240
FFF8
0200
0E00
0000
7FE0
0180
0E08
3008
4008
3FF8
ENDCHAR
STARTCHAR uni4E70
ENCODING 20080
SWIDTH 1000 0
SWIDTH1 1000 0
BBX 13 13 1 -1
BITMAP
7FF0
0010
0920
0500
2500
1100
1100
FFF8
0200
0480
0840
1020
6010
ENDCHAR
STARTCHAR uni4E71
ENCODING 20081
SWIDTH 1000 0
SWIDTH1 1000 0
BBX 13 14 1 -1
BITMAP
0080
0C80
7080
1080
1080
FC80
1080
1080
7C80
4480
4480
4488
7C88
4478
ENDCHAR
STARTCHAR uni4E72
ENCODING 20082
SWIDTH 1000 0
SWIDTH1 1000 0
BBX 13 14 1 -1
BITMAP
4200
23F0
0410
0920
0100
2280
4460
9818
0000
FFE0
0380
3C08
4008
3FF8
ENDCHAR
STARTCHAR uni4E73
ENCODING 20083
SWIDTH 1000 0
SWIDTH1 1000 0
BBX 13 14 1 -1
BITMAP
0E80
F080
2280
9280
5480
0080
FC80
0880
1080
1C80
F080
1088
1088
7078
ENDCHAR
STARTCHAR uni4E74
ENCODING 20084
SWIDTH 1000 0
SWIDTH1 1000 0
BBX 13 14 1 -1
BITMAP
1030
11C0
FD00
1100
1DF8
F120
1220
7420
0000
FFE0
0380
3C08
4008
3FF8
ENDCHAR
STARTCHAR uni4E75
ENCODING 20085
SWIDTH 1000 0
SWIDTH1 1000 0
BBX 13 14 1 -1
BITMAP
1040
0840
7F40
0040
2240
1440
FFC0
0840
0840
7F40
0840
0848
0848
0838
ENDCHAR
STARTCHAR uni4E76
ENCODING 20086
SWIDTH 1000 0
SWIDTH1 1000 0
BBX 13 14 1 -1
BITMAP
0220
FFF8
0200
7FF0
4210
7FF0
4210
7FF0
4210
0000
7FE0
1E00
6008
1FF8
ENDCHAR
STARTCHAR uni4E77
ENCODING 20087
SWIDTH 1000 0
SWIDTH1 1000 0
BBX 13 14 1 -1
BITMAP
2080
12A0
8290
5480
2020
41C0
4E00
0000
7FE0
0180
0E08
3008
4008
3FF8
ENDCHAR
STARTCHAR uni4E78
ENCODING 20088
SWIDTH 1000 0
SWIDTH1 1000 0
BBX 13 14 1 -1
BITMAP
1000
10F0
5490
5CD0
7490
D7F8
5510
5550
55F8
5410
5C18
5068
4008
3FF8
ENDCHAR
STARTCHAR uni4E79
ENCODING 20089
SWIDTH 1000 0
SWIDTH1 1000 0
BBX 13 14 1 -1
BITMAP
0840
0840
FF40
0840
7E40
4240
7E40
4240
7E40
0840
FF40
0848
0848
0838
ENDCHAR
STARTCHAR uni4E7A
ENCODING 20090
SWIDTH 1000 0
SWIDTH1 1000 0
BBX 13 13 1 -1
BITMAP
7DF0
4100
7DF8
4520
7D20
4220
8420
0000
FFE0
0380
3C08
4008
3FF8
ENDCHAR
STARTCHAR uni4E7B
ENCODING 20091
SWIDTH 1000 0
SWIDTH1 1000 0
BBX 13 14 1 -1
BITMAP
2040
1040
FEA0
2110
3C48
44A0
4440
9820
0000
FFE0
0380
3C08
4008
3FF8
ENDCHAR
STARTCHAR uni4E7C
ENCODING 20092
SWIDTH 1000 0
SWIDTH1 1000 0
BBX 13 14 1 -1
BITMAP
4200
2100
8FF0
4100
0FF0
2100
4100
9FF8
0000
FFE0
0380
3C08
4008
3FF8
ENDCHAR
STARTCHAR uni4E7D
ENCODING 20093
SWIDTH 1000 0
SWIDTH1 1000 0
BBX 13 14 1 -1
BITMAP
0400
3FD0
0420
FFF8
0300
1FE0
F020
1FE0
1020
FFE0
0380
3C08
4008
3FF8
ENDCHAR
STARTCHAR uni4E7E
ENCODING 20094
SWIDTH 1000 0
SWIDTH1 1000 0
BBX 13 14 1 -1
BITMAP
1100
1100
FDF8
1200
7C00
4400
7DF0
4410
7C20
1040
FC80
1108
1108
10F8
ENDCHAR
STARTCHAR uni4E7F
ENCODING 20095
SWIDTH 1000 0
SWIDTH1 1000 0
BBX 13 14 1 -1
BITMAP
0740
FA40
9240
4440
1040
2440
7840
1040
2240
FF40
0840
4A48
8948
3838
ENDCHAR
STARTCHAR uni4E80
ENCODING 20096
SWIDTH 1000 0
SWIDTH1 1000 0
BBX 12 14 2 -1
BITMAP
1000
3F00
4200
BF80
2480
3F80
2480
7FC0
4440
7FC0
4440
7FD0
4410
03F0
ENDCHAR
STARTCHAR uni4E81
ENCODING 20097
SWIDTH 1000 0
SWIDTH1 1000 0
BBX 13 14 1 -1
BITMAP
1040
FE40
10F8
7C80
4500
7CF0
4410
7C20
0040
7C40
1088
FE88
1078
1000
ENDCHAR
STARTCHAR uni4E82
ENCODING 20098
SWIDTH 1000 0
SWIDTH1 1000 0
BBX 13 14 1 -1
BITMAP
0E40
F240
5440
FC40
2840
FE40
9240
AA40
FE40
8240
BA40
AA48
9248
AE38
ENDCHAR
STARTCHAR uni4E83
ENCODING 20099
SWIDTH 1000 0
SWIDTH1 1000 0
BBX 13 14 1 -1
BITMAP
0840
4940
2A40
7F40
1C40
2A40
4940
A240
3740
5240
AA40
2F48
4248
8238
ENDCHAR
STARTCHAR uni4E84
ENCODING 20100
SWIDTH 1000 0
SWIDTH1 1000 0
BBX 13 14 1 -1
BITMAP
1040
FF40
1040
7E40
0040
FF40
8140
7E40
0040
7E40
4240
7E48
2448
FF38
ENDCHAR
STARTCHAR uni4E85
ENCODING 20101
SWIDTH 1000 0
SWIDTH1 1000 0
BBX 3 14 10 -1
BITMAP
20
20
20
20
20
20
20
20
20
20
20
20
20
E0
ENDCHAR
STARTCHAR uni4E86
ENCODING 20102
SWIDTH 1000 0
SWIDTH1 1000 0
BBX 11 14 2 -1
BITMAP
FFE0
0040
0080
0100
0200
0400
0400
0400
0400
0400
0400
0400
0400
1C00
ENDCHAR
STARTCHAR uni4E87
ENCODING 20103
SWIDTH 1000 0
SWIDTH1 1000 0
BBX 12 14 1 -1
BITMAP
1000
1000
1000
3FF0
2010
4220
8240
0200
0200
0200
0200
0200
0200
0E00
ENDCHAR
STARTCHAR uni4E88
ENCODING 20104
SWIDTH 1000 0
SWIDTH1 1000 0
BBX 13 13 1 -1
BITMAP
7FE0
0040
0880
0500
0200
FFF8
0210
0220
0200
0200
0200
0200
0E00
ENDCHAR
STARTCHAR uni4E89
ENCODING 20105
SWIDTH 1000 0
SWIDTH1 1000 0
BBX 13 14 1 -1
BITMAP
1000
1FC0
2080
4100
BFE0
0220
0220
FFF8
0220
0220
3FE0
0220
0200
0E00
ENDCHAR
STARTCHAR uni4E8A
ENCODING 20106
SWIDTH 1000 0
SWIDTH1 1000 0
BBX 13 14 1 -1
BITMAP
0200
0200
7FF0
2220
1240
7FE0
0220
FFF8
0220
7FE0
0220
0200
0200
0E00
ENDCHAR
STARTCHAR uni4E8B
ENCODING 20107
SWIDTH 1000 0
SWIDTH1 1000 0
BBX 13 14 1 -1
BITMAP
0200
FFF8
0200
3FE0
2220
3FE0
0200
3FE0
0220
FFF8
0220
3FE0
0200
0E00
ENDCHAR
STARTCHAR uni4E8C
ENCODING 20108
SWIDTH 1000 0
SWIDTH1 1000 0
BBX 13 11 1 0
BITMAP
7FF0
0000
0000
0000
0000
0000
0000
0000
0000
0000
FFF8
ENDCHAR
STARTCHAR uni4E8D
ENCODING 20109
SWIDTH 1000 0
SWIDTH1 1000 0
BBX 13 13 1 -1
BITMAP
7FF0
0000
0000
0000
0000
FFF8
0200
0200
0200
0200
0200
0200
0E00
ENDCHAR
STARTCHAR uni4E8E
ENCODING 20110
SWIDTH 1000 0
SWIDTH1 1000 0
BBX 13 13 1 -1
BITMAP
7FF0
0200
0200
0200
0200
FFF8
0200
0200
0200
0200
0200
0200
0E00
ENDCHAR
STARTCHAR uni4E8F
ENCODING 20111
SWIDTH 1000 0
SWIDTH1 1000 0
BBX 13 14 1 -1
BITMAP
3FE0
0000
0000
0000
FFF8
0800
1000
2000
3FE0
0020
0020
0020
0020
01C0
ENDCHAR
STARTCHAR uni4E90
ENCODING 20112
SWIDTH 1000 0
SWIDTH1 1000 0
BBX 13 14 1 -1
BITMAP
3FE0
0400
0400
0400
FFF8
0800
1000
2000
3FE0
0020
0020
0020
0020
01C0
ENDCHAR
STARTCHAR uni4E91
ENCODING 20113
SWIDTH 1000 0
SWIDTH1 1000 0
BBX 13 13 1 -1
BITMAP
3FE0
0000
0000
0000
FFF8
0400
0400
0800
0880
1040
2020
7FF0
0010
ENDCHAR
STARTCHAR uni4E92
ENCODING 20114
SWIDTH 1000 0
SWIDTH1 1000 0
BBX 13 13 1 -1
BITMAP
7FF0
0800
0800
0FC0
1040
1040
2040
2040
3F80
0080
0080
0080
FFF8
ENDCHAR
STARTCHAR uni4E93
ENCODING 20115
SWIDTH 1000 0
SWIDTH1 1000 0
BBX 13 13 1 -1
BITMAP
3FE0
0000
0000
0000
FFF8
1040
1040
1040
1040
2040
2040
4040
8040
ENDCHAR
STARTCHAR uni4E94
ENCODING 20116
SWIDTH 1000 0
SWIDTH1 1000 0
BBX 13 13 1 -1
BITMAP
7FF0
0400
0400
0400
0400
7FE0
0820
0820
0820
1020
1020
1020
FFF8
ENDCHAR
STARTCHAR uni4E95
ENCODING 20117
SWIDTH 1000 0
SWIDTH1 1000 0
BBX 13 14 1 -1
BITMAP
1040
1040
1040
7FF0
1040
1040
1040
1040
FFF8
1040
2040
2040
4040
8040
ENDCHAR
STARTCHAR uni4E96
ENCODING 20118
SWIDTH 1000 0
SWIDTH1 1000 0
BBX 13 13 1 -1
BITMAP
3FE0
0000
0000
0000
FFF8
0000
0000
0000
3FE0
0000
0000
0000
FFF8
ENDCHAR
STARTCHAR uni4E97
ENCODING 20119
SWIDTH 1000 0
SWIDTH1 1000 0
BBX 13 14 1 -1
BITMAP
0200
4210
4210
4210
7FF0
0000
0000
0000
7FF0
0000
0000
0000
0000
FFF8
ENDCHAR
STARTCHAR uni4E98
ENCODING 20120
SWIDTH 1000 0
SWIDTH1 1000 0
BBX 13 14 1 -1
BITMAP
7FF0
0000
0000
3FE0
2020
2020
3FE0
2020
2020
2020
3FE0
0000
0000
FFF8
ENDCHAR
STARTCHAR uni4E99
ENCODING 20121
SWIDTH 1000 0
SWIDTH1 1000 0
BBX 13 13 1 -1
BITMAP
7FF0
0800
0800
0FC0
1040
1440
2240
2040
0880
0480
0080
0080
FFF8
ENDCHAR
STARTCHAR uni4E9A
ENCODING 20122
SWIDTH 1000 0
SWIDTH1 1000 0
BBX 13 13 1 -1
BITMAP
7FF0
0880
0880
0880
8888
4888
4890
2890
28A0
0880
0880
0880
FFF8
ENDCHAR
STARTCHAR uni4E9B
ENCODING 20123
SWIDTH 1000 0
SWIDTH1 1000 0
BBX 13 14 1 -1
BITMAP
0880
0880
4890
4EA0
48C0
4888
4E88
F078
0000
0000
3FE0
0000
0000
FFF8
ENDCHAR
STARTCHAR uni4E9C
ENCODING 20124
SWIDTH 1000 0
SWIDTH1 1000 0
BBX 13 13 1 -1
BITMAP
7FF0
0880
0880
0880
7FF0
4890
4890
4890
7FF0
0880
0880
0880
FFF8
ENDCHAR
STARTCHAR uni4E9D
ENCODING 20125
SWIDTH 1000 0
SWIDTH1 1000 0
BBX 13 14 1 -1
BITMAP
0800
1040
2020
7FF0
0010
2040
4890
FDF8
0408
0000
7FF0
0000
0000
FFF8
ENDCHAR
STARTCHAR uni4E9E
ENCODING 20126
SWIDTH 1000 0
SWIDTH1 1000 0
BBX 13 13 1 -1
BITMAP
7FF0
0880
0880
0880
78F0
4010
4010
4010
78F0
0880
0880
0880
FFF8
ENDCHAR
STARTCHAR uni4E9F
ENCODING 20127
SWIDTH 1000 0
SWIDTH1 1000 0
BBX 13 13 1 -1
BITMAP
3FC0
0080
0100
7AF0
4A10
4B10
4AA0
4A40
7AA0
0310
0E00
0000
FFF8
ENDCHAR
STARTCHAR uni4EA0
ENCODING 20128
SWIDTH 1000 0
SWIDTH1 1000 0
BBX 13 4 1 9
BITMAP
0400
0200
0200
FFF8
ENDCHAR
STARTCHAR uni4EA1
ENCODING 20129
SWIDTH 1000 0
SWIDTH1 1000 0
BBX 13 14 1 -1
BITMAP
0400
0200
0200
0000
FFF8
2000
2000
2000
2000
2000
2000
2000
2000
3FF0
ENDCHAR
STARTCHAR uni4EA2
ENCODING 20130
SWIDTH 1000 0
SWIDTH1 1000 0
BBX 13 14 1 -1
BITMAP
0400
0200
0200
FFF8
0000
0000
1F80
1080
1080
1080
2080
2088
4088
8078
ENDCHAR
STARTCHAR uni4EA3
ENCODING 20131
SWIDTH 1000 0
SWIDTH1 1000 0
BBX 13 14 1 -1
BITMAP
0400
0200
0200
FFF8
0880
0880
0880
0880
0880
0880
1080
1080
2080
4080
ENDCHAR
STARTCHAR uni4EA4
ENCODING 20132
SWIDTH 1000 0
SWIDTH1 1000 0
BBX 13 14 1 -1
BITMAP
0400
0200
FFF8
0000
1040
2020
4010
1040
0880
0500
0200
0500
18C0
E038
ENDCHAR
STARTCHAR uni4EA5
ENCODING 20133
SWIDTH 1000 0
SWIDTH1 1000 0
BBX 13 14 1 -1
BITMAP
0400
0200
FFF8
0400
0840
1040
3F90
0110
0220
0C40
7080
0340
0C20
F010
ENDCHAR
STARTCHAR uni4EA6
ENCODING 20134
SWIDTH 1000 0
SWIDTH1 1000 0
BBX 13 14 1 -1
BITMAP
0400
0200
0200
FFF8
0880
0880
28A0
2890
4888
8888
1080
1080
2080
4380
ENDCHAR
STARTCHAR uni4EA7
ENCODING 20135
SWIDTH 1000 0
SWIDTH1 1000 0
BBX 13 14 1 -1
BITMAP
0400
0200
7FF0
0000
1040
0880
7FF8
4000
4000
4000
4000
4000
4000
8000
ENDCHAR
STARTCHAR uni4EA8
ENCODING 20136
SWIDTH 1000 0
SWIDTH1 1000 0
BBX 13 14 1 -1
BITMAP
0400
0200
FFF8
0000
3FE0
2020
3FE0
0000
7FE0
00C0
0300
0200
0200
0E00
ENDCHAR
STARTCHAR uni4EA9
ENCODING 20137
SWIDTH 1000 0
SWIDTH1 1000 0
BBX 13 14 1 -1
BITMAP
0400
0200
FFF8
0000
7FF0
4210
4210
4210
7FF0
4210
4210
4210
7FF0
4010
ENDCHAR
STARTCHAR uni4EAA
ENCODING 20138
SWIDTH 1000 0
SWIDTH1 1000 0
BBX 13 14 1 -1
BITMAP
0400
0200
FFF8
0880
4890
9088
2080
4380
0000
7FC0
0040
0040
0020
0018
ENDCHAR
STARTCHAR uni4EAB
ENCODING 20139
SWIDTH 1000 0
SWIDTH1 1000 0
BBX 13 14 1 -1
BITMAP
0200
FFF8
0000
3FE0
2020
3FE0
0000
3FE0
00C0
0300
FFF8
0200
0200
0E00
ENDCHAR
STARTCHAR uni4EAC
ENCODING 20140
SWIDTH 1000 0
SWIDTH1 1000 0
BBX 13 14 1 -1
BITMAP
0400
0200
FFF8
0000
3FE0
2020
2020
2020
3FE0
0200
1240
2220
4210
0E00
ENDCHAR
STARTCHAR uni4EAD
ENCODING 20141
SWIDTH 1000 0
SWIDTH1 1000 0
BBX 13 14 1 -1
BITMAP
0200
FFF8
0000
3FE0
2020
3FE0
0000
FFF8
8008
BFE8
0200
0200
0200
0E00
ENDCHAR
STARTCHAR uni4EAE
ENCODING 20142
SWIDTH 1000 0
SWIDTH1 1000 0
BBX 13 14 1 -1
BITMAP
0200
FFF8
0000
3FE0
2020
3FE0
0000
FFF8
8008
9FC8
1040
1040
2048
C038
ENDCHAR
STARTCHAR uni4EAF
ENCODING 20143
SWIDTH 1000 0
SWIDTH1 1000 0
BBX 13 14 1 -1
BITMAP
0400
0200
FFF8
0000
3FE0
2020
3FE0
0000
7FF0
4010
7FF0
4010
7FF0
4010
ENDCHAR
STARTCHAR uni4EB0
ENCODING 20144
SWIDTH 1000 0
SWIDTH1 1000 0
BBX 13 14 1 -1
BITMAP
0400
0200
FFF8
0000
3FE0
2020
3FE0
2020
3FE0
0200
1240
2220
4210
0E00
ENDCHAR
STARTCHAR uni4EB1
ENCODING 20145
SWIDTH 1000 0
SWIDTH1 1000 0
BBX 13 14 1 -1
BITMAP
0400
0200
FFF8
1000
17E0
2420
2420
67E0
A420
2420
27E0
2000
2FF8
2000
ENDCHAR
STARTCHAR uni4EB2
ENCODING 20146
SWIDTH 1000 0
SWIDTH1 1000 0
BBX 13 14 1 -1
BITMAP
0400
0200
7FF0
1040
0880
FFF8
0200
0200
7FF0
0200
1240
2220
4210
0E00
ENDCHAR
STARTCHAR uni4EB3
ENCODING 20147
SWIDTH 1000 0
SWIDTH1 1000 0
BBX 13 14 1 -1
BITMAP
0200
FFF8
0000
3FE0
2020
3FE0
0000
FFF8
8008
83C8
3C00
07F0
FC08
03F8
ENDCHAR
STARTCHAR uni4EB4
ENCODING 20148
SWIDTH 1000 0
SWIDTH1 1000 0
BBX 13 14 1 -1
BITMAP
0200
7FF0
0000
1FC0
1040
FFF8
8208
3FE0
0200
7FF0
0400
3FC0
0848
7038
ENDCHAR
STARTCHAR uni4EB5
ENCODING 20149
SWIDTH 1000 0
SWIDTH1 1000 0
BBX 13 14 1 -1
BITMAP
0200
FFF8
0000
2100
FBE0
2120
3B20
E128
2298
6608
0920
38C0
CA38
0C00
ENDCHAR
STARTCHAR uni4EB6
ENCODING 20150
SWIDTH 1000 0
SWIDTH1 1000 0
BBX 13 14 1 -1
BITMAP
0200
FFF8
0000
3FE0
28A0
2FA0
2020
3FE0
1040
1FC0
1040
1FC0
0000
FFF8
ENDCHAR
STARTCHAR uni4EB7
ENCODING 20151
SWIDTH 1000 0
SWIDTH1 1000 0
BBX 13 14 1 -1
BITMAP
0100
3FF0
0840
0480
7FF8
4480
5FF0
4490
7FF8
4490
5FF0
4CC0
54A0
A498
ENDCHAR
STARTCHAR uni4EB8
ENCODING 20152
SWIDTH 1000 0
SWIDTH1 1000 0
BBX 13 14 1 -1
BITMAP
1088
FE50
00F8
7CA8
44A8
7CF8
00A8
7CA8
08F8
1E20
F1F8
1020
1020
7020
ENDCHAR
STARTCHAR uni4EB9
ENCODING 20153
SWIDTH 1000 0
SWIDTH1 1000 0
BBX 13 14 1 -1
BITMAP
0200
FFF8
1000
6FB0
4890
6FB0
4890
FFF8
A028
3FE0
2020
3FE0
2020
FFF8
ENDCHAR
STARTCHAR uni4EBA
ENCODING 20154
SWIDTH 1000 0
SWIDTH1 1000 0
BBX 13 14 1 -1
BITMAP
0200
0200
0200
0200
0200
0200
0500
0500
0500
0880
0880
1040
2020
C018
ENDCHAR
STARTCHAR uni4EBB
ENCODING 20155
SWIDTH 1000 0
SWIDTH1 1000 0
BBX 4 14 1 -1
BITMAP
10
10
10
20
20
60
A0
20
20
20
20
20
20
20
ENDCHAR
STARTCHAR uni4EBC
ENCODING 20156
SWIDTH 1000 0
SWIDTH1 1000 0
BBX 13 14 1 -1
BITMAP
0200
0200
0200
0200
0500
0500
0880
1040
2020
C018
0000
0000
0000
FFF8
ENDCHAR
STARTCHAR uni4EBD
ENCODING 20157
SWIDTH 1000 0
SWIDTH1 1000 0
BBX 13 14 1 -1
BITMAP
0200
0200
0200
0500
0500
0880
1040
2020
4010
8408
0200
0100
0080
0080
ENDCHAR
STARTCHAR uni4EBE
ENCODING 20158
SWIDTH 1000 0
SWIDTH1 1000 0
BBX 12 14 2 -1
BITMAP
0200
0200
8200
8200
8500
8500
8880
8880
9040
A020
C010
8000
8000
FFF0
ENDCHAR
STARTCHAR uni4EBF
ENCODING 20159
SWIDTH 1000 0
SWIDTH1 1000 0
BBX 13 14 1 -1
BITMAP
1000
1000
17F0
2010
2020
6040
A080
2100
2200
2200
2400
2408
2408
23F8
ENDCHAR
STARTCHAR uni4EC0
ENCODING 20160
SWIDTH 1000 0
SWIDTH1 1000 0
BBX 13 14 1 -1
BITMAP
1080
1080
1080
2080
2080
6FF8
A080
2080
2080
2080
2080
2080
2080
2080
ENDCHAR
STARTCHAR uni4EC1
ENCODING 20161
SWIDTH 1000 0
SWIDTH1 1000 0
BBX 13 14 1 -1
BITMAP
1000
1000
17F0
2000
2000
6000
A000
2000
2000
2000
2000
2000
2FF8
2000
ENDCHAR
STARTCHAR uni4EC2
ENCODING 20162
SWIDTH 1000 0
SWIDTH1 1000 0
BBX 12 14 1 -1
BITMAP
1100
1100
1100
27F0
2110
6110
A110
2110
2110
2110
2210
2210
2410
2860
ENDCHAR
STARTCHAR uni4EC3
ENCODING 20163
SWIDTH 1000 0
SWIDTH1 1000 0
BBX 13 14 1 -1
BITMAP
1000
17F8
2040
2040
6040
A040
2040
2040
2040
2040
2040
2040
2040
21C0
ENDCHAR
STARTCHAR uni4EC4
ENCODING 20164
SWIDTH 1000 0
SWIDTH1 1000 0
BBX 13 13 1 -1
BITMAP
3FF8
2000
2000
2100
2100
2100
2100
2100
2280
2280
4440
4820
B018
ENDCHAR
STARTCHAR uni4EC5
ENCODING 20165
SWIDTH 1000 0
SWIDTH1 1000 0
BBX 13 14 1 -1
BITMAP
1000
17F0
2210
2210
6210
A210
2220
2120
2140
2080
2140
2220
2410
2808
ENDCHAR
STARTCHAR uni4EC6
ENCODING 20166
SWIDTH 1000 0
SWIDTH1 1000 0
BBX 13 14 1 -1
BITMAP
1080
1080
1080
2080
20C0
60A0
A090
2088
2088
2080
2080
2080
2080
2080
ENDCHAR
STARTCHAR uni4EC7
ENCODING 20167
SWIDTH 1000 0
SWIDTH1 1000 0
BBX 13 14 1 -1
BITMAP
2400
2400
2400
5FC0
4440
C440
4440
4440
4440
4440
4440
4848
4848
5038
ENDCHAR
STARTCHAR uni4EC8
ENCODING 20168
SWIDTH 1000 0
SWIDTH1 1000 0
BBX 13 14 1 -1
BITMAP
1040
1240
1240
2240
2240
6240
A240
2240
2220
2220
2420
2410
2810
3008
ENDCHAR
STARTCHAR uni4EC9
ENCODING 20169
SWIDTH 1000 0
SWIDTH1 1000 0
BBX 13 14 1 -1
BITMAP
1000
13E0
1220
2220
2220
6220
A220
2220
2220
2220
2220
2428
2428
2818
ENDCHAR
STARTCHAR uni4ECA
ENCODING 20170
SWIDTH 1000 0
SWIDTH1 1000 0
BBX 13 14 1 -1
BITMAP
0200
0200
0500
0880
1440
2220
C218
0000
3FC0
0040
0080
0080
0100
0200
ENDCHAR
STARTCHAR uni4ECB
ENCODING 20171
SWIDTH 1000 0
SWIDTH1 1000 0
BBX 13 14 1 -1
BITMAP
0200
0200
0500
0880
1040
2020
D058
1040
1040
1040
1040
1040
2040
4040
ENDCHAR
STARTCHAR uni4ECC
ENCODING 20172
SWIDTH 1000 0
SWIDTH1 1000 0
BBX 13 14 1 -1
BITMAP
0200
0200
0500
0880
1040
2220
C210
0200
0500
0500
0880
1040
2020
C018
ENDCHAR
STARTCHAR uni4ECD
ENCODING 20173
SWIDTH 1000 0
SWIDTH1 1000 0
BBX 13 14 1 -1
BITMAP
1000
17F0
2110
2110
6120
A120
2138
2108
2108
2108
2208
2208
2408
2870
ENDCHAR
STARTCHAR uni4ECE
ENCODING 20174
SWIDTH 1000 0
SWIDTH1 1000 0
BBX 13 14 1 -1
BITMAP
1080
1080
1080
1080
1080
1080
1080
2940
2540
2540
4220
4220
8410
0808
ENDCHAR
STARTCHAR uni4ECF
ENCODING 20175
SWIDTH 1000 0
SWIDTH1 1000 0
BBX 13 14 1 -1
BITMAP
1040
1040
1040
2040
2040
6080
A080
2100
2120
2210
2210
27F8
2008
2008
ENDCHAR
STARTCHAR uni4ED0
ENCODING 20176
SWIDTH 1000 0
SWIDTH1 1000 0
BBX 13 14 1 -1
BITMAP
0200
0200
0500
0880
1040
2220
C218
0200
0200
7FF0
0200
0200
0200
0200
ENDCHAR
STARTCHAR uni4ED1
ENCODING 20177
SWIDTH 1000 0
SWIDTH1 1000 0
BBX 13 14 1 -1
BITMAP
0200
0200
0500
0880
1040
2020
D018
10C0
1300
1C00
1000
1020
1020
0FE0
ENDCHAR
STARTCHAR uni4ED2
ENCODING 20178
SWIDTH 1000 0
SWIDTH1 1000 0
BBX 13 14 1 -1
BITMAP
0200
0200
0500
0880
1040
2020
CC18
0300
0080
0000
1800
0600
0180
0040
ENDCHAR
STARTCHAR uni4ED3
ENCODING 20179
SWIDTH 1000 0
SWIDTH1 1000 0
BBX 13 14 1 -1
BITMAP
0200
0500
0880
1040
2020
C018
1FC0
1040
1040
1040
1180
1010
1010
0FF0
ENDCHAR
STARTCHAR uni4ED4
ENCODING 20180
SWIDTH 1000 0
SWIDTH1 1000 0
BBX 13 14 1 -1
BITMAP
1000
17F0
1020
2040
2080
6080
AFF8
2080
2080
2080
2080
2080
2080
2380
ENDCHAR
STARTCHAR uni4ED5
ENCODING 20181
SWIDTH 1000 0
SWIDTH1 1000 0
BBX 13 14 1 -1
BITMAP
1080
1080
1080
2080
2080
6FF8
A080
2080
2080
2080
2080
2080
2080
27F0
ENDCHAR
STARTCHAR uni4ED6
ENCODING 20182
SWIDTH 1000 0
SWIDTH1 1000 0
BBX 13 14 1 -1
BITMAP
1080
1080
1490
24B0
25D0
6E90
A490
2490
2490
24B0
2480
2408
2408
23F8
ENDCHAR
STARTCHAR uni4ED7
ENCODING 20183
SWIDTH 1000 0
SWIDTH1 1000 0
BBX 13 14 1 -1
BITMAP
1040
1040
1040
2FF8
2040
6040
A440
2440
2240
2140
2080
2140
2220
2C18
ENDCHAR
STARTCHAR uni4ED8
ENCODING 20184
SWIDTH 1000 0
SWIDTH1 1000 0
BBX 13 14 1 -1
BITMAP
1020
1020
2020
27F8
6020
A020
2220
2120
2120
2020
2020
2020
2020
20E0
ENDCHAR
STARTCHAR uni4ED9
ENCODING 20185
SWIDTH 1000 0
SWIDTH1 1000 0
BBX 13 14 1 -1
BITMAP
1080
1080
2080
2888
6888
A888
2888
2888
2888
2888
2888
2888
2FF8
2008
ENDCHAR
STARTCHAR uni4EDA
ENCODING 20186
SWIDTH 1000 0
SWIDTH1 1000 0
BBX 13 14 1 -1
BITMAP
0200
0200
0500
0880
1040
2020
C218
0200
4210
4210
4210
4210
7FF0
0010
ENDCHAR
STARTCHAR uni4EDB
ENCODING 20187
SWIDTH 1000 0
SWIDTH1 1000 0
BBX 13 14 1 -1
BITMAP
1000
1070
1780
2080
2080
6080
A0F8
2F80
2080
2080
2080
2088
2088
2078
ENDCHAR
STARTCHAR uni4EDC
ENCODING 20188
SWIDTH 1000 0
SWIDTH1 1000 0
BBX 13 14 1 -1
BITMAP
1000
1000
17F0
2080
2080
6080
A080
2080
2080
2080
2080
2080
2080
2FF8
ENDCHAR
STARTCHAR uni4EDD
ENCODING 20189
SWIDTH 1000 0
SWIDTH1 1000 0
BBX 13 14 1 -1
BITMAP
0200
0200
0500
0880
1040
2020
C018
3FE0
0200
0200
0200
0200
0200
FFF8
ENDCHAR
STARTCHAR uni4EDE
ENCODING 20190
SWIDTH 1000 0
SWIDTH1 1000 0
BBX 13 14 1 -1
BITMAP
1000
17F8
1088
2088
2288
6288
A288
2488
2088
2088
2108
2108
2208
2430
ENDCHAR
STARTCHAR uni4EDF
ENCODING 20191
SWIDTH 1000 0
SWIDTH1 1000 0
BBX 13 14 1 -1
BITMAP
1070
1780
1080
2080
2080
6080
AFF8
2080
2080
2080
2080
2080
2080
2080
ENDCHAR
STARTCHAR uni4EE0
ENCODING 20192
SWIDTH 1000 0
SWIDTH1 1000 0
BBX 13 14 1 -1
BITMAP
1000
17F0
1080
2080
2080
6080
AFF8
2080
2080
2080
2080
2080
2080
2080
ENDCHAR
STARTCHAR uni4EE1
ENCODING 20193
SWIDTH 1000 0
SWIDTH1 1000 0
BBX 13 14 1 -1
BITMAP
1200
1200
13F8
2400
2800
6000
A3F0
2020
2040
2080
2100
2208
2208
21F8
ENDCHAR
STARTCHAR uni4EE2
ENCODING 20194
SWIDTH 1000 0
SWIDTH1 1000 0
BBX 13 14 1 -1
BITMAP
1100
1100
11F8
2208
2408
6008
A108
2088
2088
2008
2008
2008
2008
2030
ENDCHAR
STARTCHAR uni4EE3
ENCODING 20195
SWIDTH 1000 0
SWIDTH1 1000 0
BBX 13 14 1 -1
BITMAP
1100
1120
1110
2110
2138
6FC0
A100
2100
2080
2080
2048
2028
2018
2008
ENDCHAR
STARTCHAR uni4EE4
ENCODING 20196
SWIDTH 1000 0
SWIDTH1 1000 0
BBX 13 14 1 -1
BITMAP
0200
0500
0880
1040
2420
C218
0200
3FE0
0020
0040
0080
1D00
0300
00C0
ENDCHAR
STARTCHAR uni4EE5
ENCODING 20197
SWIDTH 1000 0
SWIDTH1 1000 0
BBX 13 14 1 -1
BITMAP
1040
8840
8440
8440
8040
8040
8040
8040
9080
A0A0
C110
8210
0C08
3008
ENDCHAR
STARTCHAR uni4EE6
ENCODING 20198
SWIDTH 1000 0
SWIDTH1 1000 0
BBX 13 14 1 -1
BITMAP
1080
1080
1080
2080
2080
62A0
A290
2490
2488
2888
2080
2080
2080
2380
ENDCHAR
STARTCHAR uni4EE7
ENCODING 20199
SWIDTH 1000 0
SWIDTH1 1000 0
BBX 13 14 1 -1
BITMAP
0400
0400
07E0
0400
0400
0400
FFF8
0000
0200
0200
0500
0880
3060
C018
ENDCHAR
STARTCHAR uni4EE8
ENCODING 20200
SWIDTH 1000 0
SWIDTH1 1000 0
BBX 13 14 1 -1
BITMAP
1000
1000
17F0
2000
2000
6000
A000
23E0
2000
2000
2000
2000
2000
2FF8
ENDCHAR
STARTCHAR uni4EE9
ENCODING 20201
SWIDTH 1000 0
SWIDTH1 1000 0
BBX 13 14 1 -1
BITMAP
1080
1080
1080
2080
2080
60F0
A080
2080
2080
2080
2080
2080
2080
2FF8
ENDCHAR
STARTCHAR uni4EEA
ENCODING 20202
SWIDTH 1000 0
SWIDTH1 1000 0
BBX 13 14 1 -1
BITMAP
1100
1080
1090
2410
2410
6220
A220
2140
2140
2080
2140
2220
2410
2808
ENDCHAR
STARTCHAR uni4EEB
ENCODING 20203
SWIDTH 1000 0
SWIDTH1 1000 0
BBX 13 14 1 -1
BITMAP
1080
1080
1100
2100
2220
6220
A440
2840
2080
2100
2210
2408
2FF8
2008
ENDCHAR
STARTCHAR uni4EEC
ENCODING 20204
SWIDTH 1000 0
SWIDTH1 1000 0
BBX 13 14 1 -1
BITMAP
1400
1200
20F8
2408
6408
A408
2408
2408
2408
2408
2408
2408
2408
2438
ENDCHAR
STARTCHAR uni4EED
ENCODING 20205
SWIDTH 1000 0
SWIDTH1 1000 0
BBX 13 14 1 -1
BITMAP
1000
17E0
1220
2220
2A20
6620
A220
23A0
2260
2238
2420
2420
2820
30C0
ENDCHAR
STARTCHAR uni4EEE
ENCODING 20206
SWIDTH 1000 0
SWIDTH1 1000 0
BBX 13 14 1 -1
BITMAP
1000
1038
17C0
2400
2400
67F0
A510
2510
2510
24A0
24A0
2840
28A0
3318
ENDCHAR
STARTCHAR uni4EEF
ENCODING 20207
SWIDTH 1000 0
SWIDTH1 1000 0
BBX 13 14 1 -1
BITMAP
1080
1080
1080
22A0
2290
6488
A888
2080
2090
2020
2040
2080
2300
2C00
ENDCHAR
STARTCHAR uni4EF0
ENCODING 20208
SWIDTH 1000 0
SWIDTH1 1000 0
BBX 13 14 1 -1
BITMAP
1000
1080
1778
2448
2448
6448
A448
2448
2448
2548
2658
2440
2040
2040
ENDCHAR
STARTCHAR uni4EF1
ENCODING 20209
SWIDTH 1000 0
SWIDTH1 1000 0
BBX 13 14 1 -1
BITMAP
1080
1080
1140
2140
2220
6510
A888
2080
27F0
2010
2020
2020
2040
2080
ENDCHAR
STARTCHAR uni4EF2
ENCODING 20210
SWIDTH 1000 0
SWIDTH1 1000 0
BBX 13 14 1 -1
BITMAP
1080
1080
2080
2FF8
6888
A888
2888
2888
2FF8
2888
2080
2080
2080
2080
ENDCHAR
STARTCHAR uni4EF3
ENCODING 20211
SWIDTH 1000 0
SWIDTH1 1000 0
BBX 13 14 1 -1
BITMAP
1040
1440
1440
2448
2450
6760
A440
2440
2440
2440
2440
2548
2648
2438
ENDCHAR
STARTCHAR uni4EF4
ENCODING 20212
SWIDTH 1000 0
SWIDTH1 1000 0
BBX 13 14 1 -1
BITMAP
1000
13F8
1208
2208
2208
63F8
A208
2208
23F8
2208
2208
2408
2408
2838
ENDCHAR
STARTCHAR uni4EF5
ENCODING 20213
SWIDTH 1000 0
SWIDTH1 1000 0
BBX 13 14 1 -1
BITMAP
1200
1200
17F0
2480
2880
6080
A080
2FF8
2080
2080
2080
2080
2080
2080
ENDCHAR
STARTCHAR uni4EF6
ENCODING 20214
SWIDTH 1000 0
SWIDTH1 1000 0
BBX 13 14 1 -1
BITMAP
1080
1480
2480
27F0
6880
A080
2080
2080
2FF8
2080
2080
2080
2080
2080
ENDCHAR
STARTCHAR uni4EF7
ENCODING 20215
SWIDTH 1000 0
SWIDTH1 1000 0
BBX 13 14 1 -1
BITMAP
1080
1080
1140
2220
2410
6808
A220
2220
2220
2220
2220
2420
2420
2820
ENDCHAR
STARTCHAR uni4EF8
ENCODING 20216
SWIDTH 1000 0
SWIDTH1 1000 0
BBX 13 14 1 -1
BITMAP
1000
1070
1780
2080
2080
6080
AFF8
2080
2080
2140
2140
2220
2410
2808
ENDCHAR
STARTCHAR uni4EF9
ENCODING 20217
SWIDTH 1000 0
SWIDTH1 1000 0
BBX 13 14 1 -1
BITMAP
1080
1080
1080
2FF8
2080
6080
A7F0
2080
2080
2FF8
2080
2080
2080
2080
ENDCHAR
STARTCHAR uni4EFA
ENCODING 20218
SWIDTH 1000 0
SWIDTH1 1000 0
BBX 13 14 1 -1
BITMAP
0200
0500
0880
3060
C018
0000
3FE0
2000
2000
3FE0
2000
2000
2000
3FF0
ENDCHAR
STARTCHAR uni4EFB
ENCODING 20219
SWIDTH 1000 0
SWIDTH1 1000 0
BBX 13 14 1 -1
BITMAP
1000
1070
1780
2080
2080
6080
A080
2FF8
2080
2080
2080
2080
2080
27F0
ENDCHAR
STARTCHAR uni4EFC
ENCODING 20220
SWIDTH 1000 0
SWIDTH1 1000 0
BBX 13 14 1 -1
BITMAP
1000
17F0
1080
2080
2080
6080
A080
27F0
2080
2080
2080
2080
2080
2FF8
ENDCHAR
STARTCHAR uni4EFD
ENCODING 20221
SWIDTH 1000 0
SWIDTH1 1000 0
BBX 13 14 1 -1
BITMAP
1040
1240
1220
2420
2410
6808
A7E0
2220
2220
2220
2220
2420
2420
28C0
ENDCHAR
STARTCHAR uni4EFE
ENCODING 20222
SWIDTH 1000 0
SWIDTH1 1000 0
BBX 13 14 1 -1
BITMAP
1000
1FF8
1200
2200
23F0
6210
A210
2410
2410
27F0
2020
2020
2020
2FF8
ENDCHAR
STARTCHAR uni4EFF
ENCODING 20223
SWIDTH 1000 0
SWIDTH1 1000 0
BBX 13 14 1 -1
BITMAP
1100
1080
1000
2FF8
2200
6200
A3F0
2210
2210
2210
2210
2410
2410
2860
ENDCHAR
STARTCHAR uni4F00
ENCODING 20224
SWIDTH 1000 0
SWIDTH1 1000 0
BBX 13 14 1 -1
BITMAP
1040
1240
1240
2220
2420
6490
A888
2100
2100
2240
2220
2420
2FF0
2010
ENDCHAR
STARTCHAR uni4F01
ENCODING 20225
SWIDTH 1000 0
SWIDTH1 1000 0
BBX 13 14 1 -1
BITMAP
0200
0500
0880
1040
2220
C218
0200
1200
13E0
1200
1200
1200
1200
FFF8
ENDCHAR
STARTCHAR uni4F02
ENCODING 20226
SWIDTH 1000 0
SWIDTH1 1000 0
BBX 13 14 1 -1
BITMAP
1080
1080
2FF8
2080
6080
A7F0
2490
2490
2490
2490
2490
24B0
2080
2080
ENDCHAR
STARTCHAR uni4F03
ENCODING 20227
SWIDTH 1000 0
SWIDTH1 1000 0
BBX 12 14 1 -1
BITMAP
1000
17E0
1020
2140
2080
6FF0
A090
20A0
2080
2080
2080
2080
2080
2380
ENDCHAR
STARTCHAR uni4F04
ENCODING 20228
SWIDTH 1000 0
SWIDTH1 1000 0
BBX 13 14 1 -1
BITMAP
1000
17F0
1090
2090
27F0
6480
A480
27F8
2088
2088
2088
20B0
2080
2080
ENDCHAR
STARTCHAR uni4F05
ENCODING 20229
SWIDTH 1000 0
SWIDTH1 1000 0
BBX 13 14 1 -1
BITMAP
1080
1080
17F8
2080
2080
6490
A490
2490
27F0
2080
2080
2088
2088
2078
ENDCHAR
STARTCHAR uni4F06
ENCODING 20230
SWIDTH 1000 0
SWIDTH1 1000 0
BBX 12 14 1 -1
BITMAP
1200
1200
13F0
2550
2950
6150
A250
2250
2490
2890
2110
2210
2410
2060
ENDCHAR
STARTCHAR uni4F07
ENCODING 20231
SWIDTH 1000 0
SWIDTH1 1000 0
BBX 13 14 1 -1
BITMAP
1000
13E0
1220
2220
2220
6418
A800
27F0
2210
2220
2140
2080
2360
2C18
ENDCHAR
STARTCHAR uni4F08
ENCODING 20232
SWIDTH 1000 0
SWIDTH1 1000 0
BBX 13 14 1 -1
BITMAP
1000
1080
1040
2040
2200
6200
A210
2A08
2A08
2A08
3200
2210
2210
21F0
ENDCHAR
STARTCHAR uni4F09
ENCODING 20233
SWIDTH 1000 0
SWIDTH1 1000 0
BBX 13 14 1 -1
BITMAP
1100
1080
2000
2FF8
6000
A000
23E0
2220
2220
2220
2220
2428
2428
2818
ENDCHAR
STARTCHAR uni4F0A
ENCODING 20234
SWIDTH 1000 0
SWIDTH1 1000 0
BBX 13 14 1 -1
BITMAP
1000
17F0
1110
2110
2FF8
6110
A110
27F0
2110
2100
2200
2200
2400
2800
ENDCHAR
STARTCHAR uni4F0B
ENCODING 20235
SWIDTH 1000 0
SWIDTH1 1000 0
BBX 13 14 1 -1
BITMAP
1000
17E0
1220
2220
2240
6280
A2F0
2210
2210
2320
22A0
2440
24A0
2918
ENDCHAR
STARTCHAR uni4F0C
ENCODING 20236
SWIDTH 1000 0
SWIDTH1 1000 0
BBX 13 14 1 -1
BITMAP
1000
17F8
1400
2400
25F0
6510
A510
2510
2510
2560
2500
2508
2508
28F8
ENDCHAR
STARTCHAR uni4F0D
ENCODING 20237
SWIDTH 1000 0
SWIDTH1 1000 0
BBX 13 14 1 -1
BITMAP
2000
3FF0
2200
4200
4200
C200
5FE0
4420
4420
4420
4420
4420
4420
5FF8
ENDCHAR
STARTCHAR uni4F0E
ENCODING 20238
SWIDTH 1000 0
SWIDTH1 1000 0
BBX 13 14 1 -1
BITMAP
1080
1080
1080
2FF8
2080
6080
A7E0
2220
2220
2140
2080
2140
2220
2C18
ENDCHAR
STARTCHAR uni4F0F
ENCODING 20239
SWIDTH 1000 0
SWIDTH1 1000 0
BBX 13 14 1 -1
BITMAP
1080
10A0
2090
2090
6FF8
A080
2080
2140
2140
2140
2220
2220
2410
2808
ENDCHAR
STARTCHAR uni4F10
ENCODING 20240
SWIDTH 1000 0
SWIDTH1 1000 0
BBX 13 14 1 -1
BITMAP
1100
1120
1110
2110
2138
6FC0
A110
2120
20C0
2080
2148
2228
2C18
2008
ENDCHAR
STARTCHAR uni4F11
ENCODING 20241
SWIDTH 1000 0
SWIDTH1 1000 0
BBX 13 14 1 -1
BITMAP
1080
1080
1080
27F8
2080
61C0
A1C0
22A0
22A0
2490
2888
2080
2080
2080
ENDCHAR
STARTCHAR uni4F12
ENCODING 20242
SWIDTH 1000 0
SWIDTH1 1000 0
BBX 13 14 1 -1
BITMAP
1030
13C0
2200
2200
6200
A3F8
2220
2220
2220
2220
2220
2420
2420
2820
ENDCHAR
STARTCHAR uni4F13
ENCODING 20243
SWIDTH 1000 0
SWIDTH1 1000 0
BBX 13 14 1 -1
BITMAP
1000
17F8
1040
2040
2080
6080
A1A0
2290
2488
2888
2080
2080
2080
2080
ENDCHAR
STARTCHAR uni4F14
ENCODING 20244
SWIDTH 1000 0
SWIDTH1 1000 0
BBX 13 14 1 -1
BITMAP
2000
2FF0
2810
4810
4000
C7C0
4440
4440
4440
4440
4440
4848
4848
5038
ENDCHAR
STARTCHAR uni4F15
ENCODING 20245
SWIDTH 1000 0
SWIDTH1 1000 0
BBX 13 14 1 -1
BITMAP
1080
1080
2080
23F0
6080
A080
2080
27F8
2080
2140
2140
2220
2410
2808
ENDCHAR
STARTCHAR uni4F16
ENCODING 20246
SWIDTH 1000 0
SWIDTH1 1000 0
BBX 13 14 1 -1
BITMAP
1100
1100
1100
2FF8
2100
6100
A3F0
2290
2290
24A0
24A0
2840
20A0
2318
ENDCHAR
STARTCHAR uni4F17
ENCODING 20247
SWIDTH 1000 0
SWIDTH1 1000 0
BBX 13 14 1 -1
BITMAP
0200
0200
0500
0880
1040
2020
D058
1040
1040
1040
28A0
24A0
4510
8208
ENDCHAR
STARTCHAR uni4F18
ENCODING 20248
SWIDTH 1000 0
SWIDTH1 1000 0
BBX 13 14 1 -1
BITMAP
1100
1120
1110
2100
27F8
6140
A140
2140
2140
2140
2240
2248
2448
2838
ENDCHAR
STARTCHAR uni4F19
ENCODING 20249
SWIDTH 1000 0
SWIDTH1 1000 0
BBX 13 14 1 -1
BITMAP
1080
1080
1090
2490
2490
64A0
A880
2140
2140
2140
2220
2220
2410
2808
ENDCHAR
STARTCHAR uni4F1A
ENCODING 20250
SWIDTH 1000 0
SWIDTH1 1000 0
BBX 13 14 1 -1
BITMAP
0200
0500
0880
1040
2020
DFD8
0000
0000
7FF0
0400
0880
1040
3FE0
0020
ENDCHAR
STARTCHAR uni4F1B
ENCODING 20251
SWIDTH 1000 0
SWIDTH1 1000 0
BBX 13 14 1 -1
BITMAP
1000
17F8
1400
2410
2610
6520
A4A0
2440
24A0
2510
2610
2400
2400
27F8
ENDCHAR
STARTCHAR uni4F1C
ENCODING 20252
SWIDTH 1000 0
SWIDTH1 1000 0
BBX 13 14 1 -1
BITMAP
1100
1100
17E0
2120
2120
6220
A428
2898
2080
2FF8
2080
2080
2080
2080
ENDCHAR
STARTCHAR uni4F1D
ENCODING 20253
SWIDTH 1000 0
SWIDTH1 1000 0
BBX 13 14 1 -1
BITMAP
1000
13F0
1000
2000
2000
67F8
A080
2080
2080
2100
2110
2208
27F8
2008
ENDCHAR
STARTCHAR uni4F1E
ENCODING 20254
SWIDTH 1000 0
SWIDTH1 1000 0
BBX 13 14 1 -1
BITMAP
0200
0500
0880
3060
C218
0200
2220
1240
0200
FFF8
0200
0200
0200
0200
ENDCHAR
STARTCHAR uni4F1F
ENCODING 20255
SWIDTH 1000 0
SWIDTH1 1000 0
BBX 13 14 1 -1
BITMAP
1080
1080
17F8
2080
2080
67F0
A080
2080
2FF8
2088
2088
2088
20B0
2080
ENDCHAR
STARTCHAR uni4F20
ENCODING 20256
SWIDTH 1000 0
SWIDTH1 1000 0
BBX 13 14 1 -1
BITMAP
1080
1080
17F0
2080
2100
6FF8
A100
2200
27F0
2010
2020
2140
2080
2040
ENDCHAR
STARTCHAR uni4F21
ENCODING 20257
SWIDTH 1000 0
SWIDTH1 1000 0
BBX 13 14 1 -1
BITMAP
1100
1100
2FF0
2200
6280
A480
2FF0
2080
2080
2080
2FF8
2080
2080
2080
ENDCHAR
STARTCHAR uni4F22
ENCODING 20258
SWIDTH 1000 0
SWIDTH1 1000 0
BBX 13 14 1 -1
BITMAP
1000
17F8
1020
2220
2220
6420
A7F8
20A0
2120
2120
2220
2420
2820
20E0
ENDCHAR
STARTCHAR uni4F23
ENCODING 20259
SWIDTH 1000 0
SWIDTH1 1000 0
BBX 13 14 1 -1
BITMAP
1000
17F0
1410
2490
2490
6490
A490
2490
2490
2140
2140
2248
2448
2838
ENDCHAR
STARTCHAR uni4F24
ENCODING 20260
SWIDTH 1000 0
SWIDTH1 1000 0
BBX 13 14 1 -1
BITMAP
1200
1200
13F8
2400
2900
6100
A7F0
2110
2110
2110
2210
2210
2410
2860
ENDCHAR
STARTCHAR uni4F25
ENCODING 20261
SWIDTH 1000 0
SWIDTH1 1000 0
BBX 13 14 1 -1
BITMAP
1200
1210
1220
2240
2280
6200
AFF8
2240
2240
2220
2220
2290
2308
2200
ENDCHAR
STARTCHAR uni4F26
ENCODING 20262
SWIDTH 1000 0
SWIDTH1 1000 0
BBX 13 14 1 -1
BITMAP
1080
1080
1140
2140
2220
6410
AA08
2220
2240
2380
2200
2210
2210
21F0
ENDCHAR
STARTCHAR uni4F27
ENCODING 20263
SWIDTH 1000 0
SWIDTH1 1000 0
BBX 13 14 1 -1
BITMAP
1080
1080
2140
2220
6410
A808
23E0
2220
2220
2220
22C0
2208
2208
21F8
ENDCHAR
STARTCHAR uni4F28
ENCODING 20264
SWIDTH 1000 0
SWIDTH1 1000 0
BBX 13 14 1 -1
BITMAP
1200
1200
13F8
2408
2508
6888
A088
2008
2048
2088
2108
2608
2008
2030
ENDCHAR
STARTCHAR uni4F29
ENCODING 20265
SWIDTH 1000 0
SWIDTH1 1000 0
BBX 13 14 1 -1
BITMAP
1100
1080
1080
27F8
2220
6220
A220
2220
2140
2140
2080
2140
2220
2C18
ENDCHAR
STARTCHAR uni4F2A
ENCODING 20266
SWIDTH 1000 0
SWIDTH1 1000 0
BBX 13 14 1 -1
BITMAP
1080
1480
1280
2080
27F8
6088
A088
2148
2128
2128
2208
2208
2408
2830
ENDCHAR
STARTCHAR uni4F2B
ENCODING 20267
SWIDTH 1000 0
SWIDTH1 1000 0
BBX 13 14 1 -1
BITMAP
1080
1040
1040
27F8
2408
6408
A000
2000
2000
2000
2000
2000
27F8
2000
ENDCHAR
STARTCHAR uni4F2C
ENCODING 20268
SWIDTH 1000 0
SWIDTH1 1000 0
BBX 13 14 1 -1
BITMAP
1000
13F0
1210
2210
2210
6210
A3F0
2240
2240
2240
2220
2420
2410
2808
ENDCHAR
STARTCHAR uni4F2D
ENCODING 20269
SWIDTH 1000 0
SWIDTH1 1000 0
BBX 13 14 1 -1
BITMAP
1080
1040
17F8
2080
2100
6110
A210
27E0
2040
2080
2120
2210
27F8
2008
ENDCHAR
STARTCHAR uni4F2E
ENCODING 20270
SWIDTH 1000 0
SWIDTH1 1000 0
BBX 13 14 1 -1
BITMAP
1400
1400
24F0
2450
6F50
A550
2550
2550
2920
2520
2220
2550
2950
3088
ENDCHAR
STARTCHAR uni4F2F
ENCODING 20271
SWIDTH 1000 0
SWIDTH1 1000 0
BBX 13 14 1 -1
BITMAP
1080
1100
17F8
2408
2408
6408
A408
27F8
2408
2408
2408
2408
27F8
2408
ENDCHAR
STARTCHAR uni4F30
ENCODING 20272
SWIDTH 1000 0
SWIDTH1 1000 0
BBX 13 14 1 -1
BITMAP
1080
1080
1080
27F8
2080
6080
A080
27F0
2410
2410
2410
2410
27F0
2410
ENDCHAR
STARTCHAR uni4F31
ENCODING 20273
SWIDTH 1000 0
SWIDTH1 1000 0
BBX 13 14 1 -1
BITMAP
1080
1080
1140
2140
2220
6410
A888
2080
24A0
2490
2890
2080
2080
2380
ENDCHAR
STARTCHAR uni4F32
ENCODING 20274
SWIDTH 1000 0
SWIDTH1 1000 0
BBX 13 14 1 -1
BITMAP
1000
17F0
1410
2410
27F0
6400
A500
2510
2560
2580
2500
2908
2908
30F8
ENDCHAR
STARTCHAR uni4F33
ENCODING 20275
SWIDTH 1000 0
SWIDTH1 1000 0
BBX 13 14 1 -1
BITMAP
1090
1490
1490
2490
2FF8
6490
A490
2490
2490
2490
24F0
2400
2400
27F8
ENDCHAR
STARTCHAR uni4F34
ENCODING 20276
SWIDTH 1000 0
SWIDTH1 1000 0
BBX 13 14 1 -1
BITMAP
1080
1490
1290
22A0
2080
67F0
A080
2080
2080
2FF8
2080
2080
2080
2080
ENDCHAR
STARTCHAR uni4F35
ENCODING 20277
SWIDTH 1000 0
SWIDTH1 1000 0
BBX 13 14 1 -1
BITMAP
1000
17F8
2528
2528
6528
A528
2528
2528
2538
2608
2408
2408
27F8
2408
ENDCHAR
STARTCHAR uni4F36
ENCODING 20278
SWIDTH 1000 0
SWIDTH1 1000 0
BBX 13 14 1 -1
BITMAP
1080
1080
1140
2220
2510
6888
A000
27F0
2010
2020
2240
2180
2080
2040
ENDCHAR
STARTCHAR uni4F37
ENCODING 20279
SWIDTH 1000 0
SWIDTH1 1000 0
BBX 13 14 1 -1
BITMAP
1080
1080
2080
2FF8
6888
A888
2888
2FF8
2888
2888
2888
2888
2FF8
2808
ENDCHAR
STARTCHAR uni4F38
ENCODING 20280
SWIDTH 1000 0
SWIDTH1 1000 0
BBX 12 14 1 -1
BITMAP
1080
1080
17F0
2490
2490
6490
A7F0
2490
2490
2490
27F0
2490
2080
2080
ENDCHAR
STARTCHAR uni4F39
ENCODING 20281
SWIDTH 1000 0
SWIDTH1 1000 0
BBX 13 14 1 -1
BITMAP
1000
17F0
1410
2410
2410
67F0
A410
2410
2410
27F0
2410
2410
2410
2FF8
ENDCHAR
STARTCHAR uni4F3A
ENCODING 20282
SWIDTH 1000 0
SWIDTH1 1000 0
BBX 13 14 1 -1
BITMAP
1000
17F8
2008
2008
6FE8
A008
2008
27C8
2448
2448
27C8
2408
2008
2038
ENDCHAR
STARTCHAR uni4F3B
ENCODING 20283
SWIDTH 1000 0
SWIDTH1 1000 0
BBX 13 14 1 -1
BITMAP
1000
17F0
1080
2080
2490
6290
A2A0
2080
2FF8
2080
2080
2080
2080
2080
ENDCHAR
STARTCHAR uni4F3C
ENCODING 20284
SWIDTH 1000 0
SWIDTH1 1000 0
BBX 13 14 1 -1
BITMAP
1020
1120
14A0
24A0
24A0
6420
A420
2420
2420
2550
2650
2488
2108
2208
ENDCHAR
STARTCHAR uni4F3D
ENCODING 20285
SWIDTH 1000 0
SWIDTH1 1000 0
BBX 13 14 1 -1
BITMAP
1200
1200
1200
27B8
22A8
62A8
A2A8
22A8
22A8
22A8
22A8
24B8
24A8
2B00
ENDCHAR
STARTCHAR uni4F3E
ENCODING 20286
SWIDTH 1000 0
SWIDTH1 1000 0
BBX 13 14 1 -1
BITMAP
1000
17F8
1040
2040
2080
61A0
A290
2488
2888
2080
2080
2080
2000
2FF8
ENDCHAR
STARTCHAR uni4F3F
ENCODING 20287
SWIDTH 1000 0
SWIDTH1 1000 0
BBX 13 14 1 -1
BITMAP
1000
17F0
1410
2410
2410
6410
A410
27F0
2000
2000
2220
2210
2408
2808
ENDCHAR
STARTCHAR uni4F40
ENCODING 20288
SWIDTH 1000 0
SWIDTH1 1000 0
BBX 12 14 1 -1
BITMAP
1000
17E0
1420
2420
2420
67E0
A400
2400
27F0
2410
2410
2410
27F0
2410
ENDCHAR
STARTCHAR uni4F41
ENCODING 20289
SWIDTH 1000 0
SWIDTH1 1000 0
BBX 13 14 1 -1
BITMAP
1080
1080
1120
2210
27F8
6008
A000
23F0
2210
2210
2210
2210
23F0
2210
ENDCHAR
STARTCHAR uni4F42
ENCODING 20290
SWIDTH 1000 0
SWIDTH1 1000 0
BBX 13 14 1 -1
BITMAP
1000
17F8
1040
2040
2040
6240
A278
2240
2240
2240
2240
2240
2240
2FF8
ENDCHAR
STARTCHAR uni4F43
ENCODING 20291
SWIDTH 1000 0
SWIDTH1 1000 0
BBX 13 14 1 -1
BITMAP
1000
17F8
2488
2488
6488
A488
27F8
2488
2488
2488
2488
2488
27F8
2408
ENDCHAR
STARTCHAR uni4F44
ENCODING 20292
SWIDTH 1000 0
SWIDTH1 1000 0
BBX 13 14 1 -1
BITMAP
1210
1210
1210
27F8
2210
6210
A210
23F0
2210
2210
2210
2210
23F0
2210
ENDCHAR
STARTCHAR uni4F45
ENCODING 20293
SWIDTH 1000 0
SWIDTH1 1000 0
BBX 13 14 1 -1
BITMAP
1080
1080
17F0
2080
2080
6080
A7F8
21C0
22A0
22A0
2490
2888
2080
2080
ENDCHAR
STARTCHAR uni4F46
ENCODING 20294
SWIDTH 1000 0
SWIDTH1 1000 0
BBX 13 14 1 -1
BITMAP
1000
17F0
2410
2410
6410
A7F0
2410
2410
2410
2410
27F0
2000
2000
2FF8
ENDCHAR
STARTCHAR uni4F47
ENCODING 20295
SWIDTH 1000 0
SWIDTH1 1000 0
BBX 13 14 1 -1
BITMAP
1080
1040
17F8
2408
2408
6000
A7F8
2040
2040
2040
2040
2040
2040
21C0
ENDCHAR
STARTCHAR uni4F48
ENCODING 20296
SWIDTH 1000 0
SWIDTH1 1000 0
BBX 13 14 1 -1
BITMAP
1080
1080
27F8
2100
6140
A240
27F8
2A48
2248
2248
2248
2258
2040
2040
ENDCHAR
STARTCHAR uni4F49
ENCODING 20297
SWIDTH 1000 0
SWIDTH1 1000 0
BBX 13 14 1 -1
BITMAP
1080
1080
1080
27F0
2080
6080
A080
2FF8
2100
2100
2220
2410
2FF8
2008
ENDCHAR
STARTCHAR uni4F4A
ENCODING 20298
SWIDTH 1000 0
SWIDTH1 1000 0
BBX 13 14 1 -1
BITMAP
1080
1080
17F8
2488
2490
6480
A7F0
2510
2510
24A0
24A0
2440
28A0
3318
ENDCHAR
STARTCHAR uni4F4B
ENCODING 20299
SWIDTH 1000 0
SWIDTH1 1000 0
BBX 13 14 1 -1
BITMAP
1000
17F8
2108
2108
6208
A408
2830
2000
27F8
2408
2408
2408
27F8
2408
ENDCHAR
STARTCHAR uni4F4C
ENCODING 20300
SWIDTH 1000 0
SWIDTH1 1000 0
BBX 13 14 1 -1
BITMAP
1020
1120
2120
2120
6528
A530
25A0
2520
2520
2520
2520
25A8
2E28
2018
ENDCHAR
STARTCHAR uni4F4D
ENCODING 20301
SWIDTH 1000 0
SWIDTH1 1000 0
BBX 13 14 1 -1
BITMAP
1100
1080
1080
27F0
2000
6020
A420
2420
2220
2240
2240
2040
2080
2FF8
ENDCHAR
STARTCHAR uni4F4E
ENCODING 20302
SWIDTH 1000 0
SWIDTH1 1000 0
BBX 13 14 1 -1
BITMAP
1000
1070
17C0
2440
2440
6440
A7F8
2440
2440
2440
2520
2628
2498
2048
ENDCHAR
STARTCHAR uni4F4F
ENCODING 20303
SWIDTH 1000 0
SWIDTH1 1000 0
BBX 13 14 1 -1
BITMAP
1100
1080
1000
27F0
2080
6080
A080
2080
27F0
2080
2080
2080
2080
2FF8
ENDCHAR
STARTCHAR uni4F50
ENCODING 20304
SWIDTH 1000 0
SWIDTH1 1000 0
BBX 13 14 1 -1
BITMAP
1080
1080
1080
27F8
2080
6100
A100
23F0
2240
2440
2440
2840
2040
27F8
ENDCHAR
STARTCHAR uni4F51
ENCODING 20305
SWIDTH 1000 0
SWIDTH1 1000 0
BBX 13 14 1 -1
BITMAP
1080
1080
1080
27F8
2100
6100
A200
23F0
2610
2A10
2210
2210
23F0
2210
ENDCHAR
STARTCHAR uni4F52
ENCODING 20306
SWIDTH 1000 0
SWIDTH1 1000 0
BBX 13 14 1 -1
BITMAP
1080
1080
1080
27F0
2490
6490
A490
2490
2FF8
2140
2140
2220
2410
2808
ENDCHAR
STARTCHAR uni4F53
ENCODING 20307
SWIDTH 1000 0
SWIDTH1 1000 0
BBX 13 14 1 -1
BITMAP
1080
1080
1080
27F8
2080
61C0
A1C0
22A0
22A0
2490
2BE8
2080
2080
2080
ENDCHAR
STARTCHAR uni4F54
ENCODING 20308
SWIDTH 1000 0
SWIDTH1 1000 0
BBX 13 14 1 -1
BITMAP
1080
1080
1080
20F8
2080
6080
A080
27F0
2410
2410
2410
2410
27F0
2410
ENDCHAR
STARTCHAR uni4F55
ENCODING 20309
SWIDTH 1000 0
SWIDTH1 1000 0
BBX 13 14 1 -1
BITMAP
1000
17F8
2010
2010
6790
A490
2490
2490
2490
2790
2410
2010
2010
2070
ENDCHAR
STARTCHAR uni4F56
ENCODING 20310
SWIDTH 1000 0
SWIDTH1 1000 0
BBX 13 14 1 -1
BITMAP
1100
1080
1080
2020
2220
6220
AA40
2A50
2A88
3308
2200
2620
2A20
31E0
ENDCHAR
STARTCHAR uni4F57
ENCODING 20311
SWIDTH 1000 0
SWIDTH1 1000 0
BBX 13 14 1 -1
BITMAP
1080
1040
17F8
2408
2000
6200
A210
2260
2380
2200
2200
2208
2208
21F8
ENDCHAR
STARTCHAR uni4F58
ENCODING 20312
SWIDTH 1000 0
SWIDTH1 1000 0
BBX 13 14 1 -1
BITMAP
0200
0500
0880
3060
C018
1FC0
0000
0000
7FF0
0200
1240
2220
4210
0E00
ENDCHAR
STARTCHAR uni4F59
ENCODING 20313
SWIDTH 1000 0
SWIDTH1 1000 0
BBX 13 14 1 -1
BITMAP
0200
0500
0880
1040
2020
DFD8
0200
0200
7FF0
0200
1240
2220
4210
0E00
ENDCHAR
STARTCHAR uni4F5A
ENCODING 20314
SWIDTH 1000 0
SWIDTH1 1000 0
BBX 13 14 1 -1
BITMAP
1080
1480
1480
27F0
2880
6080
A080
2FF8
2080
2140
2140
2220
2410
2808
ENDCHAR
STARTCHAR uni4F5B
ENCODING 20315
SWIDTH 1000 0
SWIDTH1 1000 0
BBX 13 14 1 -1
BITMAP
1140
1140
17F0
2150
2150
67F0
A540
2540
27F8
2148
2148
2248
2258
2440
ENDCHAR
STARTCHAR uni4F5C
ENCODING 20316
SWIDTH 1000 0
SWIDTH1 1000 0
BBX 13 14 1 -1
BITMAP
1200
1200
13F8
2500
2500
6900
A1F0
2100
2100
2100
21F8
2100
2100
2100
ENDCHAR
STARTCHAR uni4F5D
ENCODING 20317
SWIDTH 1000 0
SWIDTH1 1000 0
BBX 12 14 1 -1
BITMAP
1200
1200
13F0
2410
2810
6790
A490
2490
2490
2490
2790
2410
2010
2060
ENDCHAR
STARTCHAR uni4F5E
ENCODING 20318
SWIDTH 1000 0
SWIDTH1 1000 0
BBX 13 14 1 -1
BITMAP
1000
13F0
1000
2000
27F8
6080
A080
27F8
2120
2220
2340
20C0
2120
2610
ENDCHAR
STARTCHAR uni4F5F
ENCODING 20319
SWIDTH 1000 0
SWIDTH1 1000 0
BBX 13 14 1 -1
BITMAP
1100
1100
11E0
2220
2540
6080
A140
2220
2418
2180
2060
2300
20C0
2020
ENDCHAR
STARTCHAR uni4F60
ENCODING 20320
SWIDTH 1000 0
SWIDTH1 1000 0
BBX 13 14 1 -1
BITMAP
1200
1200
17F8
2408
2810
6080
A080
22A0
2290
2490
2488
2888
2080
2380
ENDCHAR
STARTCHAR uni4F61
ENCODING 20321
SWIDTH 1000 0
SWIDTH1 1000 0
BBX 13 14 1 -1
BITMAP
1080
1080
1140
2220
2410
6888
A080
2490
2490
2490
2490
2490
27F0
2010
ENDCHAR
STARTCHAR uni4F62
ENCODING 20322
SWIDTH 1000 0
SWIDTH1 1000 0
BBX 13 14 1 -1
BITMAP
1000
17F8
1400
2400
2400
67F0
A410
2410
2410
27F0
2400
2400
2400
27F8
ENDCHAR
STARTCHAR uni4F63
ENCODING 20323
SWIDTH 1000 0
SWIDTH1 1000 0
BBX 13 14 1 -1
BITMAP
1000
17F8
2488
2488
6488
A7F8
2488
2488
27F8
2488
2488
2488
2488
2838
ENDCHAR
STARTCHAR uni4F64
ENCODING 20324
SWIDTH 1000 0
SWIDTH1 1000 0
BBX 13 14 1 -1
BITMAP
1000
17F0
1200
2200
23E0
6220
A220
2520
24A0
2420
2420
2528
2628
2418
ENDCHAR
STARTCHAR uni4F65
ENCODING 20325
SWIDTH 1000 0
SWIDTH1 1000 0
BBX 13 14 1 -1
BITMAP
0200
0200
0500
0880
1040
2020
DFD8
0000
0400
2220
1220
1240
0080
FFF8
ENDCHAR
STARTCHAR uni4F66
ENCODING 20326
SWIDTH 1000 0
SWIDTH1 1000 0
BBX 13 14 1 -1
BITMAP
1000
17F8
1080
2080
2100
6100
A3F8
2308
2508
2908
2108
2108
21F8
2108
ENDCHAR
STARTCHAR uni4F67
ENCODING 20327
SWIDTH 1000 0
SWIDTH1 1000 0
BBX 13 14 1 -1
BITMAP
1100
1100
1100
21F0
2100
6100
AFF8
2100
2140
2120
2110
2110
2100
2100
ENDCHAR
STARTCHAR uni4F68
ENCODING 20328
SWIDTH 1000 0
SWIDTH1 1000 0
BBX 13 14 1 -1
BITMAP
1100
1100
13F0
2210
2410
6BD0
A250
2250
23D0
2210
2260
2208
2208
21F8
ENDCHAR
STARTCHAR uni4F69
ENCODING 20329
SWIDTH 1000 0
SWIDTH1 1000 0
BBX 13 14 1 -1
BITMAP
2000
3FF0
3010
57D0
5110
D110
57D0
5550
5550
5550
5550
55D0
5118
6108
ENDCHAR
STARTCHAR uni4F6A
ENCODING 20330
SWIDTH 1000 0
SWIDTH1 1000 0
BBX 13 14 1 -1
BITMAP
1000
17F8
1408
2408
25E8
6528
A528
2528
2528
25E8
2408
2408
27F8
2408
ENDCHAR
STARTCHAR uni4F6B
ENCODING 20331
SWIDTH 1000 0
SWIDTH1 1000 0
BBX 13 14 1 -1
BITMAP
1200
1200
17E0
2420
2A20
6240
A180
2660
3818
27E0
2420
2420
27E0
2420
ENDCHAR
STARTCHAR uni4F6C
ENCODING 20332
SWIDTH 1000 0
SWIDTH1 1000 0
BBX 13 14 1 -1
BITMAP
1080
1088
17E8
2090
2090
60A0
AFF8
2080
2100
2330
25C0
2908
2108
20F8
ENDCHAR
STARTCHAR uni4F6D
ENCODING 20333
SWIDTH 1000 0
SWIDTH1 1000 0
BBX 13 14 1 -1
BITMAP
1100
13F0
1410
2A20
21C0
6E38
A080
23F0
2080
2480
27F8
2080
2080
2080
ENDCHAR
STARTCHAR uni4F6E
ENCODING 20334
SWIDTH 1000 0
SWIDTH1 1000 0
BBX 13 14 1 -1
BITMAP
1080
1080
1140
2220
2410
6BE8
A000
2000
27F0
2410
2410
2410
27F0
2410
ENDCHAR
STARTCHAR uni4F6F
ENCODING 20335
SWIDTH 1000 0
SWIDTH1 1000 0
BBX 13 14 1 -1
BITMAP
1410
1220
1000
27F0
2080
6080
A7F0
2080
2080
2FF8
2080
2080
2080
2080
ENDCHAR
STARTCHAR uni4F70
ENCODING 20336
SWIDTH 1000 0
SWIDTH1 1000 0
BBX 13 14 1 -1
BITMAP
1000
1FF8
2080
2100
67F0
A410
2410
2410
27F0
2410
2410
2410
27F0
2410
ENDCHAR
STARTCHAR uni4F71
ENCODING 20337
SWIDTH 1000 0
SWIDTH1 1000 0
BBX 13 14 1 -1
BITMAP
0200
0500
0880
3060
DFD8
0000
0000
FFF8
0200
1200
13E0
1200
1200
FFF8
ENDCHAR
STARTCHAR uni4F72
ENCODING 20338
SWIDTH 1000 0
SWIDTH1 1000 0
BBX 12 14 1 -1
BITMAP
1100
1100
13F0
2410
2A20
6140
A080
2100
23F0
2610
2A10
2210
23F0
2210
ENDCHAR
STARTCHAR uni4F73
ENCODING 20339
SWIDTH 1000 0
SWIDTH1 1000 0
BBX 13 14 1 -1
BITMAP
1080
1080
17F0
2080
2080
6FF8
A000
2080
2080
27F0
2080
2080
2080
2FF8
ENDCHAR
STARTCHAR uni4F74
ENCODING 20340
SWIDTH 1000 0
SWIDTH1 1000 0
BBX 13 14 1 -1
BITMAP
1000
17F8
2210
2210
63F0
A210
2210
23F0
2210
2210
2278
2790
2010
2010
ENDCHAR
STARTCHAR uni4F75
ENCODING 20341
SWIDTH 1000 0
SWIDTH1 1000 0
BBX 13 14 1 -1
BITMAP
1410
1220
1000
27F0
2220
6220
A220
2FF8
2220
2220
2220
2420
2420
2820
ENDCHAR
STARTCHAR uni4F76
ENCODING 20342
SWIDTH 1000 0
SWIDTH1 1000 0
BBX 13 14 1 -1
BITMAP
1080
1080
2FF8
2080
6080
A7F0
2000
2000
27F0
2410
2410
2410
27F0
2410
ENDCHAR
STARTCHAR uni4F77
ENCODING 20343
SWIDTH 1000 0
SWIDTH1 1000 0
BBX 13 14 1 -1
BITMAP
1000
13F0
1210
2210
23F0
6210
A210
23F0
2248
2250
2220
22A0
2310
2208
ENDCHAR
STARTCHAR uni4F78
ENCODING 20344
SWIDTH 1000 0
SWIDTH1 1000 0
BBX 13 14 1 -1
BITMAP
1000
1070
1780
2080
2080
6FF8
A080
2080
27F0
2410
2410
2410
27F0
2410
ENDCHAR
STARTCHAR uni4F79
ENCODING 20345
SWIDTH 1000 0
SWIDTH1 1000 0
BBX 13 14 1 -1
BITMAP
1200
13F0
2420
2440
6FF8
B400
25F0
2510
2510
2510
2560
2908
2908
30F8
ENDCHAR
STARTCHAR uni4F7A
ENCODING 20346
SWIDTH 1000 0
SWIDTH1 1000 0
BBX 13 14 1 -1
BITMAP
1080
1080
1140
2220
2410
6808
A7F0
2080
2080
27F0
2080
2080
2080
2FF8
ENDCHAR
STARTCHAR uni4F7B
ENCODING 20347
SWIDTH 1000 0
SWIDTH1 1000 0
BBX 13 14 1 -1
BITMAP
1140
1140
1148
2550
2360
6140
A140
2360
2550
2148
2240
2248
2448
2838
ENDCHAR
STARTCHAR uni4F7C
ENCODING 20348
SWIDTH 1000 0
SWIDTH1 1000 0
BBX 13 14 1 -1
BITMAP
1100
1080
17F0
2000
2220
6410
AA28
2220
2140
2140
2080
2140
2220
2C18
ENDCHAR
STARTCHAR uni4F7D
ENCODING 20349
SWIDTH 1000 0
SWIDTH1 1000 0
BBX 13 14 1 -1
BITMAP
1040
1040
1440
22F8
2088
6110
A040
2240
2240
2440
24A0
28A0
2910
2208
ENDCHAR
STARTCHAR uni4F7E
ENCODING 20350
SWIDTH 1000 0
SWIDTH1 1000 0
BBX 13 14 1 -1
BITMAP
1240
1240
1420
2810
27E8
6420
A420
27E0
2420
2420
27E0
2420
2420
24E0
ENDCHAR
STARTCHAR uni4F7F
ENCODING 20351
SWIDTH 1000 0
SWIDTH1 1000 0
BBX 13 14 1 -1
BITMAP
1080
1080
2FF8
2080
6FF8
A888
2888
2FF8
2480
2280
2100
2280
2460
2818
ENDCHAR
STARTCHAR uni4F80
ENCODING 20352
SWIDTH 1000 0
SWIDTH1 1000 0
BBX 12 14 1 -1
BITMAP
1010
1F90
2510
2550
6550
A550
2FD0
2550
2550
2550
2510
2910
2910
3170
ENDCHAR
STARTCHAR uni4F81
ENCODING 20353
SWIDTH 1000 0
SWIDTH1 1000 0
BBX 13 14 1 -1
BITMAP
1080
1480
1480
27F0
2480
6880
A080
2FF8
2240
2240
2240
2448
2848
3038
ENDCHAR
STARTCHAR uni4F82
ENCODING 20354
SWIDTH 1000 0
SWIDTH1 1000 0
BBX 13 14 1 -1
BITMAP
1080
1040
17F8
2400
2430
65C0
A440
2440
2478
27C0
2440
2848
2848
3038
ENDCHAR
STARTCHAR uni4F83
ENCODING 20355
SWIDTH 1000 0
SWIDTH1 1000 0
BBX 13 14 1 -1
BITMAP
1000
17F0
1410
2410
2410
67F0
A000
22A0
22A0
22A0
22A0
22A8
24A8
2818
ENDCHAR
STARTCHAR uni4F84
ENCODING 20356
SWIDTH 1000 0
SWIDTH1 1000 0
BBX 13 14 1 -1
BITMAP
1000
17F0
1080
2120
2210
67F0
A090
2080
2080
27F0
2080
2080
2080
2FF8
ENDCHAR
STARTCHAR uni4F85
ENCODING 20357
SWIDTH 1000 0
SWIDTH1 1000 0
BBX 13 14 1 -1
BITMAP
1100
1080
27F8
2080
6120
A220
27C0
2090
2110
2220
2440
20A0
2110
2610
ENDCHAR
STARTCHAR uni4F86
ENCODING 20358
SWIDTH 1000 0
SWIDTH1 1000 0
BBX 13 14 1 -1
BITMAP
0200
0200
7FF0
0200
1240
1240
1240
2AA0
4710
0A80
1240
2220
C218
0200
ENDCHAR
STARTCHAR uni4F87
ENCODING 20359
SWIDTH 1000 0
SWIDTH1 1000 0
BBX 13 14 1 -1
BITMAP
1080
1080
17F8
2080
27F0
6090
A7F0
2480
27F8
2088
20B0
2140
2220
2418
ENDCHAR
STARTCHAR uni4F88
ENCODING 20360
SWIDTH 1000 0
SWIDTH1 1000 0
BBX 13 14 1 -1
BITMAP
2200
2200
27F0
4C20
5240
C1A0
4640
58F8
4108
4610
5920
40C0
4300
5C00
ENDCHAR
STARTCHAR uni4F89
ENCODING 20361
SWIDTH 1000 0
SWIDTH1 1000 0
BBX 13 14 1 -1
BITMAP
1080
1080
27F8
2220
6410
ABE8
2000
2FF8
2200
23F0
2010
2010
2010
2060
ENDCHAR
STARTCHAR uni4F8A
ENCODING 20362
SWIDTH 1000 0
SWIDTH1 1000 0
BBX 13 14 1 -1
BITMAP
1080
1080
1490
2290
22A0
6080
AFF8
2240
2240
2240
2240
2448
2448
2838
ENDCHAR
STARTCHAR uni4F8B
ENCODING 20363
SWIDTH 1000 0
SWIDTH1 1000 0
BBX 13 14 1 -1
BITMAP
1008
17C8
2208
2228
63A8
A4A8
24A8
24A8
2AA8
2128
2108
2208
2408
2838
ENDCHAR
STARTCHAR uni4F8C
ENCODING 20364
SWIDTH 1000 0
SWIDTH1 1000 0
BBX 13 14 1 -1
BITMAP
0200
0500
0880
3260
CF98
0080
0100
3FE0
0000
FFF8
0800
1040
3FE0
0020
ENDCHAR
STARTCHAR uni4F8D
ENCODING 20365
SWIDTH 1000 0
SWIDTH1 1000 0
BBX 13 14 1 -1
BITMAP
1080
1080
17F0
2080
2080
6FF8
A020
2020
2FF8
2020
2420
2220
2020
20E0
ENDCHAR
STARTCHAR uni4F8E
ENCODING 20366
SWIDTH 1000 0
SWIDTH1 1000 0
BBX 13 14 1 -1
BITMAP
1080
1080
1490
2290
22A0
6080
A7F8
21C0
22A0
22A0
2490
2888
2080
2080
ENDCHAR
STARTCHAR uni4F8F
ENCODING 20367
SWIDTH 1000 0
SWIDTH1 1000 0
BBX 13 14 1 -1
BITMAP
1080
1280
1280
23F0
2480
6080
A080
27F8
21C0
22A0
22A0
2490
2888
2080
ENDCHAR
STARTCHAR uni4F90
ENCODING 20368
SWIDTH 1000 0
SWIDTH1 1000 0
BBX 13 14 1 -1
BITMAP
1100
1100
1200
27F0
2550
6550
A550
2550
2550
2550
2550
2550
2550
2FF8
ENDCHAR
STARTCHAR uni4F91
ENCODING 20369
SWIDTH 1000 0
SWIDTH1 1000 0
BBX 13 14 1 -1
BITMAP
1080
1080
17F8
2100
2200
63F0
A610
2A10
23F0
2210
23F0
2210
2210
2270
ENDCHAR
STARTCHAR uni4F92
ENCODING 20370
SWIDTH 1000 0
SWIDTH1 1000 0
BBX 13 14 1 -1
BITMAP
1080
1040
17F8
2408
2488
6080
A7F8
2110
2110
2320
20C0
20A0
2110
2608
ENDCHAR
STARTCHAR uni4F93
ENCODING 20371
SWIDTH 1000 0
SWIDTH1 1000 0
BBX 13 14 1 -1
BITMAP
1080
1080
17F0
2090
2FF8
6090
A7F0
2080
27F0
2080
2FF8
2080
2080
2080
ENDCHAR
STARTCHAR uni4F94
ENCODING 20372
SWIDTH 1000 0
SWIDTH1 1000 0
BBX 13 14 1 -1
BITMAP
1080
1080
1120
2210
27F0
6090
A480
27F0
2880
2080
2FF8
2080
2080
2080
ENDCHAR
STARTCHAR uni4F95
ENCODING 20373
SWIDTH 1000 0
SWIDTH1 1000 0
BBX 12 14 1 -1
BITMAP
1000
17F0
2080
2100
67F0
A550
2550
2550
2550
2550
2550
2550
2410
2470
ENDCHAR
STARTCHAR uni4F96
ENCODING 20374
SWIDTH 1000 0
SWIDTH1 1000 0
BBX 13 14 1 -1
BITMAP
0200
0500
0880
3060
CF98
0000
7FF0
4890
4890
7FF0
4890
4890
4890
4030
ENDCHAR
STARTCHAR uni4F97
ENCODING 20375
SWIDTH 1000 0
SWIDTH1 1000 0
BBX 13 14 1 -1
BITMAP
1000
17F8
2408
2408
65E8
A408
25E8
2528
2528
2528
25E8
2408
2408
2438
ENDCHAR
STARTCHAR uni4F98
ENCODING 20376
SWIDTH 1000 0
SWIDTH1 1000 0
BBX 13 14 1 -1
BITMAP
1080
1040
17F8
2408
2408
6070
A380
2080
20B8
27C0
2080
2088
2088
2078
ENDCHAR
STARTCHAR uni4F99
ENCODING 20377
SWIDTH 1000 0
SWIDTH1 1000 0
BBX 13 14 1 -1
BITMAP
1050
1048
2040
2FF8
6040
A040
2740
2240
2240
2220
2228
23A8
2E18
2008
ENDCHAR
STARTCHAR uni4F9A
ENCODING 20378
SWIDTH 1000 0
SWIDTH1 1000 0
BBX 13 14 1 -1
BITMAP
1200
1200
17F8
2808
27E8
6428
A428
27E8
2428
2428
27E8
2408
2008
2030
ENDCHAR
STARTCHAR uni4F9B
ENCODING 20379
SWIDTH 1000 0
SWIDTH1 1000 0
BBX 13 14 1 -1
BITMAP
1220
1220
1220
27F0
2220
6220
A220
2220
2FF8
2000
2220
2210
2408
2808
ENDCHAR
STARTCHAR uni4F9C
ENCODING 20380
SWIDTH 1000 0
SWIDTH1 1000 0
BBX 13 14 1 -1
BITMAP
1040
1080
13F0
2210
2290
6250
A250
27F8
2210
2290
2250
2210
2210
2470
ENDCHAR
STARTCHAR uni4F9D
ENCODING 20381
SWIDTH 1000 0
SWIDTH1 1000 0
BBX 13 14 1 -1
BITMAP
1100
1080
1000
2FF0
2100
6100
A290
26A0
2A40
3240
2220
2290
2308
2200
ENDCHAR
STARTCHAR uni4F9E
ENCODING 20382
SWIDTH 1000 0
SWIDTH1 1000 0
BBX 12 14 1 -1
BITMAP
1200
1200
2270
2F50
6550
A550
2550
2550
2950
2550
2250
2570
2550
2800
ENDCHAR
STARTCHAR uni4F9F
ENCODING 20383
SWIDTH 1000 0
SWIDTH1 1000 0
BBX 13 14 1 -1
BITMAP
1080
1080
1080
27F8
2100
6200
A2F0
2610
2A20
23F8
2220
2220
2220
22E0
ENDCHAR
STARTCHAR uni4FA0
ENCODING 20384
SWIDTH 1000 0
SWIDTH1 1000 0
BBX 13 14 1 -1
BITMAP
1080
1080
17F0
2080
2490
62A0
A080
2FF8
2080
2140
2140
2220
2410
2808
ENDCHAR
STARTCHAR uni4FA1
ENCODING 20385
SWIDTH 1000 0
SWIDTH1 1000 0
BBX 13 14 1 -1
BITMAP
1000
17F8
2140
2140
6140
A7F0
2550
2550
2550
2550
2550
2550
27F0
2410
ENDCHAR
STARTCHAR uni4FA2
ENCODING 20386
SWIDTH 1000 0
SWIDTH1 1000 0
BBX 13 14 1 -1
BITMAP
1000
1FF8
1080
27F0
2490
6490
A7F0
2490
2490
2FF8
2410
2410
2410
2470
ENDCHAR
STARTCHAR uni4FA3
ENCODING 20387
SWIDTH 1000 0
SWIDTH1 1000 0
BBX 13 14 1 -1
BITMAP
1000
13F0
1210
2210
2210
63F0
A000
2000
27F8
2408
2408
2408
27F8
2408
ENDCHAR
STARTCHAR uni4FA4
ENCODING 20388
SWIDTH 1000 0
SWIDTH1 1000 0
BBX 13 14 1 -1
BITMAP
1080
1090
13D0
20A0
2FF8
6080
A100
23F0
2480
2900
21F0
2010
2010
2060
ENDCHAR
STARTCHAR uni4FA5
ENCODING 20389
SWIDTH 1000 0
SWIDTH1 1000 0
BBX 13 14 1 -1
BITMAP
1100
1100
1170
2780
20A0
6048
A1A8
2618
2000
27F0
2140
2140
2248
2C38
ENDCHAR
STARTCHAR uni4FA6
ENCODING 20390
SWIDTH 1000 0
SWIDTH1 1000 0
BBX 13 14 1 -1
BITMAP
1080
10F8
1080
2080
27F0
6410
A410
2490
2490
2490
2490
2140
2220
2C10
ENDCHAR
STARTCHAR uni4FA7
ENCODING 20391
SWIDTH 1000 0
SWIDTH1 1000 0
BBX 13 14 1 -1
BITMAP
1008
1F88
2888
2AA8
6AA8
AAA8
2AA8
2AA8
2AA8
2AA8
2208
2508
2488
2838
ENDCHAR
STARTCHAR uni4FA8
ENCODING 20392
SWIDTH 1000 0
SWIDTH1 1000 0
BBX 13 14 1 -1
BITMAP
1070
1780
1080
2080
2FF8
6140
A220
2410
2A28
2220
2220
2220
2220
2420
ENDCHAR
STARTCHAR uni4FA9
ENCODING 20393
SWIDTH 1000 0
SWIDTH1 1000 0
BBX 13 14 1 -1
BITMAP
1080
1080
1140
2220
2410
6BE8
A000
2000
27F0
2100
2240
2420
27F0
2010
ENDCHAR
STARTCHAR uni4FAA
ENCODING 20394
SWIDTH 1000 0
SWIDTH1 1000 0
BBX 13 14 1 -1
BITMAP
1100
1080
17F8
2220
2140
6080
A360
2C18
2220
2220
2220
2220
2420
2820
ENDCHAR
STARTCHAR uni4FAB
ENCODING 20395
SWIDTH 1000 0
SWIDTH1 1000 0
BBX 13 14 1 -1
BITMAP
1100
1080
1FF8
2400
2400
67F0
A100
2100
2FF8
2220
2640
2180
2260
2C10
ENDCHAR
STARTCHAR uni4FAC
ENCODING 20396
SWIDTH 1000 0
SWIDTH1 1000 0
BBX 13 14 1 -1
BITMAP
1080
1080
2FF8
2888
6908
A100
2290
26A0
2A40
3240
2220
2290
2308
2200
ENDCHAR
STARTCHAR uni4FAD
ENCODING 20397
SWIDTH 1000 0
SWIDTH1 1000 0
BBX 13 14 1 -1
BITMAP
1000
17F0
1410
2410
27F0
6480
A440
2420
2598
2440
2800
2180
2040
2020
ENDCHAR
STARTCHAR uni4FAE
ENCODING 20398
SWIDTH 1000 0
SWIDTH1 1000 0
BBX 13 14 1 -1
BITMAP
1200
1200
13F8
2400
2BF0
6290
A250
2FF8
2210
2490
2450
27F8
2010
2060
ENDCHAR
STARTCHAR uni4FAF
ENCODING 20399
SWIDTH 1000 0
SWIDTH1 1000 0
BBX 13 14 1 -1
BITMAP
1000
13E0
1020
2020
2FF8
6200
A3F0
2480
2080
27F8
2080
2140
2220
2C18
ENDCHAR
STARTCHAR uni4FB0
ENCODING 20400
SWIDTH 1000 0
SWIDTH1 1000 0
BBX 13 14 1 -1
BITMAP
1000
17F0
1110
2110
2FF8
6110
A110
27F0
2200
27F0
2A10
3210
23F0
2210
ENDCHAR
STARTCHAR uni4FB1
ENCODING 20401
SWIDTH 1000 0
SWIDTH1 1000 0
BBX 13 14 1 -1
BITMAP
1000
17F0
1410
2410
27F0
6000
A000
27F0
2080
2080
27F0
2080
2080
2FF8
ENDCHAR
STARTCHAR uni4FB2
ENCODING 20402
SWIDTH 1000 0
SWIDTH1 1000 0
BBX 13 14 1 -1
BITMAP
1000
17F8
1400
2400
25F0
6400
A400
27F8
2540
2548
2530
2520
2590
2908
ENDCHAR
STARTCHAR uni4FB3
ENCODING 20403
SWIDTH 1000 0
SWIDTH1 1000 0
BBX 13 14 1 -1
BITMAP
1080
1080
12A0
22A0
22A0
65D0
A888
2080
2080
27F0
2080
2080
2080
2FF8
ENDCHAR
STARTCHAR uni4FB4
ENCODING 20404
SWIDTH 1000 0
SWIDTH1 1000 0
BBX 13 14 1 -1
BITMAP
0200
0500
0880
3060
DFD8
0000
7C90
1490
1490
7C90
2490
2410
2E10
F070
ENDCHAR
STARTCHAR uni4FB5
ENCODING 20405
SWIDTH 1000 0
SWIDTH1 1000 0
BBX 13 14 1 -1
BITMAP
17F0
1010
13F0
2010
27F0
6000
AFF8
2808
23E0
2220
2140
2080
2360
2C18
ENDCHAR
STARTCHAR uni4FB6
ENCODING 20406
SWIDTH 1000 0
SWIDTH1 1000 0
BBX 12 14 1 -1
BITMAP
1000
13E0
1220
2220
2220
63E0
A080
2100
27F0
2410
2410
2410
27F0
2410
ENDCHAR
STARTCHAR uni4FB7
ENCODING 20407
SWIDTH 1000 0
SWIDTH1 1000 0
BBX 13 14 1 -1
BITMAP
1000
17F0
2410
2410
67F0
A400
27F8
2408
25E8
2528
2528
29E8
2808
3030
ENDCHAR
STARTCHAR uni4FB8
ENCODING 20408
SWIDTH 1000 0
SWIDTH1 1000 0
BBX 13 14 1 -1
BITMAP
1000
17F0
1000
2000
27F0
6410
A410
2410
27F0
2000
2410
2220
2000
2FF8
ENDCHAR
STARTCHAR uni4FB9
ENCODING 20409
SWIDTH 1000 0
SWIDTH1 1000 0
BBX 13 14 1 -1
BITMAP
1010
1760
2120
2220
6220
A478
2720
2120
2120
2520
2578
2200
2500
28F8
ENDCHAR
STARTCHAR uni4FBA
ENCODING 20410
SWIDTH 1000 0
SWIDTH1 1000 0
BBX 13 14 1 -1
BITMAP
1080
1490
1490
27F0
2080
6140
A220
2510
2888
23E0
2020
2040
2040
2080
ENDCHAR
STARTCHAR uni4FBB
ENCODING 20411
SWIDTH 1000 0
SWIDTH1 1000 0
BBX 13 14 1 -1
BITMAP
1420
1220
2240
27F0
6410
A410
2410
27F0
2240
2240
2240
2448
2448
2838
ENDCHAR
STARTCHAR uni4FBC
ENCODING 20412
SWIDTH 1000 0
SWIDTH1 1000 0
BBX 13 14 1 -1
BITMAP
1080
1080
2FF8
2080
6FF8
A808
27E0
2040
2080
2FF8
2080
2080
2080
2380
ENDCHAR
STARTCHAR uni4FBD
ENCODING 20413
SWIDTH 1000 0
SWIDTH1 1000 0
BBX 12 14 1 -1
BITMAP
17F0
1490
1490
27F0
2490
6490
A7F0
2100
2FF0
2110
2210
2210
2410
2860
ENDCHAR
STARTCHAR uni4FBE
ENCODING 20414
SWIDTH 1000 0
SWIDTH1 1000 0
BBX 13 14 1 -1
BITMAP
1080
1088
17F0
20A0
20C0
6FF8
A100
2FF0
2420
2840
27F8
2040
2040
21C0
ENDCHAR
STARTCHAR uni4FBF
ENCODING 20415
SWIDTH 1000 0
SWIDTH1 1000 0
BBX 13 14 1 -1
BITMAP
1000
1FF8
1080
27F0
2490
6490
A7F0
2490
2490
27F0
2280
2100
22C0
2C38
ENDCHAR
STARTCHAR uni4FC0
ENCODING 20416
SWIDTH 1000 0
SWIDTH1 1000 0
BBX 13 14 1 -1
BITMAP
1070
1780
1110
2490
2220
6080
A080
27F8
2120
2220
2340
20C0
2120
2610
ENDCHAR
STARTCHAR uni4FC1
ENCODING 20417
SWIDTH 1000 0
SWIDTH1 1000 0
BBX 13 14 1 -1
BITMAP
1000
11E0
1120
2120
25E0
6400
A7F0
2090
2090
2FF8
2080
2140
2220
2418
ENDCHAR
STARTCHAR uni4FC2
ENCODING 20418
SWIDTH 1000 0
SWIDTH1 1000 0
BBX 13 14 1 -1
BITMAP
1070
1780
1080
2110
2220
67C0
A080
2110
27F8
2088
22A0
2490
2888
2380
ENDCHAR
STARTCHAR uni4FC3
ENCODING 20419
SWIDTH 1000 0
SWIDTH1 1000 0
BBX 13 14 1 -1
BITMAP
1000
17F0
1410
2410
2410
67F0
A080
2080
2480
24F0
2480
2480
2A80
31F8
ENDCHAR
STARTCHAR uni4FC4
ENCODING 20420
SWIDTH 1000 0
SWIDTH1 1000 0
BBX 13 14 1 -1
BITMAP
1040
1150
1648
2248
2240
6FF8
A240
2250
2350
2E30
2228
2228
2258
2E88
ENDCHAR
STARTCHAR uni4FC5
ENCODING 20421
SWIDTH 1000 0
SWIDTH1 1000 0
BBX 13 14 1 -1
BITMAP
10A0
1090
1080
2FF8
2080
6480
A2C8
20D0
21A0
22A0
2490
2888
2080
2380
ENDCHAR
STARTCHAR uni4FC6
ENCODING 20422
SWIDTH 1000 0
SWIDTH1 1000 0
BBX 13 14 1 -1
BITMAP
1080
1080
2140
2220
6410
ABE8
2080
2080
27F0
2080
2490
2488
2888
2380
ENDCHAR
STARTCHAR uni4FC7
ENCODING 20423
SWIDTH 1000 0
SWIDTH1 1000 0
BBX 13 14 1 -1
BITMAP
1900
1500
22F8
2620
6A20
A220
2220
26F8
2A20
2220
2220
2220
2220
2CF8
ENDCHAR
STARTCHAR uni4FC8
ENCODING 20424
SWIDTH 1000 0
SWIDTH1 1000 0
BBX 13 14 1 -1
BITMAP
1080
1480
17F0
2880
2080
6FF8
A000
2000
27F0
2410
2410
2410
27F0
2410
ENDCHAR
STARTCHAR uni4FC9
ENCODING 20425
SWIDTH 1000 0
SWIDTH1 1000 0
BBX 13 14 1 -1
BITMAP
1000
1FF8
2100
2100
67F0
A210
2210
2FF8
2000
27F0
2410
2410
27F0
2410
ENDCHAR
STARTCHAR uni4FCA
ENCODING 20426
SWIDTH 1000 0
SWIDTH1 1000 0
BBX 13 14 1 -1
BITMAP
1080
1100
1220
27F0
2010
6220
A410
2908
21E0
2220
2540
2080
2360
2C18
ENDCHAR
STARTCHAR uni4FCB
ENCODING 20427
SWIDTH 1000 0
SWIDTH1 1000 0
BBX 13 14 1 -1
BITMAP
1000
13E0
1220
2220
23E0
6000
A7F0
2490
2490
27F0
2400
2408
2408
23F8
ENDCHAR
STARTCHAR uni4FCC
ENCODING 20428
SWIDTH 1000 0
SWIDTH1 1000 0
BBX 13 14 1 -1
BITMAP
10A0
1090
2FF8
2080
67F0
A490
2490
27F0
2490
2490
27F0
2490
2490
2430
ENDCHAR
STARTCHAR uni4FCD
ENCODING 20429
SWIDTH 1000 0
SWIDTH1 1000 0
BBX 13 14 1 -1
BITMAP
1100
1080
17F0
2410
2410
67F0
A410
2410
27F0
2488
2450
2520
2610
2408
ENDCHAR
STARTCHAR uni4FCE
ENCODING 20430
SWIDTH 1000 0
SWIDTH1 1000 0
BBX 13 14 1 -1
BITMAP
1000
11F0
1110
2910
2510
45F0
9110
1110
1110
29F0
2510
4510
8110
03F8
ENDCHAR
STARTCHAR uni4FCF
ENCODING 20431
SWIDTH 1000 0
SWIDTH1 1000 0
BBX 12 14 1 -1
BITMAP
1080
1490
12A0
2080
27F0
6410
A410
27F0
2410
2410
27F0
2410
2410
2470
ENDCHAR
ENDFONT
